<?xml version="1.0" encoding="utf-8"?>
<!-- Generator: Adobe Illustrator 24.2.0, SVG Export Plug-In . SVG Version: 6.00 Build 0)  -->
<svg version="1.1" id="Capa_1" xmlns="http://www.w3.org/2000/svg" xmlns:xlink="http://www.w3.org/1999/xlink" x="0px" y="0px"
	 viewBox="0 0 522 413" style="enable-background:new 0 0 522 413;" xml:space="preserve">
<style type="text/css">
	.st0{opacity:0.75;}
	.st1{opacity:0.5;fill:url(#SVGID_1_);}
	.st2{fill:url(#SVGID_2_);}
	.st3{opacity:0.5;fill:url(#SVGID_3_);}
	.st4{opacity:0.5;fill:url(#SVGID_4_);}
	.st5{opacity:0.5;fill:url(#SVGID_5_);}
	.st6{opacity:0.5;fill:url(#SVGID_6_);}
	.st7{opacity:0.5;}
	.st8{fill:url(#SVGID_7_);}
	.st9{opacity:0.5;fill:url(#SVGID_8_);}
</style>
<g class="st0">
	<g>
		<radialGradient id="SVGID_1_" cx="266.3601" cy="211.3393" r="206.5255" gradientUnits="userSpaceOnUse">
			<stop  offset="6.296300e-02" style="stop-color:#5085C5"/>
			<stop  offset="0.3043" style="stop-color:#5087C6;stop-opacity:0.7424"/>
			<stop  offset="0.478" style="stop-color:#528DC9;stop-opacity:0.5571"/>
			<stop  offset="0.6305" style="stop-color:#5697CD;stop-opacity:0.3944"/>
			<stop  offset="0.7707" style="stop-color:#5CA5D2;stop-opacity:0.2447"/>
			<stop  offset="0.9014" style="stop-color:#66B7D7;stop-opacity:0.1052"/>
			<stop  offset="1" style="stop-color:#70C7DB;stop-opacity:0"/>
		</radialGradient>
		<circle class="st1" cx="262.9" cy="206.5" r="206.1"/>
		<radialGradient id="SVGID_2_" cx="206.4277" cy="124.3205" r="333.8058" gradientUnits="userSpaceOnUse">
			<stop  offset="0" style="stop-color:#C9E1EF"/>
			<stop  offset="0.337" style="stop-color:#70C7DB"/>
			<stop  offset="0.937" style="stop-color:#5085C5"/>
		</radialGradient>
		<circle class="st2" cx="262.9" cy="206.5" r="167.1"/>
		<radialGradient id="SVGID_3_" cx="228.0607" cy="91.6336" r="252.7922" gradientUnits="userSpaceOnUse">
			<stop  offset="3.703740e-03" style="stop-color:#70C7DB"/>
			<stop  offset="0.937" style="stop-color:#5085C5"/>
		</radialGradient>
		<path class="st3" d="M112.8,223.6c0-92.3,74.8-167.1,167.1-167.1c42.1,0,80.6,15.6,110,41.3c-30.6-35-75.6-57.2-125.8-57.2
			C171.8,40.6,97,115.4,97,207.7c0,50.2,22.1,95.2,57.2,125.8C128.4,304.1,112.8,265.7,112.8,223.6z"/>
		
			<radialGradient id="SVGID_4_" cx="275.3647" cy="141.6836" r="252.8022" gradientTransform="matrix(0.8904 -0.4551 0.4551 0.8904 -130.4928 118.4597)" gradientUnits="userSpaceOnUse">
			<stop  offset="3.703740e-03" style="stop-color:#70C7DB"/>
			<stop  offset="0.937" style="stop-color:#5085C5"/>
		</radialGradient>
		<path class="st4" d="M136.6,289.2c-42-82.2-9.4-182.9,72.7-224.9c37.5-19.2,78.8-22.8,116.7-13.2c-43.2-17.2-93.3-16.5-138,6.4
			c-82.2,42-114.8,142.7-72.7,224.9c22.8,44.7,63,74.7,108.1,86C187.2,353.8,155.8,326.7,136.6,289.2z"/>
		<radialGradient id="SVGID_5_" cx="362.5562" cy="208.7461" r="638.6034" gradientUnits="userSpaceOnUse">
			<stop  offset="3.703740e-03" style="stop-color:#70C7DB"/>
			<stop  offset="0.937" style="stop-color:#5085C5"/>
		</radialGradient>
		<path class="st5" d="M337.3,56.8c29.8,25.5,48.8,63.4,48.8,105.7c0,76.8-62.2,139-139,139c-76.8,0-139-62.2-139-139
			c0-8.1,0.7-16.1,2.1-23.9c-9.2,20.7-14.4,43.7-14.4,67.8c0,92.3,74.8,167.1,167.1,167.1S430,298.8,430,206.5
			C430,140.9,392.2,84.2,337.3,56.8z"/>
		
			<radialGradient id="SVGID_6_" cx="438.7197" cy="291.7673" r="638.5794" gradientTransform="matrix(0.7251 -0.6887 0.6887 0.7251 -183.496 228.8208)" gradientUnits="userSpaceOnUse">
			<stop  offset="3.703740e-03" style="stop-color:#70C7DB"/>
			<stop  offset="0.937" style="stop-color:#5085C5"/>
		</radialGradient>
		<path class="st6" d="M212.6,45.5c39.2-2.1,79,12.3,108.2,43c52.9,55.7,50.6,143.6-5.1,196.5c-55.7,52.9-143.6,50.6-196.5-5.1
			c-5.6-5.9-10.6-12.2-14.9-18.8c7.6,21.4,19.6,41.6,36.3,59.1c63.6,66.9,169.3,69.6,236.3,6.1c66.9-63.6,69.6-169.3,6.1-236.3
			C337.8,42.6,271.3,27.5,212.6,45.5z"/>
	</g>
	<g class="st7">
		<radialGradient id="SVGID_7_" cx="261" cy="201.9973" r="210.472" gradientUnits="userSpaceOnUse">
			<stop  offset="3.703740e-03" style="stop-color:#70C7DB"/>
			<stop  offset="0.937" style="stop-color:#5085C5"/>
		</radialGradient>
		<path class="st8" d="M519,76.9c-10.3-21.2-44.8-24.2-105.6-9c-13.6,3.4-28.2,7.7-43.4,12.6c3.8,2.8,7.3,5.9,10.5,9.3
			c4.6,3.9,8.9,8.3,13,12.8c7-2.1,13.8-4.1,20.4-5.8c61-16.1,77-9.1,79.5-7.5c-0.4,2.9-4.8,19.9-55.2,57.8
			c-40.6,30.5-96.9,63.8-158.6,93.7c-61.7,29.9-122.7,53.5-171.8,66.4c-61,16.1-77,9.1-79.5,7.5c0.4-2.9,4.8-19.9,55.2-57.8
			c5.5-4.1,11.4-8.3,17.5-12.6c-3.2-10-5-20.3-4.8-30.8c-12.6,8.5-24.4,16.9-35.1,25.1C11.8,276.9-7.3,305.8,3,327.1
			c6,12.4,20.2,18.5,43,18.5c16.4,0,37.2-3.2,62.5-9.5c52-13,117.1-37.8,183.5-70c66.4-32.2,126.3-67.9,168.7-100.7
			C510.2,127.1,529.3,98.2,519,76.9z"/>
	</g>
	<radialGradient id="SVGID_8_" cx="260.1799" cy="200.4911" r="198.7483" gradientUnits="userSpaceOnUse">
		<stop  offset="3.703740e-03" style="stop-color:#70C7DB"/>
		<stop  offset="0.937" style="stop-color:#5085C5"/>
	</radialGradient>
	<path class="st9" d="M296.7,246C495,151.3,524.2,90.5,503.3,75.5c-20-14.3-79.3,0.7-120.5,16.3c3.8,3.4,7.4,7,10.8,10.8
		c7-2.1,13.8-4.1,20.4-5.8c61-16.1,77-9.1,79.5-7.5c-0.4,2.9-4.8,19.9-55.2,57.8c-40.6,30.5-96.9,63.8-158.6,93.7
		c-61.7,29.9-122.7,53.5-171.8,66.4c-61,16.1-77,9.1-79.5,7.5c0.4-2.9,4.8-19.9,55.2-57.8c5.5-4.1,11.4-8.3,17.5-12.6
		c-2-6.3-3.4-12.8-4.2-19.3c-22.4,16-100.7,74.3-83,93.9C34.4,341.7,98.3,340.6,296.7,246z"/>
</g>
</svg>
