<?xml version="1.0" encoding="utf-8"?>
<!-- Generator: Adobe Illustrator 24.2.0, SVG Export Plug-In . SVG Version: 6.00 Build 0)  -->
<svg version="1.1" id="Capa_1" xmlns="http://www.w3.org/2000/svg" xmlns:xlink="http://www.w3.org/1999/xlink" x="0px" y="0px"
	 viewBox="0 0 127 127" style="enable-background:new 0 0 127 127;" xml:space="preserve">
<style type="text/css">
	.st0{opacity:0.8;}
	.st1{opacity:0.5;fill:url(#SVGID_1_);}
	.st2{fill:url(#SVGID_2_);}
	.st3{opacity:0.5;fill:#139AD7;}
	.st4{opacity:0.5;fill:url(#SVGID_3_);}
	.st5{opacity:0.5;fill:url(#SVGID_4_);}
	.st6{opacity:0.4;}
	.st7{fill:#AB4493;}
	.st8{fill:#E069A4;}
</style>
<g class="st0">
	<radialGradient id="SVGID_1_" cx="63.5" cy="62.8889" r="61.6489" gradientUnits="userSpaceOnUse">
		<stop  offset="6.296300e-02" style="stop-color:#E069A4"/>
		<stop  offset="0.3765" style="stop-color:#DF6BA6;stop-opacity:0.6654"/>
		<stop  offset="0.602" style="stop-color:#DD74AB;stop-opacity:0.4247"/>
		<stop  offset="0.8" style="stop-color:#D881B4;stop-opacity:0.2134"/>
		<stop  offset="0.9812" style="stop-color:#D192C0;stop-opacity:2.010250e-02"/>
		<stop  offset="1" style="stop-color:#D094C1;stop-opacity:0"/>
	</radialGradient>
	<circle class="st1" cx="63.5" cy="63.5" r="63.2"/>
	<radialGradient id="SVGID_2_" cx="48.5548" cy="26.611" r="97.6704" gradientUnits="userSpaceOnUse">
		<stop  offset="0.1444" style="stop-color:#139AD7"/>
		<stop  offset="0.937" style="stop-color:#E069A4"/>
	</radialGradient>
	<circle class="st2" cx="63.5" cy="63.5" r="51.9"/>
	<path class="st3" d="M15.7,72.9c0-28.7,23.2-51.9,51.9-51.9c19.6,0,36.6,10.8,45.4,26.9c-6.6-21-26.3-36.3-49.5-36.3
		c-28.7,0-51.9,23.2-51.9,51.9c0,9.1,2.3,17.6,6.4,25C16.5,83.6,15.7,78.4,15.7,72.9z"/>
	<radialGradient id="SVGID_3_" cx="47.0318" cy="36.4266" r="89.3791" gradientUnits="userSpaceOnUse">
		<stop  offset="0.1444" style="stop-color:#139AD7"/>
		<stop  offset="0.937" style="stop-color:#E069A4"/>
	</radialGradient>
	<path class="st4" d="M78.6,95.6c-28.7,0-51.9-23.2-51.9-51.9c0-7.3,1.5-14.3,4.3-20.6c-11.8,9.5-19.4,24.1-19.4,40.4
		c0,28.7,23.2,51.9,51.9,51.9c21.3,0,39.6-12.9,47.6-31.2C102.2,91.3,90.9,95.6,78.6,95.6z"/>
	<radialGradient id="SVGID_4_" cx="57.3302" cy="64.6423" r="65.0676" gradientUnits="userSpaceOnUse">
		<stop  offset="0.1444" style="stop-color:#139AD7"/>
		<stop  offset="0.937" style="stop-color:#E069A4"/>
	</radialGradient>
	<path class="st5" d="M96.6,23.5c2.3,5.5,3.5,11.5,3.5,17.8c0,26-21.1,47-47,47c-17.9,0-33.5-10-41.4-24.7
		c0.1,28.6,23.3,51.7,51.9,51.7c28.7,0,51.9-23.2,51.9-51.9C115.4,47.4,108.1,33.1,96.6,23.5z"/>
	<g class="st6">
		<path class="st7" d="M40.1,22.4c2.8,3.8,1.4,9.1,1.4,13.8c0.1,9.5,7.5,18.3,16.7,20.1c2.3,0.4,4.7,0.5,6.8-0.6
			c2.1-1,3.6-3.3,3.2-5.6c-0.4-2-2.1-3.5-3-5.4c-1.5-2.9-0.7-6.7,1.7-8.9c2-1.8,4.8-2.4,6.6-4.4c2.9-3.3,1.4-8.4-0.4-12.4
			c-0.9-2.2-1.9-4.6-2.2-6.9c-2.4-0.4-4.9-0.5-7.5-0.5c-10.1,0-19.5,2.9-27.5,7.9C37.6,20.1,39.1,21,40.1,22.4z"/>
		<path class="st8" d="M30.4,103.4c1.7-1.1,2.9-2.9,2.7-4.8c-0.3-3.7-5.2-5.8-5.5-9.5c-0.3-2.5,1.7-4.8,3.9-6
			c2.2-1.2,4.8-1.6,7.1-2.5c1.2-0.5,2.4-1.2,2.6-2.5c0.1-0.9-0.3-1.8-0.7-2.5c-2.2-4-5.1-8.6-9.7-8.9c-1.4-0.1-2.8,0.2-4.1-0.2
			c-3.1-0.8-4.5-4.6-4.2-7.9c0.3-3.2,1.7-6.3,1.8-9.5c0.1-3.6-1.5-7.3-4.6-9.1c-0.6-0.4-1.4-0.6-2.1-0.8c-3.8,7.2-6,15.4-6,24.2
			C11.6,79.6,18.9,93.9,30.4,103.4z"/>
		<path class="st8" d="M100.7,27.4c-2.8-0.3-5.6-0.6-7.1-2.8l0.3,0.4c1.1,4.5,0.2,9.3-2.2,13.2c-0.9,1.4-2,2.6-2.6,4.1
			s-0.9,3.3,0,4.7c1.1,1.8,3.7,2.2,5.8,2c2.2-0.2,4.3-0.9,6.4-0.3c3.9,1.1,6.5,6,10.5,5.2c1-0.2,1.8-0.8,2.4-1.5
			C112.1,42.7,107.3,34.1,100.7,27.4z"/>
		<path class="st7" d="M102.9,97.2c-0.3-0.7-0.7-1.4-1.2-2c-2.2-2.6-5.9-3.1-9.1-4.1c-3.2-1-6.7-3.3-6.6-6.7c0.1-2.6,2.1-6-0.2-7.4
			c-0.6-0.4-1.4-0.4-2.2-0.4c-4.6,0.1-10.4,0.3-12.6-3.8c-1.3-2.6-0.5-5.8-1.6-8.5c-2-4.9-9.6-5-13.3-1.3c-3.8,3.7-4.7,9.3-5,14.6
			C50.7,84,51,90.9,54.8,96.2c0.9,1.2,2,2.6,1.8,4.1c-0.5,3.3-5.6,2.5-8.3,4.4c-2.6,1.8-2.3,6-0.2,8.4c4.9,1.5,10.1,2.4,15.5,2.4
			C79.3,115.4,93.4,108.3,102.9,97.2z"/>
	</g>
	<path class="st3" d="M81.3,27.6c4-1.7,8.7-1.3,12.8-2.7c0.9-0.3,1.7-0.8,2.4-1.3c-9-7.5-20.5-11.9-33.1-11.9
		c-25.8,0-47.3,18.9-51.2,43.6l0.6,4.7c-1,5-1,10.3,0.8,15.1c1.9,4.7,6,8.8,11,9.7c2.2,0.4,4.7,0.1,6.4-1.3c2.6-2.1,2.8-5.9,3.2-9.3
		c0.4-3.3,1.9-7.2,5.2-7.8c3.4-0.5,6.2,3,6.7,6.4c0.5,3.4-0.4,6.8-0.1,10.3c0.5,6.7,6.3,12.7,13.1,13.1s13.3-5.3,13.6-12
		c0.2-3.3-1-6.5-2.4-9.5c-2.1-4.4-4.6-8.6-7.5-12.5c-1.8-2.3-3.7-4.6-4.4-7.5c-1.3-5.8,4.7-12,10.5-10.8c3.5,0.7,6.3,3.4,9.7,4.4
		c3.4,1,8.3-1.7,7-5c-1.2-3.2-6-2.8-8.4-5.1C74.3,35,77.3,29.3,81.3,27.6z"/>
	<ellipse transform="matrix(0.7071 -0.7071 0.7071 0.7071 -28.8247 48.4796)" class="st3" cx="44.1" cy="59" rx="21.3" ry="21.3"/>
	<circle class="st3" cx="72.2" cy="32.2" r="9.6"/>
	<circle class="st3" cx="80.6" cy="57.4" r="4.3"/>
</g>
</svg>
