<?xml version="1.0" encoding="utf-8"?>
<!-- Generator: Adobe Illustrator 24.2.0, SVG Export Plug-In . SVG Version: 6.00 Build 0)  -->
<svg version="1.1" id="Capa_1" xmlns="http://www.w3.org/2000/svg" xmlns:xlink="http://www.w3.org/1999/xlink" x="0px" y="0px"
	 viewBox="0 0 200 124" style="enable-background:new 0 0 200 124;" xml:space="preserve">
<style type="text/css">
	.st0{fill:url(#SVGID_1_);}
	.st1{fill:url(#SVGID_2_);}
	.st2{fill:url(#SVGID_3_);}
	.st3{fill:url(#SVGID_4_);}
	.st4{fill:url(#SVGID_5_);}
	.st5{opacity:0.25;fill:url(#SVGID_6_);}
	.st6{opacity:0.25;fill:url(#SVGID_7_);}
	.st7{opacity:0.5;}
	.st8{fill:url(#SVGID_8_);}
	.st9{fill:url(#SVGID_9_);}
	.st10{fill:url(#SVGID_10_);}
	.st11{fill:url(#SVGID_11_);}
	.st12{fill:url(#SVGID_12_);}
	.st13{fill:url(#SVGID_13_);}
	.st14{fill:url(#SVGID_14_);}
	.st15{opacity:0.5;fill:url(#SVGID_15_);}
	.st16{fill:url(#SVGID_16_);}
	.st17{fill:url(#SVGID_17_);}
	.st18{fill:#29173C;}
	.st19{fill:url(#SVGID_18_);}
	.st20{opacity:0.25;fill:url(#SVGID_19_);}
</style>
<g>
	
		<radialGradient id="SVGID_1_" cx="422.326" cy="1630.5861" r="176.4132" gradientTransform="matrix(-0.5921 0.2786 -0.4133 -0.8785 1032.4978 1377.298)" gradientUnits="userSpaceOnUse">
		<stop  offset="8.148150e-02" style="stop-color:#FFE22E"/>
		<stop  offset="0.5259" style="stop-color:#E7247E;stop-opacity:0.4741"/>
		<stop  offset="1" style="stop-color:#F08321;stop-opacity:0"/>
	</radialGradient>
	<path class="st0" d="M11.4,81.5l65.8-44.3c9.8-6.6,25.3,4.1,34.5,23.7l0,0c9.2,19.6,7.4,38.2-4,41.2l-77,20.6
		c-11.4,3.1-24.5-2.3-29-11.9l0,0C-2.7,101.3,1.6,88.1,11.4,81.5z"/>
	
		<radialGradient id="SVGID_2_" cx="422.326" cy="1630.5861" r="176.4132" gradientTransform="matrix(-0.5921 0.2786 -0.4133 -0.8785 1032.4978 1377.298)" gradientUnits="userSpaceOnUse">
		<stop  offset="8.148150e-02" style="stop-color:#FFE22E"/>
		<stop  offset="0.5259" style="stop-color:#E7247E;stop-opacity:0.4741"/>
		<stop  offset="1" style="stop-color:#F08321;stop-opacity:0"/>
	</radialGradient>
	<path class="st1" d="M11.4,81.5l65.8-44.3c9.8-6.6,25.3,4.1,34.5,23.7l0,0c9.2,19.6,7.4,38.2-4,41.2l-77,20.6
		c-11.4,3.1-24.5-2.3-29-11.9l0,0C-2.7,101.3,1.6,88.1,11.4,81.5z"/>
	
		<radialGradient id="SVGID_3_" cx="421.5704" cy="2391.8918" r="176.4138" gradientTransform="matrix(-0.5921 0.2786 -0.2652 -0.5637 992.4516 1293.1136)" gradientUnits="userSpaceOnUse">
		<stop  offset="8.148150e-02" style="stop-color:#FFE22E"/>
		<stop  offset="0.5259" style="stop-color:#E7247E;stop-opacity:0.4741"/>
		<stop  offset="1" style="stop-color:#F08321;stop-opacity:0"/>
	</radialGradient>
	<path class="st2" d="M15,89.2l67.7-40.4c10-6,23.1-0.6,29,12l0,0c5.9,12.6,1.7,25.9-9.4,29.7l-74.8,25.2
		c-11.1,3.7-22.6,1.8-25.5-4.4l0,0C-0.9,105.2,5,95.2,15,89.2z"/>
	
		<radialGradient id="SVGID_4_" cx="421.86" cy="5387.8159" r="176.4121" gradientTransform="matrix(-0.5921 0.2786 -0.11 -0.2337 950.6826 1204.0016)" gradientUnits="userSpaceOnUse">
		<stop  offset="8.148150e-02" style="stop-color:#FFE22E"/>
		<stop  offset="0.5259" style="stop-color:#E7247E;stop-opacity:0.4741"/>
		<stop  offset="1" style="stop-color:#F08321;stop-opacity:0"/>
	</radialGradient>
	<path class="st3" d="M18.8,97.3l69.6-36.3c10.3-5.4,20.8-5.5,23.3-0.3l0,0c2.5,5.2-4.4,13.1-15.1,17.6l-72.5,30
		c-10.8,4.5-20.6,6-21.8,3.5l0,0C1,109.2,8.5,102.7,18.8,97.3z"/>
	
		<radialGradient id="SVGID_5_" cx="-998.9142" cy="454.4519" r="103.1266" gradientTransform="matrix(0.4258 0.9048 -0.9048 0.4258 978.7059 753.1877)" gradientUnits="userSpaceOnUse">
		<stop  offset="7.407410e-03" style="stop-color:#D1095B"/>
		<stop  offset="1" style="stop-color:#692980"/>
	</radialGradient>
	<path class="st4" d="M100.6,25.4c-1-7.6-21.9-18.6-21.9-18.6c32-15.9,55.2,2.9,55.6,3.6C137.1,16.5,101.6,32.9,100.6,25.4z
		 M130.6,89.1c5.2,5.6,0.4,28.8,0.4,28.8c32.7-14.5,33-44.4,32.6-45.1C160.7,66.6,125.4,83.5,130.6,89.1z"/>
	<g>
		
			<radialGradient id="SVGID_6_" cx="-1043.3462" cy="454.5319" r="61.4223" gradientTransform="matrix(0.4258 0.9048 -0.9048 0.4258 978.8936 753.3414)" gradientUnits="userSpaceOnUse">
			<stop  offset="3.703740e-03" style="stop-color:#70C7DB"/>
			<stop  offset="0.937" style="stop-color:#5085C5"/>
		</radialGradient>
		<path class="st5" d="M128.3,13.5c1.1,2.3-3.3,6.1-9.2,9.5c8.6-3.9,16.6-9.5,15.2-12.5c-0.3-0.7-23.5-19.6-55.6-3.6
			c0,0,0.2,0.1,0.5,0.3C107.8-3.6,128,12.8,128.3,13.5z"/>
		
			<radialGradient id="SVGID_7_" cx="-952.3992" cy="454.4847" r="61.0274" gradientTransform="matrix(0.4258 0.9048 -0.9048 0.4258 978.8936 753.3414)" gradientUnits="userSpaceOnUse">
			<stop  offset="3.703740e-03" style="stop-color:#70C7DB"/>
			<stop  offset="0.937" style="stop-color:#5085C5"/>
		</radialGradient>
		<path class="st6" d="M157.6,75.8c0.3,0.7,0.1,26.6-26.4,41.9c32.4-14.6,32.6-44.2,32.3-45c-1.7-3.6-14.4,0.7-23.7,6
			C147.9,75.1,156.3,72.9,157.6,75.8z"/>
	</g>
	<g class="st7">
		
			<radialGradient id="SVGID_8_" cx="-1043.3467" cy="464.5409" r="48.9861" gradientTransform="matrix(0.4258 0.9048 -0.9048 0.4258 978.8936 753.3414)" gradientUnits="userSpaceOnUse">
			<stop  offset="7.407410e-03" style="stop-color:#D1095B"/>
			<stop  offset="1" style="stop-color:#692980"/>
		</radialGradient>
		<path class="st8" d="M107.8,21.7C106.9,15,90.2,5.5,86.6,3.5c-2.6,0.9-5.2,2-7.9,3.3c0,0,20.9,11,21.9,18.6
			c0.6,4.8,15.3-0.1,25.1-5.9C117.2,23.3,108.3,25.4,107.8,21.7z"/>
		
			<radialGradient id="SVGID_9_" cx="-952.3958" cy="469.1069" r="43.5487" gradientTransform="matrix(0.4258 0.9048 -0.9048 0.4258 978.8936 753.3414)" gradientUnits="userSpaceOnUse">
			<stop  offset="7.407410e-03" style="stop-color:#D1095B"/>
			<stop  offset="1" style="stop-color:#692980"/>
		</radialGradient>
		<path class="st9" d="M138.1,114.1c0.2-1.1,4.7-23.3-0.4-28.7c-2.1-2.2,2.3-6.2,8.5-9.9c-9.4,4.2-18.5,10.6-15.6,13.6
			c5.2,5.6,0.4,28.8,0.4,28.8C133.5,116.7,135.9,115.4,138.1,114.1z"/>
	</g>
	
		<radialGradient id="SVGID_10_" cx="-991.0024" cy="425.3769" r="116.8382" gradientTransform="matrix(0.4258 0.9048 -0.9048 0.4258 978.8936 753.3414)" gradientUnits="userSpaceOnUse">
		<stop  offset="8.148150e-02" style="stop-color:#FFE22E"/>
		<stop  offset="0.9963" style="stop-color:#F08321"/>
	</radialGradient>
	<path class="st10" d="M95.5,23.5c0,0,90.9-36,103.2-4.1c12.3,31.9-70.2,74.2-70.2,74.2S91.1,71.4,95.5,23.5z"/>
	
		<radialGradient id="SVGID_11_" cx="-1243.1735" cy="479.8709" r="63.4679" gradientTransform="matrix(0.3591 0.7633 -0.9048 0.4258 999.8932 798.9281)" gradientUnits="userSpaceOnUse">
		<stop  offset="0" style="stop-color:#C9E1EF"/>
		<stop  offset="0.337" style="stop-color:#70C7DB"/>
		<stop  offset="0.9444" style="stop-color:#743B8F"/>
	</radialGradient>
	<path class="st11" d="M132.6,83.6c-28.7-17.9-27.9-48.2-26.9-57.1c-8.8,3.1-14.5,5.4-14.5,5.4C84,73.9,119,91,119,91
		S124.6,88.2,132.6,83.6z"/>
	
		<radialGradient id="SVGID_12_" cx="-997.4033" cy="393.0293" r="44.8893" gradientTransform="matrix(0.4258 0.9048 -0.9048 0.4258 978.8936 753.3414)" gradientUnits="userSpaceOnUse">
		<stop  offset="7.407410e-03" style="stop-color:#D1095B"/>
		<stop  offset="1" style="stop-color:#692980"/>
	</radialGradient>
	<path class="st12" d="M176,28.9c3.7,7.8,9.5,13.7,15.9,17c6.7-8.9,10.1-18.1,6.9-26.6c-3.5-9.1-13.4-12.7-25.8-13.2
		C171.5,13.2,172.3,21.3,176,28.9z"/>
	
		<radialGradient id="SVGID_13_" cx="-997.4033" cy="404.1101" r="35.1868" gradientTransform="matrix(0.4258 0.9048 -0.9048 0.4258 978.8936 753.3414)" gradientUnits="userSpaceOnUse">
		<stop  offset="7.407410e-03" style="stop-color:#D1095B"/>
		<stop  offset="1" style="stop-color:#692980"/>
	</radialGradient>
	<path class="st13" d="M196.1,39.4c-5.8-3.4-10.9-8.9-14.3-16.1c-2.6-5.6-3.8-11.3-3.7-16.7c-1.7-0.2-3.4-0.3-5.2-0.4
		c-1.5,7-0.6,15,3,22.7c3.7,7.8,9.5,13.7,15.9,17C193.5,43.8,194.9,41.6,196.1,39.4z"/>
	
		<radialGradient id="SVGID_14_" cx="-998.2146" cy="472.7209" r="63.4646" gradientTransform="matrix(0.4258 0.9048 -0.9048 0.4258 978.8936 753.3414)" gradientUnits="userSpaceOnUse">
		<stop  offset="7.407410e-03" style="stop-color:#D1095B"/>
		<stop  offset="1" style="stop-color:#692980"/>
	</radialGradient>
	<path class="st14" d="M142,86c-31-22.7-32.3-57.6-31.9-67.7c-8.8,2.9-14.6,5.2-14.6,5.2c-4.4,47.9,33,70.1,33,70.1S134,90.7,142,86
		z"/>
	
		<radialGradient id="SVGID_15_" cx="-997.1526" cy="436.8638" r="51.4193" gradientTransform="matrix(0.4258 0.9048 -0.9048 0.4258 978.8936 753.3414)" gradientUnits="userSpaceOnUse">
		<stop  offset="7.407410e-03" style="stop-color:#D1095B"/>
		<stop  offset="1" style="stop-color:#692980"/>
	</radialGradient>
	<circle class="st15" cx="146.8" cy="43.4" r="18.8"/>
	
		<radialGradient id="SVGID_16_" cx="-997.5712" cy="435.2732" r="51.4193" gradientTransform="matrix(0.4258 0.9048 -0.9048 0.4258 978.8936 753.3414)" gradientUnits="userSpaceOnUse">
		<stop  offset="0" style="stop-color:#C9E1EF"/>
		<stop  offset="0.337" style="stop-color:#70C7DB"/>
		<stop  offset="0.9444" style="stop-color:#743B8F"/>
	</radialGradient>
	<circle class="st16" cx="148.1" cy="42.4" r="18.8"/>
	
		<radialGradient id="SVGID_17_" cx="-997.4793" cy="437.6824" r="42.386" gradientTransform="matrix(0.4258 0.9048 -0.9048 0.4258 978.8936 753.3414)" gradientUnits="userSpaceOnUse">
		<stop  offset="0" style="stop-color:#C9E1EF"/>
		<stop  offset="0.337" style="stop-color:#70C7DB"/>
		<stop  offset="0.9444" style="stop-color:#743B8F"/>
	</radialGradient>
	<path class="st17" d="M154.7,56.4c-7.7,3.6-17,0.3-20.6-7.4c-3.6-7.7-0.3-17,7.4-20.6c7.7-3.6,17-0.3,20.6,7.4
		C165.8,43.5,162.4,52.7,154.7,56.4z"/>
	<ellipse transform="matrix(0.6264 -0.7795 0.7795 0.6264 22.3157 131.2757)" class="st18" cx="148.1" cy="42.4" rx="14" ry="14"/>
	<path class="st18" d="M144,30.7c-1,3.2-0.8,6.8,0.7,10.1c2.7,5.7,8.6,8.7,14.5,7.9c1-3.2,0.8-6.8-0.7-10.1
		C155.9,32.9,149.9,29.9,144,30.7z"/>
	<path class="st18" d="M159,51c-6.9,2.9-14.8-0.1-18-6.9c-2.3-4.9-1.5-10.6,1.7-14.6c-0.2,0.1-0.4,0.1-0.6,0.2
		c-7,3.3-10,11.6-6.7,18.6c3.3,7,11.6,10,18.6,6.7C156.1,54,157.8,52.6,159,51z"/>
	
		<radialGradient id="SVGID_18_" cx="-999.2421" cy="421.6055" r="118.7456" gradientTransform="matrix(0.4258 0.9048 -0.9048 0.4258 978.8936 753.3414)" gradientUnits="userSpaceOnUse">
		<stop  offset="8.148150e-02" style="stop-color:#FFE22E"/>
		<stop  offset="0.9963" style="stop-color:#F08321"/>
	</radialGradient>
	<path class="st19" d="M95.4,23.1c-4.4,47.9,33,70.1,33,70.1s41.1-21,60.9-44.6c-42.5,31.8-76.2,17.1-76.7-11.3
		C112.2,13.2,156,7.6,174.7,6C143.7,4,95.4,23.1,95.4,23.1z"/>
	
		<radialGradient id="SVGID_19_" cx="-1018.5306" cy="409.9461" r="118.4253" gradientTransform="matrix(0.4258 0.9048 -0.9048 0.4258 978.8936 753.3414)" gradientUnits="userSpaceOnUse">
		<stop  offset="3.703740e-03" style="stop-color:#70C7DB"/>
		<stop  offset="0.937" style="stop-color:#5085C5"/>
	</radialGradient>
	<path class="st20" d="M191.9,12.3c1.8-0.2-14.8-5.3-42.9,0.5c-28.1,5.8-50.9,15.8-50.9,15.8s-3.6,10.6,2.7,24
		C100.8,52.6,122.8,21.8,191.9,12.3z"/>
	<g>
		<path class="st18" d="M162,43.9l-27.8-1.1c0.1,1.9,0.5,3.7,1.3,5.5c0,0.1,0.1,0.2,0.1,0.3l25,0C161.3,47.1,161.8,45.5,162,43.9z"
			/>
		<path class="st18" d="M160.7,36.4c-0.4-0.9-0.9-1.7-1.4-2.4l-21.7-0.9c-1.4,1.6-2.4,3.5-3,5.6l26.9,0
			C161.4,38,161.1,37.2,160.7,36.4z"/>
	</g>
</g>
</svg>
