<?xml version="1.0" encoding="utf-8"?>
<!-- Generator: Adobe Illustrator 24.2.0, SVG Export Plug-In . SVG Version: 6.00 Build 0)  -->
<svg version="1.1" id="Capa_1" xmlns="http://www.w3.org/2000/svg" xmlns:xlink="http://www.w3.org/1999/xlink" x="0px" y="0px"
	 viewBox="0 0 150 72" style="enable-background:new 0 0 150 72;" xml:space="preserve">
<style type="text/css">
	.st0{fill:url(#SVGID_1_);}
	.st1{fill:url(#SVGID_2_);}
	.st2{fill:url(#SVGID_3_);}
	.st3{fill:url(#SVGID_4_);}
	.st4{fill:url(#SVGID_5_);}
	.st5{opacity:0.5;fill:url(#SVGID_6_);}
	.st6{fill:url(#SVGID_7_);}
	.st7{opacity:0.25;fill:url(#SVGID_8_);}
	.st8{opacity:0.25;fill:url(#SVGID_9_);}
	.st9{fill:url(#SVGID_10_);}
	.st10{fill:url(#SVGID_11_);}
	.st11{fill:url(#SVGID_12_);}
	.st12{fill:url(#SVGID_13_);}
	.st13{fill:url(#SVGID_14_);}
	.st14{fill:url(#SVGID_15_);}
	.st15{fill:url(#SVGID_16_);}
	.st16{fill:url(#SVGID_17_);}
	.st17{fill:url(#SVGID_18_);}
	.st18{fill:url(#SVGID_19_);}
	.st19{fill:url(#SVGID_20_);}
	.st20{fill:url(#SVGID_21_);}
	.st21{fill:url(#SVGID_22_);}
	.st22{fill:url(#SVGID_23_);}
	.st23{fill:url(#SVGID_24_);}
	.st24{fill:url(#SVGID_25_);}
	.st25{opacity:0.5;}
	.st26{fill:url(#SVGID_26_);}
	.st27{fill:url(#SVGID_27_);}
	.st28{fill:url(#SVGID_28_);}
	.st29{fill:url(#SVGID_29_);}
	.st30{fill:url(#SVGID_30_);}
	.st31{fill:url(#SVGID_31_);}
	.st32{fill:url(#SVGID_32_);}
	.st33{fill:url(#SVGID_33_);}
	.st34{fill:url(#SVGID_34_);}
	.st35{fill:url(#SVGID_35_);}
	.st36{fill:url(#SVGID_36_);}
	.st37{fill:url(#SVGID_37_);}
	.st38{fill:url(#SVGID_38_);}
	.st39{fill:url(#SVGID_39_);}
	.st40{fill:url(#SVGID_40_);}
	.st41{opacity:0.5;fill:url(#SVGID_41_);}
	.st42{opacity:0.5;fill:url(#SVGID_42_);}
	.st43{opacity:0.5;fill:url(#SVGID_43_);}
	.st44{opacity:0.5;fill:url(#SVGID_44_);}
	.st45{opacity:0.5;fill:url(#SVGID_45_);}
	.st46{opacity:0.5;fill:url(#SVGID_46_);}
	.st47{opacity:0.5;fill:url(#SVGID_47_);}
	.st48{opacity:0.5;fill:url(#SVGID_48_);}
	.st49{opacity:0.5;fill:url(#SVGID_49_);}
	.st50{opacity:0.5;fill:url(#SVGID_50_);}
	.st51{opacity:0.5;fill:url(#SVGID_51_);}
	.st52{opacity:0.5;fill:url(#SVGID_52_);}
	.st53{opacity:0.5;fill:url(#SVGID_53_);}
	.st54{opacity:0.5;fill:url(#SVGID_54_);}
	.st55{opacity:0.5;fill:url(#SVGID_55_);}
	.st56{opacity:0.5;fill:url(#SVGID_56_);}
	.st57{opacity:0.5;fill:url(#SVGID_57_);}
	.st58{opacity:0.5;fill:url(#SVGID_58_);}
	.st59{opacity:0.5;fill:url(#SVGID_59_);}
	.st60{opacity:0.5;fill:url(#SVGID_60_);}
	.st61{opacity:0.5;fill:url(#SVGID_61_);}
	.st62{opacity:0.5;fill:url(#SVGID_62_);}
	.st63{opacity:0.5;fill:url(#SVGID_63_);}
	.st64{opacity:0.5;fill:url(#SVGID_64_);}
	.st65{opacity:0.5;fill:url(#SVGID_65_);}
	.st66{opacity:0.5;fill:url(#SVGID_66_);}
	.st67{opacity:0.5;fill:url(#SVGID_67_);}
</style>
<g>
	
		<radialGradient id="SVGID_1_" cx="11.122" cy="325.1919" r="120.9686" gradientTransform="matrix(1.1665 0.3511 -0.2798 0.9296 84.088 -286.97)" gradientUnits="userSpaceOnUse">
		<stop  offset="8.148150e-02" style="stop-color:#645DA6"/>
		<stop  offset="0.5259" style="stop-color:#E8C352;stop-opacity:0.4741"/>
		<stop  offset="1" style="stop-color:#09B0E5;stop-opacity:0"/>
	</radialGradient>
	<path class="st0" d="M118.7,70.4L20.5,49.5C5.9,46.4-2.5,32.2,1.8,18l0,0C6.1,3.7,20.9-3.3,34.7,2.4l93,38.1
		c13.8,5.7,23.4,16,21.3,22.9l0,0C146.9,70.4,133.3,73.6,118.7,70.4z"/>
	
		<radialGradient id="SVGID_2_" cx="11.0653" cy="328.9854" r="121.2329" gradientTransform="matrix(1.1665 0.3511 -0.1243 0.413 34.0671 -120.5518)" gradientUnits="userSpaceOnUse">
		<stop  offset="8.148150e-02" style="stop-color:#645DA6"/>
		<stop  offset="0.5259" style="stop-color:#E8C352;stop-opacity:0.4741"/>
		<stop  offset="1" style="stop-color:#09B0E5;stop-opacity:0"/>
	</radialGradient>
	<path class="st1" d="M135.9,65.4L9.9,32.5C3.5,30.8-0.1,24.3,1.8,18l0,0c1.9-6.3,8.6-9.7,14.8-7.5l123,42.9
		c6.2,2.2,10.6,6.5,9.7,9.6l0,0C148.3,66,142.3,67.1,135.9,65.4z"/>
	
		<radialGradient id="SVGID_3_" cx="-34.655" cy="317.9963" r="142.9714" gradientTransform="matrix(0.9576 0.2882 -0.2882 0.9576 133.2121 -281.6313)" gradientUnits="userSpaceOnUse">
		<stop  offset="8.148150e-02" style="stop-color:#645DA6"/>
		<stop  offset="0.5259" style="stop-color:#E8C352;stop-opacity:0.4741"/>
		<stop  offset="1" style="stop-color:#09B0E5;stop-opacity:0"/>
	</radialGradient>
	<path class="st2" d="M18.8,4.1c-1.9-0.7-3.9-0.8-5.8-0.5c-3.9,2.3-7.2,5.7-9.5,10c-0.7,5.7,2.8,11.1,8.6,12.6l126,32.9
		c4.3,1.1,8.3,1,10.9-0.2c-1.3-4.5-5.8-9.6-12.3-13.7L18.8,4.1z"/>
	
		<radialGradient id="SVGID_4_" cx="-34.971" cy="330.6315" r="143.6436" gradientTransform="matrix(0.9576 0.2882 -0.2882 0.9576 133.2121 -281.6313)" gradientUnits="userSpaceOnUse">
		<stop  offset="8.148150e-02" style="stop-color:#645DA6"/>
		<stop  offset="0.5259" style="stop-color:#E8C352;stop-opacity:0.4741"/>
		<stop  offset="1" style="stop-color:#09B0E5;stop-opacity:0"/>
	</radialGradient>
	<path class="st3" d="M137.4,58.8L14.4,16c-5-1.7-10.3,0.1-13.1,4.1c-1.1,5.3-0.5,10.6,1.5,15.2c1.4,1.3,3.1,2.2,5,2.8l126,32.9
		c0.5,0.1,1,0.2,1.5,0.3c5.2-0.7,9.4-2.3,11.8-4.7C146.3,63.8,142.5,60.6,137.4,58.8z"/>
	<g>
		
			<radialGradient id="SVGID_5_" cx="-19.1016" cy="310.2957" r="34.1872" gradientTransform="matrix(0.9576 0.2882 -0.2882 0.9576 133.2121 -281.6313)" gradientUnits="userSpaceOnUse">
			<stop  offset="8.148150e-02" style="stop-color:#645DA6"/>
			<stop  offset="0.9963" style="stop-color:#09B0E5"/>
		</radialGradient>
		<circle class="st4" cx="27.1" cy="24.7" r="21.7"/>
		
			<radialGradient id="SVGID_6_" cx="-19.7807" cy="308.691" r="38.2242" gradientTransform="matrix(0.9576 0.2882 -0.2882 0.9576 133.2121 -281.6313)" gradientUnits="userSpaceOnUse">
			<stop  offset="8.148150e-02" style="stop-color:#645DA6"/>
			<stop  offset="0.9963" style="stop-color:#09B0E5"/>
		</radialGradient>
		<circle class="st5" cx="27.1" cy="24.7" r="24.3"/>
		
			<radialGradient id="SVGID_7_" cx="-19.6234" cy="308.1385" r="28.3923" gradientTransform="matrix(0.9576 0.2882 -0.2882 0.9576 133.2121 -281.6313)" gradientUnits="userSpaceOnUse">
			<stop  offset="8.148150e-02" style="stop-color:#645DA6"/>
			<stop  offset="0.9963" style="stop-color:#09B0E5"/>
		</radialGradient>
		<path class="st6" d="M6.6,21.1c3.5-11.5,15.6-18,27.1-14.6c8,2.4,13.5,8.9,15.1,16.5c-0.6-8.7-6.5-16.6-15.4-19.3
			C21.9,0.4,9.7,6.9,6.3,18.4C5.2,22,5.1,25.6,5.8,28.9C5.6,26.4,5.9,23.7,6.6,21.1z"/>
		
			<radialGradient id="SVGID_8_" cx="-20.4677" cy="311.9767" r="32.0784" gradientTransform="matrix(0.9576 0.2882 -0.2882 0.9576 133.2121 -281.6313)" gradientUnits="userSpaceOnUse">
			<stop  offset="8.148150e-02" style="stop-color:#645DA6"/>
			<stop  offset="0.9963" style="stop-color:#09B0E5"/>
		</radialGradient>
		<path class="st7" d="M31.4,40.8c-11.5-3.5-18-15.6-14.6-27.1c1.3-4.3,3.8-7.9,7.1-10.6C15.8,4.4,8.8,10.1,6.3,18.4
			C2.8,29.9,9.3,42,20.8,45.5c7.2,2.2,14.6,0.4,20-4C37.8,42,34.5,41.8,31.4,40.8z"/>
		
			<radialGradient id="SVGID_9_" cx="-1.8035" cy="361.002" r="29.6931" gradientTransform="matrix(0.9576 0.2882 -0.2882 0.9576 133.2121 -281.6313)" gradientUnits="userSpaceOnUse">
			<stop  offset="8.148150e-02" style="stop-color:#645DA6"/>
			<stop  offset="0.9963" style="stop-color:#09B0E5"/>
		</radialGradient>
		<path class="st8" d="M46.2,14.3c0,2-0.3,4-0.9,6c-3.3,11-14.9,17.3-26,13.9c-6.7-2-11.6-7.1-13.7-13.2
			c-1.8,10.7,4.6,21.2,15.2,24.4c11.5,3.5,23.6-3.1,27.1-14.6C49.6,25.1,48.9,19.2,46.2,14.3z"/>
		<g>
			
				<radialGradient id="SVGID_10_" cx="-11.7123" cy="400.3099" r="10.4268" gradientTransform="matrix(0.8019 0.5974 -0.5974 0.8019 266.903 -304.417)" gradientUnits="userSpaceOnUse">
				<stop  offset="8.148150e-02" style="stop-color:#645DA6"/>
				<stop  offset="0.9963" style="stop-color:#09B0E5"/>
			</radialGradient>
			<path class="st9" d="M15.9,15.4c-1.5,2.1-3.8,3-5,2.1c-1.2-0.9-1-3.3,0.6-5.4s3.8-3,5-2.1S17.5,13.4,15.9,15.4z"/>
			
				<radialGradient id="SVGID_11_" cx="-11.3631" cy="400.4472" r="10.0861" gradientTransform="matrix(0.8019 0.5974 -0.5974 0.8019 266.903 -304.417)" gradientUnits="userSpaceOnUse">
				<stop  offset="8.148150e-02" style="stop-color:#645DA6"/>
				<stop  offset="0.9963" style="stop-color:#09B0E5"/>
			</radialGradient>
			<path class="st10" d="M16.9,10.5c-1.3-0.3-3,0.6-4.3,2.4c-1.3,1.8-1.7,3.9-1,5c1.3,0.3,3-0.6,4.3-2.4
				C17.3,13.6,17.6,11.6,16.9,10.5z"/>
		</g>
		<g>
			
				<radialGradient id="SVGID_12_" cx="63.0277" cy="402.4947" r="3.7464" gradientTransform="matrix(1.0897 0.8118 -0.5974 0.8019 196.8998 -356.6652)" gradientUnits="userSpaceOnUse">
				<stop  offset="8.148150e-02" style="stop-color:#645DA6"/>
				<stop  offset="0.9963" style="stop-color:#09B0E5"/>
			</radialGradient>
			<path class="st11" d="M24.4,19.5c-0.6,0.7-1.5,1-2.1,0.5c-0.6-0.4-0.6-1.4-0.1-2.1c0.6-0.7,1.5-1,2.1-0.5
				C24.9,17.8,25,18.7,24.4,19.5z"/>
			
				<radialGradient id="SVGID_13_" cx="63.0277" cy="402.4947" r="3.7464" gradientTransform="matrix(1.0897 0.8118 -0.5974 0.8019 196.8998 -356.6652)" gradientUnits="userSpaceOnUse">
				<stop  offset="8.148150e-02" style="stop-color:#645DA6"/>
				<stop  offset="0.9963" style="stop-color:#09B0E5"/>
			</radialGradient>
			<path class="st12" d="M24.4,19.5c-0.6,0.7-1.5,1-2.1,0.5c-0.6-0.4-0.6-1.4-0.1-2.1c0.6-0.7,1.5-1,2.1-0.5
				C24.9,17.8,25,18.7,24.4,19.5z"/>
			
				<radialGradient id="SVGID_14_" cx="63.1532" cy="402.544" r="3.624" gradientTransform="matrix(1.0897 0.8118 -0.5974 0.8019 196.8998 -356.6652)" gradientUnits="userSpaceOnUse">
				<stop  offset="8.148150e-02" style="stop-color:#645DA6"/>
				<stop  offset="0.9963" style="stop-color:#09B0E5"/>
			</radialGradient>
			<path class="st13" d="M24.5,17.5c-0.6-0.2-1.3,0.1-1.8,0.7c-0.5,0.7-0.5,1.5-0.1,2c0.6,0.2,1.3-0.1,1.8-0.7
				C24.9,18.8,24.9,18,24.5,17.5z"/>
		</g>
		<g>
			
				<radialGradient id="SVGID_15_" cx="433.0452" cy="317.6987" r="6.6773" gradientTransform="matrix(-1.3148 -0.3433 0.2526 -0.9676 519.7066 487.9874)" gradientUnits="userSpaceOnUse">
				<stop  offset="8.148150e-02" style="stop-color:#645DA6"/>
				<stop  offset="0.9963" style="stop-color:#09B0E5"/>
			</radialGradient>
			<path class="st14" d="M30.3,27.8c0.4-1.6,1.8-2.6,3.1-2.3c1.3,0.3,2,1.9,1.6,3.5c-0.4,1.6-1.8,2.6-3.1,2.3
				C30.6,30.9,29.9,29.4,30.3,27.8z"/>
			
				<radialGradient id="SVGID_16_" cx="433.2688" cy="317.7866" r="6.4592" gradientTransform="matrix(-1.3148 -0.3433 0.2526 -0.9676 519.7066 487.9874)" gradientUnits="userSpaceOnUse">
				<stop  offset="8.148150e-02" style="stop-color:#645DA6"/>
				<stop  offset="0.9963" style="stop-color:#09B0E5"/>
			</radialGradient>
			<path class="st15" d="M31.4,31.1c1.1-0.1,2.1-1,2.4-2.3c0.4-1.4-0.1-2.8-1.1-3.3c-1.1,0.1-2.1,1-2.4,2.3
				C29.9,29.2,30.4,30.5,31.4,31.1z"/>
		</g>
		<g>
			
				<radialGradient id="SVGID_17_" cx="59.0975" cy="264.0271" r="7.2728" gradientTransform="matrix(1.356 8.750000e-02 -6.440000e-02 0.9979 -41.8263 -244.0609)" gradientUnits="userSpaceOnUse">
				<stop  offset="8.148150e-02" style="stop-color:#645DA6"/>
				<stop  offset="0.9963" style="stop-color:#09B0E5"/>
			</radialGradient>
			<path class="st16" d="M22.5,29c-0.1,1.8-1.4,3.2-2.8,3.1c-1.4-0.1-2.5-1.6-2.4-3.4c0.1-1.8,1.4-3.2,2.8-3.1
				C21.5,25.6,22.6,27.2,22.5,29z"/>
			
				<radialGradient id="SVGID_18_" cx="59.341" cy="264.1228" r="7.0352" gradientTransform="matrix(1.356 8.750000e-02 -6.440000e-02 0.9979 -41.8263 -244.0609)" gradientUnits="userSpaceOnUse">
				<stop  offset="8.148150e-02" style="stop-color:#645DA6"/>
				<stop  offset="0.9963" style="stop-color:#09B0E5"/>
			</radialGradient>
			<path class="st17" d="M20.6,25.6c-1.1,0.3-2,1.5-2.1,3c-0.1,1.6,0.7,2.9,1.9,3.3c1.1-0.3,2-1.5,2.1-3
				C22.6,27.4,21.8,26,20.6,25.6z"/>
		</g>
		<g>
			
				<radialGradient id="SVGID_19_" cx="13.5463" cy="442.3772" r="4.5767" gradientTransform="matrix(0.6674 0.7447 -0.7447 0.6674 342.8567 -296.962)" gradientUnits="userSpaceOnUse">
				<stop  offset="8.148150e-02" style="stop-color:#645DA6"/>
				<stop  offset="0.9963" style="stop-color:#09B0E5"/>
			</radialGradient>
			<path class="st18" d="M20.9,10.7c-0.8,0.8-1.9,1-2.3,0.5c-0.4-0.5-0.1-1.5,0.7-2.3c0.8-0.8,1.9-1,2.3-0.5S21.7,9.9,20.9,10.7z"/>
			
				<radialGradient id="SVGID_20_" cx="13.6996" cy="442.4375" r="4.4272" gradientTransform="matrix(0.6674 0.7447 -0.7447 0.6674 342.8567 -296.962)" gradientUnits="userSpaceOnUse">
				<stop  offset="8.148150e-02" style="stop-color:#645DA6"/>
				<stop  offset="0.9963" style="stop-color:#09B0E5"/>
			</radialGradient>
			<path class="st19" d="M21.7,8.6c-0.5-0.2-1.4,0-2.1,0.6c-0.7,0.7-1.1,1.5-0.8,2.1c0.5,0.2,1.4,0,2.1-0.6C21.6,10,22,9.1,21.7,8.6
				z"/>
		</g>
		<g>
			
				<radialGradient id="SVGID_21_" cx="-21.0075" cy="344.6406" r="6.7467" gradientTransform="matrix(0.9297 0.3682 -0.3682 0.9297 159.7895 -293.3711)" gradientUnits="userSpaceOnUse">
				<stop  offset="8.148150e-02" style="stop-color:#645DA6"/>
				<stop  offset="0.9963" style="stop-color:#09B0E5"/>
			</radialGradient>
			<path class="st20" d="M12.8,23.4c-0.6,1.6-1.9,2.5-2.8,2.1c-0.9-0.4-1.2-1.9-0.5-3.5s1.9-2.5,2.8-2.1
				C13.2,20.3,13.4,21.8,12.8,23.4z"/>
			
				<radialGradient id="SVGID_22_" cx="-21.0075" cy="344.6406" r="6.7467" gradientTransform="matrix(0.9297 0.3682 -0.3682 0.9297 159.7895 -293.3711)" gradientUnits="userSpaceOnUse">
				<stop  offset="8.148150e-02" style="stop-color:#645DA6"/>
				<stop  offset="0.9963" style="stop-color:#09B0E5"/>
			</radialGradient>
			<path class="st21" d="M12.8,23.4c-0.6,1.6-1.9,2.5-2.8,2.1c-0.9-0.4-1.2-1.9-0.5-3.5s1.9-2.5,2.8-2.1
				C13.2,20.3,13.4,21.8,12.8,23.4z"/>
			
				<radialGradient id="SVGID_23_" cx="-20.7815" cy="344.7295" r="6.5262" gradientTransform="matrix(0.9297 0.3682 -0.3682 0.9297 159.7895 -293.3711)" gradientUnits="userSpaceOnUse">
				<stop  offset="8.148150e-02" style="stop-color:#645DA6"/>
				<stop  offset="0.9963" style="stop-color:#09B0E5"/>
			</radialGradient>
			<path class="st22" d="M12.6,20.1c-0.8,0-1.8,0.9-2.3,2.2c-0.5,1.4-0.4,2.7,0.2,3.3c0.8,0,1.8-0.9,2.3-2.2
				C13.4,22,13.2,20.7,12.6,20.1z"/>
		</g>
		<g>
			
				<radialGradient id="SVGID_24_" cx="518.5911" cy="306.2484" r="6.7464" gradientTransform="matrix(-0.9501 -0.312 0.312 -0.9501 439.945 481.6755)" gradientUnits="userSpaceOnUse">
				<stop  offset="8.148150e-02" style="stop-color:#645DA6"/>
				<stop  offset="0.9963" style="stop-color:#09B0E5"/>
			</radialGradient>
			<path class="st23" d="M43.1,24.8c0.5-1.6,1.7-2.6,2.6-2.3s1.3,1.8,0.8,3.4c-0.5,1.6-1.7,2.6-2.6,2.3
				C42.9,27.9,42.6,26.4,43.1,24.8z"/>
			
				<radialGradient id="SVGID_25_" cx="518.817" cy="306.3372" r="6.5259" gradientTransform="matrix(-0.9501 -0.312 0.312 -0.9501 439.945 481.6755)" gradientUnits="userSpaceOnUse">
				<stop  offset="8.148150e-02" style="stop-color:#645DA6"/>
				<stop  offset="0.9963" style="stop-color:#09B0E5"/>
			</radialGradient>
			<path class="st24" d="M43.5,28.1c0.8-0.1,1.7-1,2.2-2.3c0.5-1.4,0.3-2.7-0.4-3.3c-0.8,0.1-1.7,1-2.2,2.3
				C42.6,26.2,42.8,27.6,43.5,28.1z"/>
		</g>
		<g class="st25">
			
				<radialGradient id="SVGID_26_" cx="503.1475" cy="202.234" r="5.164" gradientTransform="matrix(-0.7823 -0.6229 0.6229 -0.7823 301.633 512.3088)" gradientUnits="userSpaceOnUse">
				<stop  offset="8.148150e-02" style="stop-color:#645DA6"/>
				<stop  offset="0.9963" style="stop-color:#09B0E5"/>
			</radialGradient>
			<path class="st26" d="M35.3,37.8c0.8-1,1.9-1.4,2.5-1c0.6,0.5,0.4,1.7-0.4,2.7c-0.8,1-1.9,1.4-2.5,1S34.5,38.8,35.3,37.8z"/>
			
				<radialGradient id="SVGID_27_" cx="503.1475" cy="202.234" r="5.164" gradientTransform="matrix(-0.7823 -0.6229 0.6229 -0.7823 301.633 512.3088)" gradientUnits="userSpaceOnUse">
				<stop  offset="8.148150e-02" style="stop-color:#645DA6"/>
				<stop  offset="0.9963" style="stop-color:#09B0E5"/>
			</radialGradient>
			<path class="st27" d="M35.3,37.8c0.8-1,1.9-1.4,2.5-1c0.6,0.5,0.4,1.7-0.4,2.7c-0.8,1-1.9,1.4-2.5,1S34.5,38.8,35.3,37.8z"/>
			
				<radialGradient id="SVGID_28_" cx="503.3205" cy="202.302" r="4.9953" gradientTransform="matrix(-0.7823 -0.6229 0.6229 -0.7823 301.633 512.3088)" gradientUnits="userSpaceOnUse">
				<stop  offset="8.148150e-02" style="stop-color:#645DA6"/>
				<stop  offset="0.9963" style="stop-color:#09B0E5"/>
			</radialGradient>
			<path class="st28" d="M34.7,40.3c0.6,0.2,1.5-0.3,2.2-1.1c0.7-0.9,0.9-1.9,0.6-2.5c-0.6-0.2-1.5,0.3-2.2,1.1
				C34.6,38.7,34.4,39.7,34.7,40.3z"/>
		</g>
		<g>
			
				<radialGradient id="SVGID_29_" cx="506.7474" cy="212.2006" r="4.0859" gradientTransform="matrix(-0.7823 -0.6229 0.6229 -0.7823 301.633 512.3088)" gradientUnits="userSpaceOnUse">
				<stop  offset="8.148150e-02" style="stop-color:#645DA6"/>
				<stop  offset="0.9963" style="stop-color:#09B0E5"/>
			</radialGradient>
			<path class="st29" d="M38.4,28.4c0.6-0.8,1.5-1.1,2-0.8c0.5,0.4,0.3,1.3-0.3,2.1c-0.6,0.8-1.5,1.1-2,0.8
				C37.7,30.1,37.8,29.2,38.4,28.4z"/>
			
				<radialGradient id="SVGID_30_" cx="506.8842" cy="212.2544" r="3.9524" gradientTransform="matrix(-0.7823 -0.6229 0.6229 -0.7823 301.633 512.3088)" gradientUnits="userSpaceOnUse">
				<stop  offset="8.148150e-02" style="stop-color:#645DA6"/>
				<stop  offset="0.9963" style="stop-color:#09B0E5"/>
			</radialGradient>
			<path class="st30" d="M38,30.3c0.5,0.1,1.2-0.2,1.7-0.9c0.6-0.7,0.7-1.5,0.4-1.9c-0.5-0.1-1.2,0.2-1.7,0.9
				C37.9,29.1,37.7,29.9,38,30.3z"/>
		</g>
		<g>
			
				<radialGradient id="SVGID_31_" cx="407.3701" cy="546.8123" r="9.5351" gradientTransform="matrix(-0.7239 0.6899 -0.6899 -0.7239 712.7553 130.3653)" gradientUnits="userSpaceOnUse">
				<stop  offset="8.148150e-02" style="stop-color:#645DA6"/>
				<stop  offset="0.9963" style="stop-color:#09B0E5"/>
			</radialGradient>
			<path class="st31" d="M35.7,12.5c-1.6-1.7-2.1-3.9-1.1-4.8c1-1,3.1-0.4,4.8,1.3c1.6,1.7,2.1,3.9,1.1,4.8
				C39.5,14.8,37.4,14.2,35.7,12.5z"/>
			
				<radialGradient id="SVGID_32_" cx="407.3701" cy="546.8123" r="9.5351" gradientTransform="matrix(-0.7239 0.6899 -0.6899 -0.7239 712.7553 130.3653)" gradientUnits="userSpaceOnUse">
				<stop  offset="8.148150e-02" style="stop-color:#645DA6"/>
				<stop  offset="0.9963" style="stop-color:#09B0E5"/>
			</radialGradient>
			<path class="st32" d="M35.7,12.5c-1.6-1.7-2.1-3.9-1.1-4.8c1-1,3.1-0.4,4.8,1.3c1.6,1.7,2.1,3.9,1.1,4.8
				C39.5,14.8,37.4,14.2,35.7,12.5z"/>
			
				<radialGradient id="SVGID_33_" cx="407.6895" cy="546.9377" r="9.2236" gradientTransform="matrix(-0.7239 0.6899 -0.6899 -0.7239 712.7553 130.3653)" gradientUnits="userSpaceOnUse">
				<stop  offset="8.148150e-02" style="stop-color:#645DA6"/>
				<stop  offset="0.9963" style="stop-color:#09B0E5"/>
			</radialGradient>
			<path class="st33" d="M40.1,14.1c0.4-1.1-0.1-2.8-1.5-4.3c-1.4-1.5-3.2-2.1-4.3-1.6c-0.4,1.1,0.1,2.8,1.5,4.3
				C37.2,14,39,14.6,40.1,14.1z"/>
		</g>
		<g>
			
				<radialGradient id="SVGID_34_" cx="311.2313" cy="584.186" r="4.086" gradientTransform="matrix(-0.4011 0.916 -0.916 -0.4011 693.321 -42.5868)" gradientUnits="userSpaceOnUse">
				<stop  offset="8.148150e-02" style="stop-color:#645DA6"/>
				<stop  offset="0.9963" style="stop-color:#09B0E5"/>
			</radialGradient>
			<path class="st34" d="M30.9,7.8C30,7.4,29.4,6.6,29.7,6c0.2-0.5,1.2-0.7,2.1-0.3C32.7,6.2,33.3,7,33,7.5S31.8,8.2,30.9,7.8z"/>
			
				<radialGradient id="SVGID_35_" cx="311.3681" cy="584.2397" r="3.9525" gradientTransform="matrix(-0.4011 0.916 -0.916 -0.4011 693.321 -42.5868)" gradientUnits="userSpaceOnUse">
				<stop  offset="8.148150e-02" style="stop-color:#645DA6"/>
				<stop  offset="0.9963" style="stop-color:#09B0E5"/>
			</radialGradient>
			<path class="st35" d="M32.9,7.7c0-0.5-0.5-1.1-1.3-1.4c-0.8-0.4-1.6-0.3-2,0.1c0,0.5,0.5,1.1,1.3,1.4C31.7,8.1,32.6,8.1,32.9,7.7
				z"/>
		</g>
		<g>
			
				<radialGradient id="SVGID_36_" cx="165.4446" cy="110.4926" r="4.0858" gradientTransform="matrix(0.7524 -0.6587 0.6587 0.7524 -186.2186 58.8181)" gradientUnits="userSpaceOnUse">
				<stop  offset="8.148150e-02" style="stop-color:#645DA6"/>
				<stop  offset="0.9963" style="stop-color:#09B0E5"/>
			</radialGradient>
			<path class="st36" d="M13.1,34.4c0.7,0.8,0.8,1.7,0.4,2.1c-0.4,0.4-1.4,0.1-2-0.7c-0.7-0.8-0.8-1.7-0.4-2.1
				C11.5,33.3,12.4,33.6,13.1,34.4z"/>
			
				<radialGradient id="SVGID_37_" cx="165.4446" cy="110.4926" r="4.0858" gradientTransform="matrix(0.7524 -0.6587 0.6587 0.7524 -186.2186 58.8181)" gradientUnits="userSpaceOnUse">
				<stop  offset="8.148150e-02" style="stop-color:#645DA6"/>
				<stop  offset="0.9963" style="stop-color:#09B0E5"/>
			</radialGradient>
			<path class="st37" d="M13.1,34.4c0.7,0.8,0.8,1.7,0.4,2.1c-0.4,0.4-1.4,0.1-2-0.7c-0.7-0.8-0.8-1.7-0.4-2.1
				C11.5,33.3,12.4,33.6,13.1,34.4z"/>
			
				<radialGradient id="SVGID_38_" cx="165.5815" cy="110.5464" r="3.9523" gradientTransform="matrix(0.7524 -0.6587 0.6587 0.7524 -186.2186 58.8181)" gradientUnits="userSpaceOnUse">
				<stop  offset="8.148150e-02" style="stop-color:#645DA6"/>
				<stop  offset="0.9963" style="stop-color:#09B0E5"/>
			</radialGradient>
			<path class="st38" d="M11.2,33.6c-0.2,0.5,0,1.2,0.6,1.9c0.6,0.7,1.3,1,1.8,0.8c0.2-0.5,0-1.2-0.6-1.9
				C12.5,33.7,11.7,33.4,11.2,33.6z"/>
		</g>
		<g>
			
				<radialGradient id="SVGID_39_" cx="498.1876" cy="205.8664" r="9.0358" gradientTransform="matrix(-0.7803 -0.6254 0.6254 -0.7803 298.4077 509.7493)" gradientUnits="userSpaceOnUse">
				<stop  offset="8.148150e-02" style="stop-color:#645DA6"/>
				<stop  offset="0.9963" style="stop-color:#09B0E5"/>
			</radialGradient>
			<path class="st39" d="M40.7,32.6c1.4-1.7,3.4-2.5,4.4-1.7c1,0.8,0.7,2.9-0.7,4.6c-1.4,1.7-3.4,2.5-4.4,1.7
				C39,36.4,39.3,34.3,40.7,32.6z"/>
			
				<radialGradient id="SVGID_40_" cx="498.4902" cy="205.9854" r="8.7406" gradientTransform="matrix(-0.7803 -0.6254 0.6254 -0.7803 298.4077 509.7493)" gradientUnits="userSpaceOnUse">
				<stop  offset="8.148150e-02" style="stop-color:#645DA6"/>
				<stop  offset="0.9963" style="stop-color:#09B0E5"/>
			</radialGradient>
			<path class="st40" d="M39.7,36.8c1.1,0.3,2.6-0.5,3.8-1.9c1.2-1.5,1.6-3.3,1-4.3c-1.1-0.3-2.6,0.5-3.8,1.9
				C39.5,34.1,39.1,35.9,39.7,36.8z"/>
		</g>
		
			<radialGradient id="SVGID_41_" cx="0.1581" cy="312.3538" r="1.5834" gradientTransform="matrix(0.9576 0.2882 -0.2882 0.9576 133.2121 -281.6313)" gradientUnits="userSpaceOnUse">
			<stop  offset="8.148150e-02" style="stop-color:#645DA6"/>
			<stop  offset="0.9963" style="stop-color:#09B0E5"/>
		</radialGradient>
		<path class="st41" d="M43.4,18.5c-0.1,0.4-0.5,0.6-0.9,0.5c-0.4-0.1-0.6-0.5-0.5-0.9c0.1-0.4,0.5-0.6,0.9-0.5
			C43.3,17.8,43.6,18.1,43.4,18.5z"/>
		
			<radialGradient id="SVGID_42_" cx="-0.202" cy="316.5097" r="1.0179" gradientTransform="matrix(0.9576 0.2882 -0.2882 0.9576 133.2121 -281.6313)" gradientUnits="userSpaceOnUse">
			<stop  offset="8.148150e-02" style="stop-color:#645DA6"/>
			<stop  offset="0.9963" style="stop-color:#09B0E5"/>
		</radialGradient>
		<path class="st42" d="M41.9,22c-0.1,0.2-0.3,0.4-0.6,0.3c-0.2-0.1-0.4-0.3-0.3-0.6c0.1-0.2,0.3-0.4,0.6-0.3
			C41.8,21.6,41.9,21.8,41.9,22z"/>
		
			<radialGradient id="SVGID_43_" cx="-26.6457" cy="331.7115" r="1.8095" gradientTransform="matrix(0.9576 0.2882 -0.2882 0.9576 133.2121 -281.6313)" gradientUnits="userSpaceOnUse">
			<stop  offset="8.148150e-02" style="stop-color:#645DA6"/>
			<stop  offset="0.9963" style="stop-color:#09B0E5"/>
		</radialGradient>
		<path class="st43" d="M12.2,29.5c-0.1,0.4-0.6,0.7-1,0.5s-0.7-0.6-0.5-1c0.1-0.4,0.6-0.7,1-0.5C12.1,28.6,12.3,29,12.2,29.5z"/>
		
			<radialGradient id="SVGID_44_" cx="-25.3425" cy="325.7091" r="1.3572" gradientTransform="matrix(0.9576 0.2882 -0.2882 0.9576 133.2121 -281.6313)" gradientUnits="userSpaceOnUse">
			<stop  offset="8.148150e-02" style="stop-color:#645DA6"/>
			<stop  offset="0.9963" style="stop-color:#09B0E5"/>
		</radialGradient>
		<path class="st44" d="M15.2,23.8c-0.1,0.3-0.4,0.5-0.7,0.4c-0.3-0.1-0.5-0.4-0.4-0.7c0.1-0.3,0.4-0.5,0.7-0.4
			C15.1,23.2,15.3,23.5,15.2,23.8z"/>
		
			<radialGradient id="SVGID_45_" cx="-17.0283" cy="334.9162" r="5.2024" gradientTransform="matrix(0.9576 0.2882 -0.2882 0.9576 133.2121 -281.6313)" gradientUnits="userSpaceOnUse">
			<stop  offset="8.148150e-02" style="stop-color:#645DA6"/>
			<stop  offset="0.9963" style="stop-color:#09B0E5"/>
		</radialGradient>
		<path class="st45" d="M20.7,37.4c-0.4,1.2-1.6,1.9-2.8,1.5c-1.2-0.4-1.9-1.6-1.5-2.8c0.4-1.2,1.6-1.9,2.8-1.5
			C20.4,34.9,21.1,36.2,20.7,37.4z"/>
		
			<radialGradient id="SVGID_46_" cx="-13.5475" cy="332.6904" r="1.9226" gradientTransform="matrix(0.9576 0.2882 -0.2882 0.9576 133.2121 -281.6313)" gradientUnits="userSpaceOnUse">
			<stop  offset="8.148150e-02" style="stop-color:#645DA6"/>
			<stop  offset="0.9963" style="stop-color:#09B0E5"/>
		</radialGradient>
		<path class="st46" d="M24.5,34.2c-0.1,0.4-0.6,0.7-1.1,0.6s-0.7-0.6-0.6-1.1c0.1-0.4,0.6-0.7,1.1-0.6
			C24.4,33.3,24.6,33.8,24.5,34.2z"/>
		
			<radialGradient id="SVGID_47_" cx="-13.239" cy="336.2339" r="1.4702" gradientTransform="matrix(0.9576 0.2882 -0.2882 0.9576 133.2121 -281.6313)" gradientUnits="userSpaceOnUse">
			<stop  offset="8.148150e-02" style="stop-color:#645DA6"/>
			<stop  offset="0.9963" style="stop-color:#09B0E5"/>
		</radialGradient>
		<path class="st47" d="M23.7,37.4c-0.1,0.3-0.5,0.5-0.8,0.4c-0.3-0.1-0.5-0.5-0.4-0.8c0.1-0.3,0.5-0.5,0.8-0.4
			C23.6,36.7,23.8,37.1,23.7,37.4z"/>
		
			<radialGradient id="SVGID_48_" cx="-30.8391" cy="331.8582" r="1.4703" gradientTransform="matrix(0.9576 0.2882 -0.2882 0.9576 133.2121 -281.6313)" gradientUnits="userSpaceOnUse">
			<stop  offset="8.148150e-02" style="stop-color:#645DA6"/>
			<stop  offset="0.9963" style="stop-color:#09B0E5"/>
		</radialGradient>
		<path class="st48" d="M8.1,28.2c-0.1,0.3-0.5,0.5-0.8,0.4c-0.3-0.1-0.5-0.5-0.4-0.8c0.1-0.3,0.5-0.5,0.8-0.4
			C8,27.5,8.2,27.8,8.1,28.2z"/>
		
			<radialGradient id="SVGID_49_" cx="-24.8897" cy="321.0673" r="1.131" gradientTransform="matrix(0.9576 0.2882 -0.2882 0.9576 133.2121 -281.6313)" gradientUnits="userSpaceOnUse">
			<stop  offset="8.148150e-02" style="stop-color:#645DA6"/>
			<stop  offset="0.9963" style="stop-color:#09B0E5"/>
		</radialGradient>
		<path class="st49" d="M16.9,19.4c-0.1,0.3-0.4,0.4-0.6,0.3c-0.3-0.1-0.4-0.4-0.3-0.6c0.1-0.3,0.4-0.4,0.6-0.3
			C16.9,18.8,17,19.1,16.9,19.4z"/>
		
			<radialGradient id="SVGID_50_" cx="-18.4229" cy="307.856" r="3.1666" gradientTransform="matrix(0.9576 0.2882 -0.2882 0.9576 133.2121 -281.6313)" gradientUnits="userSpaceOnUse">
			<stop  offset="8.148150e-02" style="stop-color:#645DA6"/>
			<stop  offset="0.9963" style="stop-color:#09B0E5"/>
		</radialGradient>
		<path class="st50" d="M27.1,9.8c-0.2,0.7-1,1.2-1.7,0.9c-0.7-0.2-1.2-1-0.9-1.7c0.2-0.7,1-1.2,1.7-0.9C26.9,8.3,27.3,9.1,27.1,9.8
			z"/>
		
			<radialGradient id="SVGID_51_" cx="-21.5636" cy="314.9702" r="1.3571" gradientTransform="matrix(0.9576 0.2882 -0.2882 0.9576 133.2121 -281.6313)" gradientUnits="userSpaceOnUse">
			<stop  offset="8.148150e-02" style="stop-color:#645DA6"/>
			<stop  offset="0.9963" style="stop-color:#09B0E5"/>
		</radialGradient>
		<path class="st51" d="M21.9,14.6c-0.1,0.3-0.4,0.5-0.7,0.4c-0.3-0.1-0.5-0.4-0.4-0.7c0.1-0.3,0.4-0.5,0.7-0.4
			C21.8,14,22,14.3,21.9,14.6z"/>
		
			<radialGradient id="SVGID_52_" cx="-20.7233" cy="305.9892" r="1.5834" gradientTransform="matrix(0.9576 0.2882 -0.2882 0.9576 133.2121 -281.6313)" gradientUnits="userSpaceOnUse">
			<stop  offset="8.148150e-02" style="stop-color:#645DA6"/>
			<stop  offset="0.9963" style="stop-color:#09B0E5"/>
		</radialGradient>
		<path class="st52" d="M25.3,6.4c-0.1,0.4-0.5,0.6-0.9,0.5C24,6.8,23.8,6.4,24,6c0.1-0.4,0.5-0.6,0.9-0.5C25.2,5.6,25.4,6,25.3,6.4
			z"/>
		
			<radialGradient id="SVGID_53_" cx="-25.8838" cy="308.4389" r="1.131" gradientTransform="matrix(0.9576 0.2882 -0.2882 0.9576 133.2121 -281.6313)" gradientUnits="userSpaceOnUse">
			<stop  offset="8.148150e-02" style="stop-color:#645DA6"/>
			<stop  offset="0.9963" style="stop-color:#09B0E5"/>
		</radialGradient>
		<path class="st53" d="M19.6,7c-0.1,0.3-0.4,0.4-0.6,0.3c-0.3-0.1-0.4-0.4-0.3-0.6c0.1-0.3,0.4-0.4,0.6-0.3
			C19.5,6.4,19.7,6.7,19.6,7z"/>
		
			<radialGradient id="SVGID_54_" cx="-10.8247" cy="308.1477" r="4.6369" gradientTransform="matrix(0.9576 0.2882 -0.2882 0.9576 133.2121 -281.6313)" gradientUnits="userSpaceOnUse">
			<stop  offset="8.148150e-02" style="stop-color:#645DA6"/>
			<stop  offset="0.9963" style="stop-color:#09B0E5"/>
		</radialGradient>
		<path class="st54" d="M34.3,13.2c-0.3,1.1-1.5,1.7-2.5,1.4c-1.1-0.3-1.7-1.5-1.4-2.5c0.3-1.1,1.5-1.7,2.5-1.4
			C34.1,11,34.7,12.2,34.3,13.2z"/>
		
			<radialGradient id="SVGID_55_" cx="-14.8123" cy="315.3048" r="1.8095" gradientTransform="matrix(0.9576 0.2882 -0.2882 0.9576 133.2121 -281.6313)" gradientUnits="userSpaceOnUse">
			<stop  offset="8.148150e-02" style="stop-color:#645DA6"/>
			<stop  offset="0.9963" style="stop-color:#09B0E5"/>
		</radialGradient>
		<path class="st55" d="M28.3,17.2c-0.1,0.4-0.6,0.7-1,0.5c-0.4-0.1-0.7-0.6-0.5-1c0.1-0.4,0.6-0.7,1-0.5S28.4,16.7,28.3,17.2z"/>
		
			<radialGradient id="SVGID_56_" cx="-1.107" cy="307.8949" r="1.4702" gradientTransform="matrix(0.9576 0.2882 -0.2882 0.9576 133.2121 -281.6313)" gradientUnits="userSpaceOnUse">
			<stop  offset="8.148150e-02" style="stop-color:#645DA6"/>
			<stop  offset="0.9963" style="stop-color:#09B0E5"/>
		</radialGradient>
		<path class="st56" d="M43.5,13.8c-0.1,0.3-0.5,0.5-0.8,0.4c-0.3-0.1-0.5-0.5-0.4-0.8c0.1-0.3,0.5-0.5,0.8-0.4
			C43.4,13.1,43.6,13.5,43.5,13.8z"/>
		
			<radialGradient id="SVGID_57_" cx="-2.9349" cy="316.6655" r="2.0358" gradientTransform="matrix(0.9576 0.2882 -0.2882 0.9576 133.2121 -281.6313)" gradientUnits="userSpaceOnUse">
			<stop  offset="8.148150e-02" style="stop-color:#645DA6"/>
			<stop  offset="0.9963" style="stop-color:#09B0E5"/>
		</radialGradient>
		<path class="st57" d="M39.3,22c-0.1,0.5-0.6,0.7-1.1,0.6c-0.5-0.1-0.7-0.6-0.6-1.1c0.1-0.5,0.6-0.7,1.1-0.6
			C39.1,21.1,39.4,21.6,39.3,22z"/>
		
			<radialGradient id="SVGID_58_" cx="-3.0789" cy="320.7741" r="1.8095" gradientTransform="matrix(0.9576 0.2882 -0.2882 0.9576 133.2121 -281.6313)" gradientUnits="userSpaceOnUse">
			<stop  offset="8.148150e-02" style="stop-color:#645DA6"/>
			<stop  offset="0.9963" style="stop-color:#09B0E5"/>
		</radialGradient>
		<path class="st58" d="M37.9,25.8c-0.1,0.4-0.6,0.7-1,0.5c-0.4-0.1-0.7-0.6-0.5-1c0.1-0.4,0.6-0.7,1-0.5
			C37.8,24.9,38.1,25.4,37.9,25.8z"/>
		
			<radialGradient id="SVGID_59_" cx="-11.3769" cy="328.3627" r="1.5833" gradientTransform="matrix(0.9576 0.2882 -0.2882 0.9576 133.2121 -281.6313)" gradientUnits="userSpaceOnUse">
			<stop  offset="8.148150e-02" style="stop-color:#645DA6"/>
			<stop  offset="0.9963" style="stop-color:#09B0E5"/>
		</radialGradient>
		<path class="st59" d="M27.8,30.5c-0.1,0.4-0.5,0.6-0.9,0.5c-0.4-0.1-0.6-0.5-0.5-0.9c0.1-0.4,0.5-0.6,0.9-0.5
			C27.7,29.8,27.9,30.2,27.8,30.5z"/>
		
			<radialGradient id="SVGID_60_" cx="-2.4551" cy="328.1482" r="1.6964" gradientTransform="matrix(0.9576 0.2882 -0.2882 0.9576 133.2121 -281.6313)" gradientUnits="userSpaceOnUse">
			<stop  offset="8.148150e-02" style="stop-color:#645DA6"/>
			<stop  offset="0.9963" style="stop-color:#09B0E5"/>
		</radialGradient>
		<path class="st60" d="M36.4,33c-0.1,0.4-0.5,0.6-0.9,0.5c-0.4-0.1-0.6-0.5-0.5-0.9c0.1-0.4,0.5-0.6,0.9-0.5
			C36.3,32.1,36.5,32.6,36.4,33z"/>
		
			<radialGradient id="SVGID_61_" cx="-2.4997" cy="331.0636" r="1.4702" gradientTransform="matrix(0.9576 0.2882 -0.2882 0.9576 133.2121 -281.6313)" gradientUnits="userSpaceOnUse">
			<stop  offset="8.148150e-02" style="stop-color:#645DA6"/>
			<stop  offset="0.9963" style="stop-color:#09B0E5"/>
		</radialGradient>
		<path class="st61" d="M35.5,35.6c-0.1,0.3-0.5,0.5-0.8,0.4c-0.3-0.1-0.5-0.5-0.4-0.8c0.1-0.3,0.5-0.5,0.8-0.4
			C35.4,34.9,35.6,35.3,35.5,35.6z"/>
		
			<radialGradient id="SVGID_62_" cx="-2.6578" cy="337.2217" r="2.9406" gradientTransform="matrix(0.9576 0.2882 -0.2882 0.9576 133.2121 -281.6313)" gradientUnits="userSpaceOnUse">
			<stop  offset="8.148150e-02" style="stop-color:#645DA6"/>
			<stop  offset="0.9963" style="stop-color:#09B0E5"/>
		</radialGradient>
		<path class="st62" d="M33.7,42.4c-0.2,0.7-0.9,1.1-1.6,0.9c-0.7-0.2-1.1-0.9-0.9-1.6c0.2-0.7,0.9-1.1,1.6-0.9
			C33.5,41,33.9,41.7,33.7,42.4z"/>
		
			<radialGradient id="SVGID_63_" cx="0.2226" cy="338.4016" r="0.9048" gradientTransform="matrix(0.9576 0.2882 -0.2882 0.9576 133.2121 -281.6313)" gradientUnits="userSpaceOnUse">
			<stop  offset="8.148150e-02" style="stop-color:#645DA6"/>
			<stop  offset="0.9963" style="stop-color:#09B0E5"/>
		</radialGradient>
		<path class="st63" d="M36,43.1c-0.1,0.2-0.3,0.3-0.5,0.3c-0.2-0.1-0.3-0.3-0.3-0.5c0.1-0.2,0.3-0.3,0.5-0.3
			C35.9,42.6,36,42.8,36,43.1z"/>
		
			<radialGradient id="SVGID_64_" cx="3.631" cy="334.44" r="0.7917" gradientTransform="matrix(0.9576 0.2882 -0.2882 0.9576 133.2121 -281.6313)" gradientUnits="userSpaceOnUse">
			<stop  offset="8.148150e-02" style="stop-color:#645DA6"/>
			<stop  offset="0.9963" style="stop-color:#09B0E5"/>
		</radialGradient>
		<path class="st64" d="M40.4,40.2c-0.1,0.2-0.2,0.3-0.4,0.2c-0.2-0.1-0.3-0.2-0.2-0.4c0.1-0.2,0.2-0.3,0.4-0.2
			C40.3,39.8,40.4,40,40.4,40.2z"/>
		
			<radialGradient id="SVGID_65_" cx="6.8304" cy="321.7642" r="1.131" gradientTransform="matrix(0.9576 0.2882 -0.2882 0.9576 133.2121 -281.6313)" gradientUnits="userSpaceOnUse">
			<stop  offset="8.148150e-02" style="stop-color:#645DA6"/>
			<stop  offset="0.9963" style="stop-color:#09B0E5"/>
		</radialGradient>
		<path class="st65" d="M47.1,29.2c-0.1,0.3-0.4,0.4-0.6,0.3c-0.3-0.1-0.4-0.4-0.3-0.6c0.1-0.3,0.4-0.4,0.6-0.3
			C47,28.6,47.2,28.9,47.1,29.2z"/>
		
			<radialGradient id="SVGID_66_" cx="4.4271" cy="312.8624" r="0.7916" gradientTransform="matrix(0.9576 0.2882 -0.2882 0.9576 133.2121 -281.6313)" gradientUnits="userSpaceOnUse">
			<stop  offset="8.148150e-02" style="stop-color:#645DA6"/>
			<stop  offset="0.9963" style="stop-color:#09B0E5"/>
		</radialGradient>
		<path class="st66" d="M47.3,19.7c-0.1,0.2-0.2,0.3-0.4,0.2c-0.2-0.1-0.3-0.2-0.2-0.4c0.1-0.2,0.2-0.3,0.4-0.2
			C47.3,19.4,47.4,19.6,47.3,19.7z"/>
		
			<radialGradient id="SVGID_67_" cx="-18.5155" cy="311.5948" r="19.9178" gradientTransform="matrix(0.9576 0.2882 -0.2882 0.9576 133.2121 -281.6313)" gradientUnits="userSpaceOnUse">
			<stop  offset="8.148150e-02" style="stop-color:#645DA6"/>
			<stop  offset="0.9963" style="stop-color:#09B0E5"/>
		</radialGradient>
		<circle class="st67" cx="26.6" cy="20" r="12.7"/>
	</g>
</g>
</svg>
