<?xml version="1.0" encoding="utf-8"?>
<!-- Generator: Adobe Illustrator 24.2.0, SVG Export Plug-In . SVG Version: 6.00 Build 0)  -->
<svg version="1.1" id="Capa_1" xmlns="http://www.w3.org/2000/svg" xmlns:xlink="http://www.w3.org/1999/xlink" x="0px" y="0px"
	 viewBox="0 0 222 222" style="enable-background:new 0 0 222 222;" xml:space="preserve">
<style type="text/css">
	.st0{opacity:0.8;}
	.st1{opacity:0.5;fill:url(#SVGID_1_);}
	.st2{fill:url(#SVGID_2_);}
	.st3{fill:url(#SVGID_3_);}
	.st4{fill:url(#SVGID_4_);}
	.st5{opacity:0.4;fill:url(#SVGID_5_);}
	.st6{opacity:0.4;fill:url(#SVGID_6_);}
	.st7{opacity:0.2;}
	.st8{fill:url(#SVGID_7_);}
	.st9{fill:url(#SVGID_8_);}
	.st10{fill:url(#SVGID_9_);}
	.st11{fill:url(#SVGID_10_);}
	.st12{fill:url(#SVGID_11_);}
	.st13{fill:url(#SVGID_12_);}
	.st14{fill:url(#SVGID_13_);}
	.st15{fill:url(#SVGID_14_);}
	.st16{fill:url(#SVGID_15_);}
	.st17{fill:url(#SVGID_16_);}
	.st18{fill:url(#SVGID_17_);}
	.st19{fill:url(#SVGID_18_);}
</style>
<g class="st0">
	<radialGradient id="SVGID_1_" cx="111" cy="111" r="110.8555" gradientUnits="userSpaceOnUse">
		<stop  offset="2.222220e-02" style="stop-color:#E94692"/>
		<stop  offset="0.4741" style="stop-color:#E94692"/>
		<stop  offset="0.837" style="stop-color:#E94793;stop-opacity:0.5"/>
		<stop  offset="1" style="stop-color:#EF7E9A;stop-opacity:0"/>
	</radialGradient>
	<circle class="st1" cx="111" cy="111" r="110.9"/>
	<radialGradient id="SVGID_2_" cx="80.0204" cy="44.257" r="187.4522" gradientUnits="userSpaceOnUse">
		<stop  offset="5.925930e-02" style="stop-color:#EF7E9A"/>
		<stop  offset="0.5259" style="stop-color:#E94692"/>
		<stop  offset="0.9926" style="stop-color:#D1095B"/>
	</radialGradient>
	<circle class="st2" cx="111" cy="111" r="88.6"/>
	<radialGradient id="SVGID_3_" cx="70.1341" cy="42.7998" r="167.8979" gradientUnits="userSpaceOnUse">
		<stop  offset="5.925930e-02" style="stop-color:#EF7E9A"/>
		<stop  offset="0.5259" style="stop-color:#E94692"/>
		<stop  offset="0.9926" style="stop-color:#D1095B"/>
	</radialGradient>
	<path class="st3" d="M36.4,121c0-48.9,39.7-88.6,88.6-88.6c16.1,0,31.2,4.3,44.2,11.8c-15.6-13.6-35.9-21.8-58.2-21.8
		c-48.9,0-88.6,39.7-88.6,88.6c0,32.8,17.9,61.5,44.4,76.8C48.2,171.5,36.4,147.6,36.4,121z"/>
	
		<radialGradient id="SVGID_4_" cx="219.0219" cy="170.4216" r="167.8994" gradientTransform="matrix(0.7071 -0.7071 0.7071 0.7071 -241.7708 126.5127)" gradientUnits="userSpaceOnUse">
		<stop  offset="5.925930e-02" style="stop-color:#EF7E9A"/>
		<stop  offset="0.5259" style="stop-color:#E94692"/>
		<stop  offset="0.9926" style="stop-color:#D1095B"/>
	</radialGradient>
	<path class="st4" d="M65,171.3C30.5,136.7,30.5,80.6,65,46c11.4-11.4,25.1-19,39.6-22.9c-20.6,1.4-40.8,10-56.6,25.7
		c-34.6,34.6-34.6,90.7,0,125.3c23.2,23.2,56.1,30.8,85.7,22.9C109.1,198.7,83.9,190.1,65,171.3z"/>
	<radialGradient id="SVGID_5_" cx="122.0758" cy="121.0103" r="155.4122" gradientUnits="userSpaceOnUse">
		<stop  offset="7.407410e-03" style="stop-color:#D1095B"/>
		<stop  offset="1" style="stop-color:#692980"/>
	</radialGradient>
	<path class="st5" d="M180.8,56.5c1.5,6.5,2.3,13.2,2.3,20.1c0,48.9-39.7,88.6-88.6,88.6c-28.4,0-53.6-13.4-69.8-34.1
		c9.1,39.2,44.3,68.5,86.3,68.5c48.9,0,88.6-39.7,88.6-88.6C199.6,90.5,192.6,71.6,180.8,56.5z"/>
	
		<radialGradient id="SVGID_6_" cx="-99.8425" cy="158.1223" r="155.4187" gradientTransform="matrix(0.6429 0.7659 -0.7659 0.6429 295.6802 99.563)" gradientUnits="userSpaceOnUse">
		<stop  offset="7.407410e-03" style="stop-color:#D1095B"/>
		<stop  offset="1" style="stop-color:#692980"/>
	</radialGradient>
	<path class="st6" d="M197.5,128.3c-4,5.3-8.6,10.3-13.9,14.7c-37.5,31.5-93.3,26.6-124.8-10.9c-18.2-21.7-24.2-49.7-18.8-75.4
		c-24.2,32.2-24,77.9,3,110.1c31.5,37.5,87.3,42.3,124.8,10.9C183.6,164.5,193.6,146.9,197.5,128.3z"/>
	<g class="st7">
		<radialGradient id="SVGID_7_" cx="77.539" cy="46.6592" r="33.7196" gradientUnits="userSpaceOnUse">
			<stop  offset="7.407410e-03" style="stop-color:#D1095B"/>
			<stop  offset="1" style="stop-color:#692980"/>
		</radialGradient>
		<path class="st8" d="M51.4,70.3c4.6,0.8,9.5,0.7,14.3,0.1c4.8-0.6,9.6-1.9,13.9-3.7c4.3-1.8,8-3.9,11.1-6.1c1.5-1.1,2.8-2.2,4-3.1
			c0.6-0.5,1.1-0.9,1.6-1.4c0.5-0.5,0.9-0.9,1.3-1.2c1.5-1.5,2.4-2.4,2.4-2.4s0.2-0.2,0.6-0.7c0.4-0.4,0.9-1.1,1.6-1.9
			c0.7-0.8,1.5-1.8,2.3-3c0.8-1.2,1.9-2.5,2.8-4.1c3.6-5.4,7.5-12.7,11.5-20.1c-1.9-0.2-3.8-0.3-5.7-0.3c-4,6.3-7.7,12.4-11,16.8
			c-1,1.4-2,2.6-2.8,3.7c-0.8,1.1-1.6,2-2.3,2.7c-0.6,0.7-1.2,1.3-1.5,1.7C95,47.8,94.8,48,94.8,48s-0.8,0.8-2.1,2.2
			c-0.3,0.4-0.7,0.7-1.1,1.2c-0.4,0.4-0.9,0.8-1.4,1.3c-1,0.9-2.1,2-3.4,3c-5.1,4.1-13.2,8.3-22,10c-4.4,0.8-8.9,1.2-13,0.9
			c-4.1-0.4-7.9-1.4-10.9-2.9c-1.3-0.7-2.4-1.4-3.4-2.1c-0.4,0.6-0.8,1.2-1.2,1.8c0.9,0.9,1.9,1.8,3.2,2.6
			C42.7,67.9,46.8,69.5,51.4,70.3z"/>
		<radialGradient id="SVGID_8_" cx="81.315" cy="37.3485" r="18.506" gradientUnits="userSpaceOnUse">
			<stop  offset="7.407410e-03" style="stop-color:#D1095B"/>
			<stop  offset="1" style="stop-color:#692980"/>
		</radialGradient>
		<path class="st9" d="M60.3,43.9c0.4,1.5,1.2,3,2.4,4.3c1.2,1.3,2.7,2.4,4.4,3c3.5,1.2,6.7,0.7,9.7,0.1c3-0.7,5.5-2,7.5-3.3
			c2-1.3,3.5-2.5,4.5-3.4c1-0.9,1.5-1.4,1.5-1.4s2.1-2.3,4.6-6c1.2-1.8,2.6-4.1,3.8-6.4c1.3-2.3,2.6-4.8,4-7.2
			c0.1-0.3,0.3-0.5,0.4-0.8c-2.1,0.2-4.2,0.4-6.3,0.8c-1,1.5-2,2.9-2.9,4.3c-1.5,2.2-2.8,4.1-4.1,5.7c-2.5,3.2-4.4,4.9-4.4,4.9
			s-0.4,0.5-1.2,1.3c-0.8,0.8-1.9,1.9-3.4,3.1c-1.5,1.1-3.4,2.3-5.5,3c-2.1,0.7-4.7,1.2-6.7,0.7c-2-0.4-3.7-1.9-4.6-4
			c-0.8-1.8-1.2-3.8-1.4-5.6c-1,0.6-1.9,1.3-2.9,2C59.6,40.5,59.7,42.1,60.3,43.9z"/>
		<radialGradient id="SVGID_9_" cx="86.6461" cy="159.3251" r="43.3152" gradientUnits="userSpaceOnUse">
			<stop  offset="7.407410e-03" style="stop-color:#D1095B"/>
			<stop  offset="1" style="stop-color:#692980"/>
		</radialGradient>
		<path class="st10" d="M72.7,186.9c0.3-3.4,2.1-6.4,5-8.7c2.9-2.3,6.6-3.9,10.3-5.2c7.7-2.5,15.8-4.9,23.2-7.2
			c7.3-2.2,14.8-4.4,20.4-8.9c2.8-2.3,4.9-4.8,6.2-7.9c1.2-3,1.4-5.7,1.2-7.9c-0.2-2.2-0.6-3.9-1.1-5c-0.2-0.6-0.4-1-0.6-1.3
			c-0.1-0.3-0.2-0.4-0.2-0.4s-0.3-0.6-1-1.6c-0.7-1-2-2.6-4.3-3.8c-2.2-1.2-5.7-1.6-8.6-0.9c-1.5,0.3-2.8,0.8-4.1,1.2
			c-1.3,0.4-2.5,0.7-3.9,1c-5.6,1.2-12.7,0.7-20.6,0.6c-4,0-8.2,0.2-12.5,1.2c-4.3,1-8.4,3-12,5.4c-7.2,4.7-13.2,10.4-19.9,13.7
			c-5.3,2.6-10.9,3.7-16,3.8c0.6,1,1.1,2,1.8,2.9c5,0,10.5-0.9,15.8-3.2c7.5-3.3,14-9,20.8-13c3.4-2,7-3.6,10.6-4.3
			c3.7-0.7,7.5-0.8,11.3-0.7c7.6,0.3,15.1,1.1,21.8-0.1c1.6-0.3,3.3-0.7,4.7-1.1c1.4-0.4,2.6-0.8,3.6-1c2-0.4,3.2-0.1,4.1,0.4
			c0.9,0.5,1.5,1.2,1.9,1.8c0.4,0.5,0.5,0.9,0.5,0.9c0,0,0.2,0.3,0.5,1c0.3,0.6,0.6,1.7,0.8,3.1c0.1,1.4,0.1,3.2-0.6,5
			c-0.6,1.6-2.1,3.7-4.1,5.4c-2,1.7-4.7,3.3-7.8,4.6c-3.1,1.3-6.6,2.5-10.3,3.8c-7.4,2.6-15.1,5.2-23.1,8c-4,1.6-8,3.4-11.4,6.4
			c-1.7,1.5-3.2,3.2-4.3,5.2c-1.1,2-1.7,4.3-1.8,6.5c0,0.8,0,1.6,0,2.3c1.2,0.7,2.5,1.3,3.7,1.9C72.6,189.5,72.6,188.2,72.7,186.9z"
			/>
		<radialGradient id="SVGID_10_" cx="131.634" cy="187.7981" r="25.4894" gradientUnits="userSpaceOnUse">
			<stop  offset="7.407410e-03" style="stop-color:#D1095B"/>
			<stop  offset="1" style="stop-color:#692980"/>
		</radialGradient>
		<path class="st11" d="M114.1,188.7l1.2-0.7c0.4-0.2,0.8-0.4,1.2-0.6c3.3-1.7,6.6-2.6,9.5-3.2c2.9-0.6,5.4-0.7,7.2-0.8
			c1.8-0.1,2.8-0.1,2.8-0.1s4-0.3,10.2,0.1c3.1,0.2,6.7,0.6,10.6,1.2c0.9,0.1,1.9,0.3,2.9,0.4c2.1-1.4,4.2-2.9,6.2-4.5
			c-2.7-0.4-5.4-1-8-1.5c-4-0.8-7.7-1.5-11-1.9c-6.5-0.8-11-0.7-11-0.7s-1.1,0-3.1,0.2c-2,0.2-4.8,0.5-8.1,1.4
			c-3.3,0.8-7.1,2.2-10.9,4.4c-0.5,0.3-0.9,0.5-1.4,0.8l-1.4,1c-0.9,0.6-1.8,1.3-2.7,2c-1.7,1.5-3.3,3.1-4.7,4.7
			c-2.2,2.5-4.3,5.1-6.2,7.6c1.6,0.3,3.3,0.5,5,0.6c1.5-1.6,3.1-3.3,4.7-4.9c1.5-1.4,3-2.8,4.5-4
			C112.5,189.7,113.3,189.2,114.1,188.7z"/>
		<radialGradient id="SVGID_11_" cx="131.6596" cy="72.7204" r="53.0085" gradientUnits="userSpaceOnUse">
			<stop  offset="7.407410e-03" style="stop-color:#D1095B"/>
			<stop  offset="1" style="stop-color:#692980"/>
		</radialGradient>
		<path class="st12" d="M135.8,43.2c-2.3,2.8-4.9,5.6-7.7,8.4c-5.6,5.6-12.2,10.9-19.4,15.3c-3.6,2.2-7.3,4.2-11,6
			c-3.7,1.8-7.6,3.3-11.4,5.4c-3.7,2-7.3,4.4-10,7.7c-2.7,3.2-4.5,6.9-5.1,10.7c-0.7,3.8,0.1,7.8,1.8,10.6c1.7,2.9,4,4.8,5.9,5.9
			c1.9,1.2,3.6,1.7,4.7,2.2c1.1,0.3,1.7,0.5,1.7,0.5s0.6,0.1,1.7,0.3c1.1,0.2,2.8,0.4,4.9,0.4c2.1,0,4.6-0.1,7.4-0.7
			c2.7-0.6,5.8-1.4,9-2.7c3.2-1.3,6.5-2.9,9.8-5.1c3.3-2.1,6.4-4.9,9.4-7.4c3-2.6,6.1-5,9.5-6.5c3.4-1.5,7.4-2,11.6-2.1
			c4.2-0.1,8.5,0.1,13-0.3c4.4-0.5,8.7-1.7,12.5-3.3c7.7-3.3,13.7-8.1,18.5-12.5c-0.4-0.8-0.7-1.7-1.1-2.5c-0.2,0.1-0.3,0.3-0.5,0.4
			c-4.9,4-11,8.3-18.3,11c-3.6,1.4-7.5,2.2-11.5,2.5c-4,0.3-8.2-0.1-12.6-0.2c-4.4-0.1-9.1,0.3-13.6,2c-4.4,1.8-7.9,4.5-11.1,7
			c-3.2,2.6-6.1,4.9-9,6.7c-2.9,1.8-5.9,3.2-8.8,4.2c-2.8,1-5.5,1.7-7.9,2.1c-2.3,0.4-4.4,0.5-6,0.4c-1.7-0.1-3-0.3-3.8-0.4
			c-0.9-0.2-1.3-0.3-1.3-0.3s-0.4-0.1-1.3-0.3c-0.8-0.3-2-0.6-3.3-1.4c-1.3-0.7-2.7-1.8-3.7-3.5c-1-1.7-1.6-3.8-1.2-6.4
			c0.3-2.5,1.6-5.4,3.6-7.9c1.9-2.5,4.8-4.7,8.1-6.6c3.3-1.9,7.1-3.6,10.9-5.6c3.9-2,7.6-4.2,11.3-6.7c7.3-4.9,13.9-10.7,19.5-16.7
			c2.8-3,5.3-6.1,7.5-9.1c2.3-3,4.2-6.1,5.6-9.1c1-2.2,1.7-4.4,2.2-6.4c-0.7-0.3-1.4-0.6-2-0.8c-0.6,1.9-1.4,4-2.5,6.1
			C140,37.7,138.1,40.4,135.8,43.2z"/>
		<radialGradient id="SVGID_12_" cx="66.8944" cy="162.1417" r="18.8333" gradientUnits="userSpaceOnUse">
			<stop  offset="7.407410e-03" style="stop-color:#D1095B"/>
			<stop  offset="1" style="stop-color:#692980"/>
		</radialGradient>
		<path class="st13" d="M79.8,161.4c1.2-1,2.4-1.9,3.5-2.8c0.3-0.2,0.5-0.4,0.9-0.7c0.2-0.1,0.3-0.3,0.6-0.5
			c0.2-0.2,0.4-0.5,0.6-0.7c0.8-0.9,1.4-1.9,1.9-2.9c0.9-1.9,0.8-3.7,0.3-5.1c-0.3-0.7-0.7-1.3-1.2-1.8c-0.5-0.3-0.9-0.5-1.3-0.7
			c-0.2-0.1-0.4-0.2-0.6-0.3c-0.3,0-0.6,0-0.8,0c-0.5,0-0.9,0-1.3,0.1c-0.7,0-1.1,0.1-1.1,0.1s-0.4,0.1-1.1,0.2
			c-0.4,0.1-0.8,0.2-1.3,0.3c-0.2,0.1-0.6,0.1-0.8,0.2c-0.2,0.1-0.4,0.1-0.6,0.2c-1.6,0.5-3.7,1.5-6,2.9c-4.6,2.8-9.3,7.7-13.7,12.3
			c-3.8,3.9-8,7.2-11.9,9.1c0.7,0.8,1.5,1.6,2.3,2.4c4.3-1.6,8.9-4.5,12.8-7.9c5-4.3,9.7-8.4,13.7-10.4c1.9-1,3.6-1.6,4.7-1.9
			c0.1,0,0.3-0.1,0.4-0.1c0.1,0,0,0,0.1,0l0,0c0,0,0,0,0,0s0,0,0.1-0.1c0.1-0.1,0.3-0.1,0.3,0.1c0,0,0,0.1,0,0.2
			c0.1,0-0.3,0.3-0.8,0.9c-1,0.9-2.1,1.9-3.1,3c-2.2,2-4.6,4.2-7,6.3c-6.4,5.6-13.2,10.8-17,13.8c0.5,0.4,1,0.9,1.5,1.3
			c4.4-2.2,11.6-6.4,18.4-11.3C74.8,165.3,77.4,163.3,79.8,161.4z"/>
		<radialGradient id="SVGID_13_" cx="138.0462" cy="193.93" r="10.8936" gradientUnits="userSpaceOnUse">
			<stop  offset="7.407410e-03" style="stop-color:#D1095B"/>
			<stop  offset="1" style="stop-color:#692980"/>
		</radialGradient>
		<path class="st14" d="M141.1,190.2c0,0-1.9,0.3-4.9,1.1c-2.9,0.8-7.2,2.1-10.6,5c-0.8,0.7-1.6,1.5-2.2,2.3
			c10.5-1.5,20.3-4.8,29.3-9.5C146.4,189.7,141.1,190.2,141.1,190.2z"/>
		<radialGradient id="SVGID_14_" cx="189.1828" cy="123.2731" r="10.2456" gradientUnits="userSpaceOnUse">
			<stop  offset="7.407410e-03" style="stop-color:#D1095B"/>
			<stop  offset="1" style="stop-color:#692980"/>
		</radialGradient>
		<path class="st15" d="M196,113.7c-2.4,0.7-5.5,2.1-8.3,4c-1.4,1-2.8,2-3.9,3.1c-0.6,0.6-1.2,1.1-1.7,1.6l-0.4,0.4
			c-0.2,0.2-0.4,0.4-0.5,0.7c-0.4,0.5-0.7,0.9-1.1,1.4c-1.3,1.9-1.3,3.5-1.1,4.7c0.1,0.6,0.3,1,0.5,1.3c0.2,0.3,0.2,0.4,0.2,0.4
			s0.4,0.6,1.4,1.2c0.5,0.3,1.2,0.6,2,0.8c0.9,0.1,2,0.2,3.1,0.3c2.5,0,5.9-0.1,9.2-0.8c0.5-0.1,1.1-0.3,1.6-0.4
			c0.4-1.5,0.7-3.1,1-4.6c-1,0.2-2.1,0.3-3.2,0.3c-2.9,0-5.9-0.4-8.2-0.7c-0.3-0.2,0-0.3,0-0.3c0,0-0.2,0.1-0.3-0.1c0,0,0-0.1,0-0.1
			c0,0,0,0,0-0.1l0.3-0.4c0.3-0.5,0.8-1,1.2-1.6c0.8-1.1,1.8-2.2,2.9-3.2c2.1-2.1,4.5-4,6.4-5.3c1-0.7,1.8-1.3,2.4-1.7
			c0-0.4,0-0.8,0-1.2C198.8,113.1,197.5,113.2,196,113.7z"/>
		<radialGradient id="SVGID_15_" cx="178.1633" cy="126.6246" r="21.8175" gradientUnits="userSpaceOnUse">
			<stop  offset="7.407410e-03" style="stop-color:#D1095B"/>
			<stop  offset="1" style="stop-color:#692980"/>
		</radialGradient>
		<path class="st16" d="M188,109.3c-3.7,1.2-7.6,2.2-11.3,3.5c-3.7,1.2-7.2,2.8-10,4.6c-1.4,0.9-2.7,2-3.7,3c-1,1-1.8,2-2.4,2.8
			c-0.6,0.8-1,1.5-1.3,2c-0.3,0.5-0.4,0.7-0.4,0.7s-0.1,0.3-0.3,0.8c-0.2,0.5-0.5,1.3-0.8,2.3c-0.6,2-1.2,5.1-0.4,8.9
			c0.4,1.9,1.4,3.8,2.8,5.5c1.4,1.7,3.3,3.1,5.4,4c4.3,1.8,9,1.8,13.3,0.7c4.4-1,8.1-3.2,11.3-5.2c1.6-1,3.1-1.9,4.6-2.8
			c0.5-1.4,0.9-2.7,1.3-4.1c-2.4,1-5,2.3-7.7,3.6c-3.4,1.6-6.9,3.3-10.5,3.8c-3.6,0.6-7.3,0.2-9.9-1.2c-2.7-1.3-4.1-3.6-4.5-5.8
			c-0.4-2.2,0.1-4.2,0.6-5.5c0.3-0.7,0.5-1.2,0.7-1.5c0.2-0.3,0.3-0.5,0.3-0.5s0.1-0.2,0.3-0.5c0.2-0.4,0.5-0.8,0.8-1.5
			c0.8-1.3,2.1-2.9,4.2-4.4c2.1-1.6,5-3.1,8.4-4.5c3.4-1.4,7.2-2.6,11.1-4.3c3.5-1.5,6.8-3.2,9.8-5.1c0-1.4-0.1-2.9-0.2-4.3
			C195.8,106.2,192,108,188,109.3z"/>
		<radialGradient id="SVGID_16_" cx="25.3335" cy="115.206" r="5.0218" gradientUnits="userSpaceOnUse">
			<stop  offset="7.407410e-03" style="stop-color:#D1095B"/>
			<stop  offset="1" style="stop-color:#692980"/>
		</radialGradient>
		<path class="st17" d="M27.5,118.5c0.8-1.4,0.9-3,0.5-4.3c-0.4-1.3-1.1-2.2-1.7-2.9c-0.4-0.5-0.6-0.7-0.6-0.7
			c-0.1-0.1-1.4-0.9-3.2-1.9c0,0.8-0.1,1.5-0.1,2.3c0,3.6,0.2,7.2,0.7,10.7c0.3-0.1,0.5-0.1,0.8-0.2c0.3-0.1,0.7-0.3,1-0.4
			c0.4-0.2,0.7-0.4,1-0.7C26.6,119.8,27.1,119.2,27.5,118.5z"/>
		<radialGradient id="SVGID_17_" cx="159.2053" cy="58.434" r="17.2671" gradientUnits="userSpaceOnUse">
			<stop  offset="7.407410e-03" style="stop-color:#D1095B"/>
			<stop  offset="1" style="stop-color:#692980"/>
		</radialGradient>
		<path class="st18" d="M149.4,69.9c0.2-0.5,0.4-0.9,0.5-1.2c0.4-0.7,0.7-1.1,0.7-1.1s0.9-1.7,3-4.4c1.1-1.3,2.4-2.8,4-4.7
			c1.5-1.8,2.9-3.9,4.2-6c2.1-3.5,3.8-7.1,5-10.2c-0.8-0.7-1.6-1.3-2.4-1.9c-1.8,2.8-4,6.2-6.5,9.4c-1.4,1.8-3,3.5-4.5,5
			c-1.6,1.6-3.1,3-4.4,4.2c-1.3,1.3-2.4,2.6-3.1,3.5c-0.7,0.9-1.1,1.6-1.1,1.6s-0.4,0.6-0.9,1.8c-0.2,0.6-0.5,1.4-0.8,2.3
			c-0.1,0.2-0.1,0.6-0.2,1c0,0.4-0.1,0.7-0.1,1.1c-0.1,0.8,0,1.5,0,2.4c0.2,0.8,0.3,1.5,0.5,2.4c0.1,0.4,0.2,0.8,0.3,1.2l0,0.2
			c0,0,0.1,0,0.1,0l0.3,0l0.7,0c0.9,0,1.7,0.2,2.7,0c0.9-0.1,1.9-0.2,2.8-0.3c2.3-0.3,4.7-0.7,7.1-1.2c9.7-2,18.5-6.2,18.1-7.1
			c-0.3-0.9-9.5,1.6-18.9,2.3c-2.3,0.2-4.7,0.3-6.8,0.4c-0.5,0-0.6-0.1-0.7-0.1c-0.1,0,0-0.3,0-0.3C149.3,70,149.3,70.1,149.4,69.9z
			"/>
		<radialGradient id="SVGID_18_" cx="38.2365" cy="108.952" r="21.4244" gradientUnits="userSpaceOnUse">
			<stop  offset="7.407410e-03" style="stop-color:#D1095B"/>
			<stop  offset="1" style="stop-color:#692980"/>
		</radialGradient>
		<path class="st19" d="M25.3,95.2c1.7,3.9,4.6,7.5,8.1,9.2c3.4,1.8,6.5,2,8.5,2.2c2,0.1,3.1,0.1,3.1,0.1s0.1,0,0.5,0c0,0,0,0,0,0
			c0,0,0,0,0.1,0c0,0,0,0,0,0l0,0l0,0.2l0,0.3c0,0.2,0,0.4,0,0.7c0.1,1.8,0,4.2-0.8,6.8c-1.4,5.2-5.6,11.2-11.6,14.5
			c-2.6,1.5-5.5,2.6-8.3,3.3c0.3,1.2,0.6,2.4,1,3.5c3.1-0.5,6.3-1.3,9.4-2.8c3.6-1.6,7-4.2,9.5-7.1c2.6-2.9,4.5-6.3,5.7-9.5
			c1.2-3.3,1.6-6.4,1.6-8.9c0-0.3,0-0.6,0-0.9c0-0.3-0.1-0.7-0.1-1c-0.1-1-0.2-1.8-0.4-2.5c-0.3-1.5-0.5-2.7-0.7-3.6
			c-2.9,0.2-4.6,0.3-5.6,0.4c-0.6,0-0.7,0-0.7,0s-1,0.1-2.6,0.1c-1.6,0-3.8-0.1-5.9-1.1c-2.1-0.9-4.3-3-5.8-6
			c-1.6-3-2.5-6.7-3.1-10.7c0,0,0,0,0-0.1c-1.2,3.5-2.2,7-3,10.6C24.6,93.5,24.9,94.4,25.3,95.2z"/>
	</g>
</g>
</svg>
