<?xml version="1.0" encoding="utf-8"?>
<!-- Generator: Adobe Illustrator 24.2.0, SVG Export Plug-In . SVG Version: 6.00 Build 0)  -->
<svg version="1.1" id="Capa_1" xmlns="http://www.w3.org/2000/svg" xmlns:xlink="http://www.w3.org/1999/xlink" x="0px" y="0px"
	 viewBox="0 0 112 112" style="enable-background:new 0 0 112 112;" xml:space="preserve">
<style type="text/css">
	.st0{opacity:0.5;fill:url(#SVGID_1_);}
	.st1{fill:url(#SVGID_2_);}
	.st2{fill:url(#SVGID_3_);}
	.st3{fill:url(#SVGID_4_);}
	.st4{opacity:0.4;fill:url(#SVGID_5_);}
	.st5{opacity:0.4;fill:url(#SVGID_6_);}
	.st6{opacity:0.2;}
	.st7{fill:url(#SVGID_7_);}
	.st8{fill:url(#SVGID_8_);}
	.st9{fill:url(#SVGID_9_);}
	.st10{fill:url(#SVGID_10_);}
	.st11{fill:url(#SVGID_11_);}
	.st12{fill:url(#SVGID_12_);}
	.st13{fill:url(#SVGID_13_);}
	.st14{fill:url(#SVGID_14_);}
	.st15{fill:url(#SVGID_15_);}
	.st16{fill:url(#SVGID_16_);}
	.st17{fill:url(#SVGID_17_);}
	.st18{fill:url(#SVGID_18_);}
</style>
<g>
	<radialGradient id="SVGID_1_" cx="56" cy="56" r="55.7878" gradientUnits="userSpaceOnUse">
		<stop  offset="2.222220e-02" style="stop-color:#F7AB2E"/>
		<stop  offset="0.4741" style="stop-color:#F7AB2E"/>
		<stop  offset="0.837" style="stop-color:#F6AC32;stop-opacity:0.5"/>
		<stop  offset="1" style="stop-color:#EEC87A;stop-opacity:0"/>
	</radialGradient>
	<circle class="st0" cx="56" cy="56" r="55.8"/>
	<radialGradient id="SVGID_2_" cx="40.4096" cy="22.4117" r="94.3349" gradientUnits="userSpaceOnUse">
		<stop  offset="5.925930e-02" style="stop-color:#EEC87A"/>
		<stop  offset="0.5259" style="stop-color:#F7AB2E"/>
		<stop  offset="0.9926" style="stop-color:#903D8F"/>
	</radialGradient>
	<circle class="st1" cx="56" cy="56" r="44.6"/>
	<radialGradient id="SVGID_3_" cx="35.4343" cy="21.6785" r="84.4943" gradientUnits="userSpaceOnUse">
		<stop  offset="5.925930e-02" style="stop-color:#EEC87A"/>
		<stop  offset="0.5259" style="stop-color:#F7AB2E"/>
		<stop  offset="0.9926" style="stop-color:#903D8F"/>
	</radialGradient>
	<path class="st2" d="M18.5,61c0-24.6,20-44.6,44.6-44.6c8.1,0,15.7,2.2,22.2,5.9c-7.8-6.8-18.1-11-29.3-11
		c-24.6,0-44.6,20-44.6,44.6c0,16.5,9,30.9,22.3,38.6C24.4,86.5,18.5,74.4,18.5,61z"/>
	
		<radialGradient id="SVGID_4_" cx="184.5856" cy="149.2297" r="84.4951" gradientTransform="matrix(0.7071 -0.7071 0.7071 0.7071 -218.9898 71.5127)" gradientUnits="userSpaceOnUse">
		<stop  offset="5.925930e-02" style="stop-color:#EEC87A"/>
		<stop  offset="0.5259" style="stop-color:#F7AB2E"/>
		<stop  offset="0.9926" style="stop-color:#903D8F"/>
	</radialGradient>
	<path class="st3" d="M32.9,86.3c-17.4-17.4-17.4-45.6,0-63c5.7-5.7,12.6-9.6,19.9-11.5c-10.4,0.7-20.5,5-28.5,12.9
		c-17.4,17.4-17.4,45.6,0,63C36,99.4,52.6,103.3,67.5,99.3C55,100.1,42.4,95.8,32.9,86.3z"/>
	<radialGradient id="SVGID_5_" cx="61.5738" cy="61.0377" r="78.2108" gradientUnits="userSpaceOnUse">
		<stop  offset="7.407410e-03" style="stop-color:#903D8F"/>
		<stop  offset="1" style="stop-color:#6C3681"/>
	</radialGradient>
	<path class="st4" d="M91.1,28.6c0.8,3.3,1.2,6.6,1.2,10.1c0,24.6-20,44.6-44.6,44.6c-14.3,0-27-6.7-35.1-17.2
		c4.6,19.7,22.3,34.5,43.4,34.5c24.6,0,44.6-20,44.6-44.6C100.6,45.7,97,36.2,91.1,28.6z"/>
	
		<radialGradient id="SVGID_6_" cx="-159.8782" cy="98.4968" r="78.2141" gradientTransform="matrix(0.6429 0.7659 -0.7659 0.6429 233.9152 122.047)" gradientUnits="userSpaceOnUse">
		<stop  offset="7.407410e-03" style="stop-color:#903D8F"/>
		<stop  offset="1" style="stop-color:#6C3681"/>
	</radialGradient>
	<path class="st5" d="M99.6,64.7c-2,2.7-4.3,5.2-7,7.4c-18.9,15.8-47,13.4-62.8-5.5c-9.2-10.9-12.2-25-9.4-38
		C8.1,44.9,8.2,67.9,21.8,84.1c15.8,18.9,43.9,21.3,62.8,5.5C92.5,82.9,97.6,74.1,99.6,64.7z"/>
	<g class="st6">
		<radialGradient id="SVGID_7_" cx="39.1608" cy="23.6207" r="16.9693" gradientUnits="userSpaceOnUse">
			<stop  offset="7.407410e-03" style="stop-color:#903D8F"/>
			<stop  offset="1" style="stop-color:#6C3681"/>
		</radialGradient>
		<path class="st7" d="M26,35.5c2.3,0.4,4.8,0.4,7.2,0.1c2.4-0.3,4.8-1,7-1.9c2.1-0.9,4-2,5.6-3c0.8-0.5,1.4-1.1,2-1.6
			c0.3-0.2,0.6-0.5,0.8-0.7c0.2-0.2,0.4-0.4,0.6-0.6c0.8-0.8,1.2-1.2,1.2-1.2s0.1-0.1,0.3-0.3c0.2-0.2,0.4-0.6,0.8-1
			c0.3-0.4,0.7-0.9,1.2-1.5c0.4-0.6,0.9-1.3,1.4-2c1.8-2.7,3.8-6.4,5.8-10.1c-1-0.1-1.9-0.1-2.9-0.2c-2,3.2-3.9,6.2-5.5,8.5
			c-0.5,0.7-1,1.3-1.4,1.9c-0.4,0.6-0.8,1-1.1,1.4c-0.3,0.4-0.6,0.7-0.8,0.9c-0.2,0.2-0.3,0.3-0.3,0.3s-0.4,0.4-1,1.1
			c-0.2,0.2-0.4,0.4-0.6,0.6c-0.2,0.2-0.4,0.4-0.7,0.6c-0.5,0.5-1,1-1.7,1.5c-2.6,2.1-6.6,4.2-11.1,5c-2.2,0.4-4.5,0.6-6.6,0.4
			c-2.1-0.2-4-0.7-5.5-1.5c-0.7-0.3-1.2-0.7-1.7-1.1c-0.2,0.3-0.4,0.6-0.6,0.9c0.5,0.5,1,0.9,1.6,1.3C21.7,34.3,23.7,35.1,26,35.5z"
			/>
		<radialGradient id="SVGID_8_" cx="41.0611" cy="18.9351" r="9.3131" gradientUnits="userSpaceOnUse">
			<stop  offset="7.407410e-03" style="stop-color:#903D8F"/>
			<stop  offset="1" style="stop-color:#6C3681"/>
		</radialGradient>
		<path class="st8" d="M30.5,22.2c0.2,0.7,0.6,1.5,1.2,2.2c0.6,0.7,1.4,1.2,2.2,1.5c1.8,0.6,3.4,0.4,4.9,0c1.5-0.4,2.8-1,3.8-1.6
			c1-0.6,1.8-1.3,2.3-1.7c0.5-0.5,0.8-0.7,0.8-0.7s1.1-1.1,2.3-3c0.6-0.9,1.3-2,1.9-3.2c0.6-1.2,1.3-2.4,2-3.6
			c0.1-0.1,0.1-0.3,0.2-0.4c-1.1,0.1-2.1,0.2-3.2,0.4c-0.5,0.7-1,1.5-1.5,2.2c-0.7,1.1-1.4,2.1-2.1,2.9c-1.3,1.6-2.2,2.5-2.2,2.5
			s-0.2,0.2-0.6,0.7c-0.4,0.4-1,1-1.7,1.5C40,22.3,39,22.8,38,23.2c-1.1,0.4-2.4,0.6-3.4,0.4c-1-0.2-1.8-1-2.3-2
			c-0.4-0.9-0.6-1.9-0.7-2.8c-0.5,0.3-1,0.6-1.4,1C30.1,20.5,30.2,21.3,30.5,22.2z"/>
		<radialGradient id="SVGID_9_" cx="43.7439" cy="80.3195" r="21.7983" gradientUnits="userSpaceOnUse">
			<stop  offset="7.407410e-03" style="stop-color:#903D8F"/>
			<stop  offset="1" style="stop-color:#6C3681"/>
		</radialGradient>
		<path class="st9" d="M36.7,94.2c0.1-1.7,1.1-3.2,2.5-4.4c1.5-1.1,3.3-1.9,5.2-2.6c3.9-1.2,8-2.5,11.7-3.6
			c3.7-1.1,7.5-2.2,10.3-4.5c1.4-1.1,2.5-2.4,3.1-4c0.6-1.5,0.7-2.9,0.6-4c-0.1-1.1-0.3-2-0.6-2.5c-0.1-0.3-0.2-0.5-0.3-0.6
			c-0.1-0.1-0.1-0.2-0.1-0.2s-0.1-0.3-0.5-0.8c-0.4-0.5-1-1.3-2.2-1.9c-1.1-0.6-2.9-0.8-4.3-0.4c-0.7,0.2-1.4,0.4-2.1,0.6
			c-0.6,0.2-1.3,0.4-2,0.5c-2.8,0.6-6.4,0.3-10.4,0.3c-2,0-4.2,0.1-6.3,0.6c-2.2,0.5-4.2,1.5-6.1,2.7c-3.6,2.4-6.6,5.2-10,6.9
			c-2.7,1.3-5.5,1.8-8,1.9c0.3,0.5,0.6,1,0.9,1.5c2.5,0,5.3-0.5,8-1.6c3.8-1.7,7-4.5,10.5-6.6c1.7-1,3.5-1.8,5.4-2.2
			c1.9-0.4,3.8-0.4,5.7-0.3c3.8,0.2,7.6,0.6,11,0c0.8-0.1,1.7-0.3,2.4-0.5c0.7-0.2,1.3-0.4,1.8-0.5c1-0.2,1.6,0,2.1,0.2
			c0.5,0.3,0.8,0.6,1,0.9c0.2,0.3,0.3,0.5,0.3,0.5c0,0,0.1,0.1,0.2,0.5c0.2,0.3,0.3,0.9,0.4,1.6c0.1,0.7,0,1.6-0.3,2.5
			c-0.3,0.8-1.1,1.9-2.1,2.7c-1,0.9-2.4,1.7-3.9,2.3c-1.6,0.7-3.3,1.3-5.2,1.9c-3.7,1.3-7.6,2.6-11.6,4c-2,0.8-4,1.7-5.8,3.2
			c-0.9,0.7-1.6,1.6-2.2,2.6c-0.5,1-0.9,2.2-0.9,3.3c0,0.4,0,0.8,0,1.2c0.6,0.3,1.2,0.7,1.9,1C36.7,95.5,36.7,94.9,36.7,94.2z"/>
		<radialGradient id="SVGID_10_" cx="66.384" cy="94.6485" r="12.8275" gradientUnits="userSpaceOnUse">
			<stop  offset="7.407410e-03" style="stop-color:#903D8F"/>
			<stop  offset="1" style="stop-color:#6C3681"/>
		</radialGradient>
		<path class="st10" d="M57.6,95.1l0.6-0.4c0.2-0.1,0.4-0.2,0.6-0.3c1.6-0.8,3.3-1.3,4.8-1.6c1.5-0.3,2.7-0.4,3.6-0.4
			c0.9,0,1.4,0,1.4,0s2-0.1,5.1,0.1c1.6,0.1,3.4,0.3,5.3,0.6c0.5,0.1,0.9,0.1,1.4,0.2c1.1-0.7,2.1-1.5,3.1-2.2
			c-1.3-0.2-2.7-0.5-4-0.8c-2-0.4-3.9-0.7-5.5-0.9c-3.3-0.4-5.5-0.4-5.5-0.4s-0.6,0-1.5,0.1c-1,0.1-2.4,0.3-4.1,0.7
			c-1.7,0.4-3.6,1.1-5.5,2.2c-0.2,0.1-0.5,0.3-0.7,0.4L56,92.8c-0.5,0.3-0.9,0.7-1.3,1c-0.9,0.7-1.6,1.5-2.4,2.4
			c-1.1,1.3-2.1,2.6-3.1,3.8c0.8,0.1,1.7,0.2,2.5,0.3c0.8-0.8,1.6-1.7,2.4-2.5c0.7-0.7,1.5-1.4,2.3-2C56.7,95.6,57.1,95.3,57.6,95.1
			z"/>
		<radialGradient id="SVGID_11_" cx="66.3969" cy="36.7359" r="26.6764" gradientUnits="userSpaceOnUse">
			<stop  offset="7.407410e-03" style="stop-color:#903D8F"/>
			<stop  offset="1" style="stop-color:#6C3681"/>
		</radialGradient>
		<path class="st11" d="M68.5,21.9c-1.2,1.4-2.5,2.8-3.9,4.2c-2.8,2.8-6.2,5.5-9.8,7.7c-1.8,1.1-3.7,2.1-5.5,3
			c-1.9,0.9-3.8,1.7-5.7,2.7c-1.9,1-3.7,2.2-5,3.9c-1.4,1.6-2.3,3.5-2.6,5.4c-0.3,1.9,0.1,3.9,0.9,5.3c0.8,1.5,2,2.4,2.9,3
			c1,0.6,1.8,0.9,2.3,1.1c0.6,0.2,0.9,0.2,0.9,0.2s0.3,0.1,0.9,0.2c0.6,0.1,1.4,0.2,2.4,0.2c1,0,2.3-0.1,3.7-0.3
			c1.4-0.3,2.9-0.7,4.5-1.3c1.6-0.6,3.3-1.5,4.9-2.6c1.7-1.1,3.2-2.4,4.7-3.7c1.5-1.3,3.1-2.5,4.8-3.3c1.7-0.8,3.7-1,5.8-1
			c2.1-0.1,4.3,0.1,6.5-0.2c2.2-0.2,4.4-0.8,6.3-1.7c3.9-1.6,6.9-4.1,9.3-6.3c-0.2-0.4-0.4-0.8-0.6-1.3c-0.1,0.1-0.2,0.1-0.2,0.2
			c-2.5,2-5.6,4.2-9.2,5.5c-1.8,0.7-3.8,1.1-5.8,1.3c-2,0.1-4.1-0.1-6.4-0.1c-2.2,0-4.6,0.1-6.8,1c-2.2,0.9-4,2.3-5.6,3.5
			c-1.6,1.3-3,2.5-4.5,3.4c-1.5,0.9-3,1.6-4.4,2.1c-1.4,0.5-2.8,0.9-4,1.1c-1.2,0.2-2.2,0.2-3,0.2c-0.8,0-1.5-0.1-1.9-0.2
			c-0.4-0.1-0.7-0.1-0.7-0.1s-0.2-0.1-0.6-0.2c-0.4-0.1-1-0.3-1.6-0.7c-0.6-0.4-1.3-0.9-1.9-1.8c-0.5-0.8-0.8-1.9-0.6-3.2
			c0.2-1.3,0.8-2.7,1.8-4c1-1.2,2.4-2.3,4.1-3.3c1.7-1,3.6-1.8,5.5-2.8c1.9-1,3.8-2.1,5.7-3.4c3.7-2.5,7-5.4,9.8-8.4
			c1.4-1.5,2.7-3.1,3.8-4.6c1.1-1.5,2.1-3.1,2.8-4.6c0.5-1.1,0.9-2.2,1.1-3.2c-0.3-0.1-0.7-0.3-1-0.4c-0.3,1-0.7,2-1.3,3.1
			C70.6,19.1,69.6,20.5,68.5,21.9z"/>
		<radialGradient id="SVGID_12_" cx="33.8039" cy="81.737" r="9.4778" gradientUnits="userSpaceOnUse">
			<stop  offset="7.407410e-03" style="stop-color:#903D8F"/>
			<stop  offset="1" style="stop-color:#6C3681"/>
		</radialGradient>
		<path class="st12" d="M40.3,81.4c0.6-0.5,1.2-1,1.7-1.4c0.1-0.1,0.3-0.2,0.4-0.4c0.1-0.1,0.1-0.1,0.3-0.3c0.1-0.1,0.2-0.2,0.3-0.4
			c0.4-0.5,0.7-1,0.9-1.5c0.4-1,0.4-1.9,0.1-2.6c-0.1-0.4-0.4-0.7-0.6-0.9c-0.2-0.1-0.5-0.3-0.7-0.4c-0.1-0.1-0.2-0.1-0.3-0.2
			c-0.1,0-0.3,0-0.4,0c-0.3,0-0.5,0-0.6,0c-0.4,0-0.5,0-0.5,0s-0.2,0-0.6,0.1c-0.2,0-0.4,0.1-0.7,0.1c-0.1,0-0.3,0.1-0.4,0.1
			c-0.1,0-0.2,0.1-0.3,0.1c-0.8,0.2-1.9,0.7-3,1.5c-2.3,1.4-4.7,3.9-6.9,6.2c-1.9,2-4,3.6-6,4.6c0.4,0.4,0.8,0.8,1.1,1.2
			c2.2-0.8,4.5-2.3,6.5-4c2.5-2.2,4.9-4.2,6.9-5.3c1-0.5,1.8-0.8,2.4-1c0.1,0,0.1,0,0.2-0.1c0.1,0,0,0,0,0l0,0c0,0,0,0,0,0s0,0,0,0
			c0,0,0.1,0,0.1,0.1c0,0,0,0,0,0.1c0,0-0.1,0.2-0.4,0.4c-0.5,0.5-1,1-1.6,1.5c-1.1,1-2.3,2.1-3.5,3.2c-3.2,2.8-6.7,5.4-8.5,7
			c0.2,0.2,0.5,0.4,0.8,0.6c2.2-1.1,5.9-3.2,9.3-5.7C37.8,83.3,39.1,82.3,40.3,81.4z"/>
		<radialGradient id="SVGID_13_" cx="69.611" cy="97.7343" r="5.4822" gradientUnits="userSpaceOnUse">
			<stop  offset="7.407410e-03" style="stop-color:#903D8F"/>
			<stop  offset="1" style="stop-color:#6C3681"/>
		</radialGradient>
		<path class="st13" d="M71.1,95.9c0,0-0.9,0.2-2.4,0.6c-1.5,0.4-3.6,1.1-5.3,2.5c-0.4,0.4-0.8,0.8-1.1,1.2
			c5.3-0.7,10.2-2.4,14.7-4.8C73.8,95.6,71.1,95.9,71.1,95.9z"/>
		<radialGradient id="SVGID_14_" cx="95.3453" cy="62.1764" r="5.1561" gradientUnits="userSpaceOnUse">
			<stop  offset="7.407410e-03" style="stop-color:#903D8F"/>
			<stop  offset="1" style="stop-color:#6C3681"/>
		</radialGradient>
		<path class="st14" d="M98.8,57.4c-1.2,0.3-2.8,1-4.2,2c-0.7,0.5-1.4,1-2,1.6c-0.3,0.3-0.6,0.5-0.8,0.8l-0.2,0.2
			c-0.1,0.1-0.2,0.2-0.3,0.3c-0.2,0.2-0.4,0.5-0.5,0.7c-0.6,0.9-0.7,1.8-0.5,2.3c0.1,0.3,0.2,0.5,0.3,0.6c0.1,0.1,0.1,0.2,0.1,0.2
			s0.2,0.3,0.7,0.6c0.2,0.1,0.6,0.3,1,0.4c0.5,0.1,1,0.1,1.5,0.1c1.2,0,2.9,0,4.7-0.4c0.3-0.1,0.5-0.1,0.8-0.2
			c0.2-0.8,0.4-1.5,0.5-2.3c-0.5,0.1-1,0.1-1.6,0.1c-1.5,0-3-0.2-4.1-0.4c-0.1-0.1,0-0.1,0-0.1c0,0-0.1,0.1-0.1,0c0,0,0,0,0,0
			c0,0,0,0,0-0.1l0.1-0.2c0.2-0.3,0.4-0.5,0.6-0.8c0.4-0.5,0.9-1.1,1.4-1.6c1-1.1,2.3-2,3.2-2.7c0.5-0.4,0.9-0.6,1.2-0.9
			c0-0.2,0-0.4,0-0.6C100.2,57,99.6,57.1,98.8,57.4z"/>
		<radialGradient id="SVGID_15_" cx="89.7998" cy="63.8631" r="10.9796" gradientUnits="userSpaceOnUse">
			<stop  offset="7.407410e-03" style="stop-color:#903D8F"/>
			<stop  offset="1" style="stop-color:#6C3681"/>
		</radialGradient>
		<path class="st15" d="M94.7,55.1c-1.9,0.6-3.8,1.1-5.7,1.8c-1.9,0.6-3.6,1.4-5.1,2.3c-0.7,0.4-1.4,1-1.9,1.5
			c-0.5,0.5-0.9,1-1.2,1.4c-0.3,0.4-0.5,0.8-0.7,1c-0.1,0.2-0.2,0.4-0.2,0.4s-0.1,0.1-0.2,0.4c-0.1,0.3-0.3,0.6-0.4,1.1
			c-0.3,1-0.6,2.6-0.2,4.5c0.2,0.9,0.7,1.9,1.4,2.8c0.7,0.9,1.7,1.6,2.7,2c2.1,0.9,4.5,0.9,6.7,0.4c2.2-0.5,4.1-1.6,5.7-2.6
			c0.8-0.5,1.6-1,2.3-1.4c0.2-0.7,0.5-1.4,0.7-2.1c-1.2,0.5-2.5,1.2-3.9,1.8c-1.7,0.8-3.5,1.6-5.3,1.9c-1.8,0.3-3.7,0.1-5-0.6
			c-1.3-0.7-2.1-1.8-2.2-2.9c-0.2-1.1,0.1-2.1,0.3-2.8c0.1-0.3,0.2-0.6,0.3-0.8c0.1-0.2,0.1-0.3,0.1-0.3s0-0.1,0.1-0.3
			c0.1-0.2,0.2-0.4,0.4-0.7c0.4-0.6,1-1.4,2.1-2.2c1.1-0.8,2.5-1.6,4.2-2.3c1.7-0.7,3.6-1.3,5.6-2.2c1.8-0.7,3.4-1.6,5-2.6
			c0-0.7-0.1-1.4-0.1-2.2C98.7,53.6,96.7,54.5,94.7,55.1z"/>
		<radialGradient id="SVGID_16_" cx="12.8885" cy="58.1167" r="2.5272" gradientUnits="userSpaceOnUse">
			<stop  offset="7.407410e-03" style="stop-color:#903D8F"/>
			<stop  offset="1" style="stop-color:#6C3681"/>
		</radialGradient>
		<path class="st16" d="M14,59.8c0.4-0.7,0.4-1.5,0.3-2.2c-0.2-0.7-0.6-1.1-0.8-1.4c-0.2-0.2-0.3-0.3-0.3-0.3c0,0-0.7-0.5-1.6-1
			c0,0.4,0,0.8,0,1.1c0,1.8,0.1,3.6,0.3,5.4c0.1,0,0.3-0.1,0.4-0.1c0.2-0.1,0.3-0.1,0.5-0.2c0.2-0.1,0.4-0.2,0.5-0.3
			C13.5,60.4,13.8,60.1,14,59.8z"/>
		<radialGradient id="SVGID_17_" cx="80.2592" cy="29.5463" r="8.6896" gradientUnits="userSpaceOnUse">
			<stop  offset="7.407410e-03" style="stop-color:#903D8F"/>
			<stop  offset="1" style="stop-color:#6C3681"/>
		</radialGradient>
		<path class="st17" d="M75.3,35.3c0.1-0.2,0.2-0.4,0.3-0.6c0.2-0.4,0.3-0.6,0.3-0.6s0.4-0.9,1.5-2.2c0.5-0.7,1.2-1.4,2-2.4
			c0.7-0.9,1.5-2,2.1-3c1.1-1.8,1.9-3.6,2.5-5.1c-0.4-0.3-0.8-0.6-1.2-1c-0.9,1.4-2,3.1-3.3,4.7c-0.7,0.9-1.5,1.8-2.2,2.5
			c-0.8,0.8-1.6,1.5-2.2,2.1c-0.7,0.7-1.2,1.3-1.6,1.8c-0.4,0.5-0.6,0.8-0.6,0.8s-0.2,0.3-0.4,0.9c-0.1,0.3-0.3,0.7-0.4,1.2
			c0,0.1-0.1,0.3-0.1,0.5c0,0.2,0,0.4-0.1,0.6c-0.1,0.4,0,0.8,0,1.2c0.1,0.4,0.2,0.8,0.3,1.2c0,0.2,0.1,0.4,0.1,0.6l0,0.1
			c0,0,0.1,0,0.1,0l0.2,0l0.3,0c0.4,0,0.9,0.1,1.4,0c0.5,0,0.9-0.1,1.4-0.1c1.2-0.1,2.4-0.4,3.6-0.6c4.9-1,9.3-3.1,9.1-3.6
			c-0.2-0.4-4.8,0.8-9.5,1.2c-1.2,0.1-2.3,0.2-3.4,0.2c-0.2,0-0.3,0-0.3-0.1c-0.1,0,0-0.1,0-0.2C75.3,35.4,75.3,35.4,75.3,35.3z"/>
		<radialGradient id="SVGID_18_" cx="19.3819" cy="54.9694" r="10.7818" gradientUnits="userSpaceOnUse">
			<stop  offset="7.407410e-03" style="stop-color:#903D8F"/>
			<stop  offset="1" style="stop-color:#6C3681"/>
		</radialGradient>
		<path class="st18" d="M12.9,48.1c0.9,2,2.3,3.8,4.1,4.6c1.7,0.9,3.3,1,4.3,1.1c1,0.1,1.5,0,1.5,0s0,0,0.2,0c0,0,0,0,0,0
			c0,0,0,0,0,0c0,0,0,0,0,0l0,0l0,0.1l0,0.2c0,0.1,0,0.2,0,0.3c0.1,0.9,0,2.1-0.4,3.4c-0.7,2.6-2.8,5.6-5.8,7.3
			c-1.3,0.8-2.8,1.3-4.2,1.6c0.1,0.6,0.3,1.2,0.5,1.8c1.5-0.2,3.2-0.7,4.7-1.4c1.8-0.8,3.5-2.1,4.8-3.6c1.3-1.5,2.3-3.2,2.9-4.8
			c0.6-1.6,0.8-3.2,0.8-4.5c0-0.2,0-0.3,0-0.5c0-0.2,0-0.3,0-0.5c0-0.5-0.1-0.9-0.2-1.3c-0.2-0.8-0.3-1.4-0.4-1.8
			c-1.5,0.1-2.3,0.2-2.8,0.2c-0.3,0-0.3,0-0.3,0s-0.5,0-1.3,0c-0.8,0-1.9-0.1-3-0.6c-1.1-0.5-2.1-1.5-2.9-3
			c-0.8-1.5-1.3-3.4-1.6-5.4c0,0,0,0,0,0c-0.6,1.7-1.1,3.5-1.5,5.3C12.5,47.2,12.7,47.6,12.9,48.1z"/>
	</g>
</g>
</svg>
