<?xml version="1.0" encoding="utf-8"?>
<!-- Generator: Adobe Illustrator 24.2.0, SVG Export Plug-In . SVG Version: 6.00 Build 0)  -->
<svg version="1.1" id="Capa_1" xmlns="http://www.w3.org/2000/svg" xmlns:xlink="http://www.w3.org/1999/xlink" x="0px" y="0px"
	 viewBox="0 0 112 112" style="enable-background:new 0 0 112 112;" xml:space="preserve">
<style type="text/css">
	.st0{opacity:0.65;}
	.st1{fill:url(#SVGID_1_);}
	.st2{fill:url(#SVGID_2_);}
	.st3{fill:url(#SVGID_3_);}
	.st4{fill:#F4AF05;}
</style>
<g class="st0">
	
		<radialGradient id="SVGID_1_" cx="-86.0998" cy="359.3311" r="106.8813" gradientTransform="matrix(0.8556 0.5177 -0.5177 0.8556 331.9007 -246.0154)" gradientUnits="userSpaceOnUse">
		<stop  offset="8.148150e-02" style="stop-color:#FFE22E"/>
		<stop  offset="0.9963" style="stop-color:#5CB130"/>
	</radialGradient>
	<circle class="st1" cx="56" cy="56" r="55.2"/>
	
		<radialGradient id="SVGID_2_" cx="-85.7535" cy="368.9657" r="99.2515" gradientTransform="matrix(0.8556 0.5177 -0.5177 0.8556 331.9007 -246.0154)" gradientUnits="userSpaceOnUse">
		<stop  offset="3.703700e-03" style="stop-color:#5CB130"/>
		<stop  offset="0.9185" style="stop-color:#FFE22E"/>
	</radialGradient>
	<path class="st2" d="M107.2,35.2c-1.1,6.2-3.3,12.3-6.7,17.9C85.7,77.6,53.8,85.5,29.3,70.6C15.8,62.5,7.4,49.2,5,34.8
		c-10.3,24.8-1.3,54.1,22.4,68.4c26.1,15.8,60.1,7.4,75.9-18.7C112.7,69.1,113.5,50.8,107.2,35.2z"/>
	
		<radialGradient id="SVGID_3_" cx="-88.982" cy="425.0881" r="99.2592" gradientTransform="matrix(0.2389 0.971 -0.971 0.2389 519.8428 27.3141)" gradientUnits="userSpaceOnUse">
		<stop  offset="3.703700e-03" style="stop-color:#5CB130"/>
		<stop  offset="0.9185" style="stop-color:#FFE22E"/>
	</radialGradient>
	<path class="st3" d="M106.9,77.5c-5.1,3.6-11,6.3-17.4,7.9c-27.8,6.8-55.9-10.2-62.7-38C22.9,32.2,26.4,16.9,34.9,5
		C10,15.2-4.3,42.3,2.4,69.2c7.3,29.6,37.2,47.7,66.8,40.4C86.8,105.3,100.3,93,106.9,77.5z"/>
	<ellipse transform="matrix(0.971 -0.2389 0.2389 0.971 -5.2583 15.3619)" class="st4" cx="60.7" cy="29.4" rx="7.6" ry="7.6"/>
	<g>
		<g>
			<path class="st4" d="M54.1,49.9c0,0.1,0.1,0.2,0.1,0.3c0.5,1.5,1.7,2.8,3.4,2.7c1.6,0,3-1,3.5-2.6c0.1-0.3,0.1-0.6,0.1-0.9
				c0.1-1.4-0.9-2.8-2.2-3.3c-1.2-0.5-2.9-0.4-3.9,0.7c-0.1,0.1-0.2,0.2-0.3,0.3C54.3,47.7,53.8,48.8,54.1,49.9L54.1,49.9z"/>
		</g>
	</g>
	<g>
		<g>
			<path class="st4" d="M72.5,45.8c-0.1,0-0.2,0-0.3-0.1c-1-0.2-2.2,0.1-2.8,1.1c-0.5,1-0.4,2.1,0.3,3c0.1,0.1,0.1,0.2,0.2,0.2
				c1.1,1.3,3.2,0.9,4.1-0.4C74.8,48.3,74.1,46.2,72.5,45.8L72.5,45.8z"/>
		</g>
	</g>
	<g>
		<g>
			<path class="st4" d="M83.5,33.7c5.3,3.2,10.3-5,5-8.2C83.2,22.3,78.2,30.5,83.5,33.7L83.5,33.7z"/>
		</g>
	</g>
	<g>
		<g>
			<path class="st4" d="M87.8,51.9c1.7,1.1,3.4-1.6,1.6-2.7C87.7,48.1,86.1,50.8,87.8,51.9L87.8,51.9z"/>
		</g>
	</g>
	<g>
		<g>
			<path class="st4" d="M40.5,43.5c1.7,1,4.3,0.5,5.2-1.3c1-1.8,0.5-4.1-1.3-5.2c-1.7-1-4.3-0.5-5.2,1.3
				C38.2,40.1,38.7,42.4,40.5,43.5L40.5,43.5z"/>
		</g>
	</g>
	<g>
		<g>
			<path class="st4" d="M42.2,18.1c2.9,1.7,5.6-2.7,2.7-4.5C42.1,11.9,39.3,16.3,42.2,18.1L42.2,18.1z"/>
		</g>
	</g>
	<g>
		<g>
			<path class="st4" d="M31.9,26.1c-0.1,0-0.3,0-0.4,0c-1.7-0.1-3.1,2.1-2.1,3.5c0.1,0.1,0.2,0.2,0.2,0.4c1,1.6,3.5,1.9,4.5,0.1
				C35.1,28.3,33.8,26.2,31.9,26.1L31.9,26.1z"/>
		</g>
	</g>
	<g>
		<g>
			<path class="st4" d="M64.9,15.5c1,0.6,2.4,0.8,3.6,0.5c1.1-0.3,2.4-1.1,2.9-2.1c1.2-2.3,0.7-5.1-1.6-6.5c-1-0.6-2.4-0.8-3.6-0.5
				c-1.1,0.3-2.4,1.1-2.9,2.1C62,11.2,62.6,14.1,64.9,15.5L64.9,15.5z"/>
		</g>
	</g>
	<g>
		<g>
			<path class="st4" d="M66.2,67.8c2.2,1.3,4.3-2.1,2.1-3.5C66.1,63,64,66.5,66.2,67.8L66.2,67.8z"/>
		</g>
	</g>
	<g>
		<g>
			<path class="st4" d="M75.8,64.3c2,1.2,4-1.9,1.9-3.2C75.7,59.9,73.7,63,75.8,64.3L75.8,64.3z"/>
		</g>
	</g>
	<g>
		<g>
			<path class="st4" d="M74.8,37.6c2.2,1.3,4.2-2,2-3.4C74.7,33,72.7,36.3,74.8,37.6L74.8,37.6z"/>
		</g>
	</g>
	<g>
		<g>
			<path class="st4" d="M69.4,24.9c1.9,1.1,3.6-1.8,1.7-2.9C69.3,20.9,67.5,23.8,69.4,24.9L69.4,24.9z"/>
		</g>
	</g>
	<g>
		<g>
			<path class="st4" d="M14,60.1c1.8,1.1,4.4,0.5,5.4-1.3c1-1.9,0.6-4.2-1.3-5.4c-1.8-1.1-4.4-0.5-5.4,1.3
				C11.6,56.5,12.1,58.9,14,60.1L14,60.1z"/>
		</g>
	</g>
	<g>
		<g>
			<path class="st4" d="M27.5,84.8c0.6,0.4,1.2-0.6,0.6-0.9C27.5,83.5,26.9,84.4,27.5,84.8L27.5,84.8z"/>
		</g>
	</g>
	<g>
		<g>
			<path class="st4" d="M38.3,83.9c2.2,1.3,4.3-2.1,2.1-3.5C38.1,79.1,36.1,82.6,38.3,83.9L38.3,83.9z"/>
		</g>
	</g>
	<g>
		<g>
			<path class="st4" d="M39.6,98.6c4.1,2.5,7.9-3.9,3.8-6.3C39.4,89.8,35.5,96.2,39.6,98.6L39.6,98.6z"/>
		</g>
	</g>
	<g>
		<g>
			<path class="st4" d="M22.5,82.6c0-0.1,0-0.2,0-0.3c0.2-1.5-1.9-2.7-3.1-1.9c-0.1,0.1-0.2,0.1-0.2,0.2c-0.7,0.5-1.2,1.1-1.2,1.9
				c0,0.8,0.4,1.5,1.1,1.9c0.7,0.4,1.5,0.4,2.2,0.1C22.1,84.2,22.4,83.5,22.5,82.6L22.5,82.6z"/>
		</g>
	</g>
	<g>
		<g>
			<path class="st4" d="M76.6,84.6c1.2,0.7,3,0.4,3.7-0.9c0.7-1.3,0.4-3-0.9-3.7c-1.2-0.7-3-0.4-3.7,0.9
				C75,82.1,75.3,83.8,76.6,84.6L76.6,84.6z"/>
		</g>
	</g>
	<g>
		<g>
			<path class="st4" d="M85.1,88.3C85.2,88.4,85.3,88.3,85.1,88.3C85.1,88.2,85.1,88.3,85.1,88.3L85.1,88.3z"/>
		</g>
	</g>
	<g>
		<g>
			<path class="st4" d="M94.4,60.7c2,1.2,4-1.9,1.9-3.2C94.3,56.3,92.4,59.5,94.4,60.7L94.4,60.7z"/>
		</g>
	</g>
	<g>
		<g>
			<path class="st4" d="M89.4,90.7c3.1,1.9,5.9-2.9,2.9-4.8C89.2,84.1,86.3,88.8,89.4,90.7L89.4,90.7z"/>
		</g>
	</g>
	<g>
		<g>
			<path class="st4" d="M76.9,61.9c-6.6,10.9-3.1,25,7.8,31.6c2.8,1.7,5.7,2.7,8.7,3.1c3.7-3.4,7.1-7.5,9.8-12
				c5.4-8.9,8-18.8,8-28.6c-0.8-0.7-1.7-1.4-2.7-1.9C97.7,47.5,83.5,51,76.9,61.9z"/>
			<path class="st4" d="M106.5,33.7c-2.4-5.5-5.8-10.6-9.9-15.2c-0.7,0.6-1.4,1.4-1.9,2.2c-2.6,4.3-1.2,9.9,3.1,12.6
				C100.6,35,103.8,35,106.5,33.7z"/>
			<path class="st4" d="M27.4,103.2c2.3,1.4,4.6,2.6,7,3.6c2.1-1.6,4-3.6,5.5-6c6.1-10.1,2.9-23.2-7.2-29.3
				c-9.4-5.7-21.4-3.3-27.9,5.2C9.1,87.4,16.8,96.8,27.4,103.2z"/>
			<path class="st4" d="M4.9,34.9c-2.1,5-3.3,10.1-3.9,15.3c2.5-0.3,4.8-1.7,6.2-4C9.6,42.4,8.5,37.5,4.9,34.9z"/>
			<path class="st4" d="M64.4,104.1c-5-3-11.4-1.4-14.4,3.5c-0.6,1-1,2-1.2,3c6.8,0.9,13.6,0.5,20.1-1.1
				C68.1,107.4,66.6,105.5,64.4,104.1z"/>
			<path class="st4" d="M59.7,94.9c4,2.4,9.2,1.1,11.6-2.9c2.4-4,1.1-9.2-2.9-11.6c-4-2.4-9.2-1.1-11.6,2.9
				C54.4,87.3,55.7,92.5,59.7,94.9z"/>
		</g>
	</g>
</g>
</svg>
