<?xml version="1.0" encoding="utf-8"?>
<!-- Generator: Adobe Illustrator 24.2.0, SVG Export Plug-In . SVG Version: 6.00 Build 0)  -->
<svg version="1.1" id="Capa_1" xmlns="http://www.w3.org/2000/svg" xmlns:xlink="http://www.w3.org/1999/xlink" x="0px" y="0px"
	 viewBox="0 0 425 195" style="enable-background:new 0 0 425 195;" xml:space="preserve">
<style type="text/css">
	.st0{opacity:0.3;fill:#FFFFFF;}
	.st1{fill:#F59B1D;}
	.st2{fill:#FFDC5A;}
	.st3{opacity:0.3;clip-path:url(#XMLID_3_);fill:#CB4E7A;}
	.st4{opacity:0.3;clip-path:url(#XMLID_3_);fill:#754E7A;}
</style>
<g>
	<path class="st0" d="M396.7,171.7l-4.8-1.9c6.2-15.5-60.5-62.4-166.2-105c-48.4-19.5-95.3-34.2-132.2-41.4
		c-40.7-7.9-57.9-4.3-60.3,1.8l-4.8-1.9c5.5-13.6,39-10.2,66.1-4.9c37.2,7.2,84.4,22,133.1,41.7c48.7,19.6,93,41.8,124.8,62.3
		C375.6,137.3,402.2,158.1,396.7,171.7z"/>
	<path class="st1" d="M355.4,155.1l-7.2-2.9c0-0.1,1.1-7.3-32.7-27.9c-24.4-14.8-58.2-31.2-95.2-46.1c-37-14.9-72.8-26.6-100.6-32.8
		c-38.6-8.6-42.9-2.7-42.9-2.6l-7.2-2.9C78,18.9,173.8,51,223.2,71c37.4,15.1,71.6,31.7,96.4,46.7
		C356.3,140,357.6,149.7,355.4,155.1z"/>
	<path class="st2" d="M424.2,182.8l-2.4-1c9-22.3-79.3-79.8-192.7-125.5C172.9,33.7,118.4,16.8,75.5,8.8C33.8,1,7.4,2.6,3.2,13.1
		l-2.4-1c4.8-12,31.5-14,75.2-5.9c43.1,8,97.8,25,154.1,47.7C348.8,101.8,434.1,158.4,424.2,182.8z"/>
	<g>
		<defs>
			<circle id="XMLID_7_" cx="212.5" cy="97.5" r="97.4"/>
		</defs>
		
			<linearGradient id="XMLID_2_" gradientUnits="userSpaceOnUse" x1="65.8723" y1="-853.4621" x2="-53.4415" y2="-734.1483" gradientTransform="matrix(0.9275 0.3738 -0.3738 0.9275 -90.0772 831.4686)">
			<stop  offset="0" style="stop-color:#E83A3D"/>
			<stop  offset="1" style="stop-color:#702473"/>
		</linearGradient>
		<use xlink:href="#XMLID_7_"  style="overflow:visible;fill:url(#XMLID_2_);"/>
		<clipPath id="XMLID_3_">
			<use xlink:href="#XMLID_7_"  style="overflow:visible;"/>
		</clipPath>
		<path class="st3" d="M253.6-78.3c-37.1,33.4-64,79.6-68.8,129.3c-4.8,49.7,14.5,102.5,54.1,133c18.5,14.3,40.5,23.4,62.1,32.5
			c14.9,6.3,30.4,13.2,41,25.4c1.3,1.6,2.7,3.3,2.8,5.4c0.3,4.2-4.2,7-8.1,8.5c-23.6,9.2-50.1,9.1-74.6,2.9
			c-24.5-6.3-47.2-18.4-68.2-32.5c-37.9-25.6-72.2-60.3-85-104.2C95,74.5,110.1,19.8,146.2-14.1c10.9-10.2,23.5-18.6,36.4-26.1
			c15.9-9.3,32.6-17.4,49.7-24.2"/>
		<path class="st4" d="M193.9-56.7c25,58.9,58.6,110.6,146.5,136.4c20.7,6.1,43.3,8,48.6,6.8c-6.7-6.7-37.6-10.6-46.6-13.3
			c-67.9-20-125.1-74.4-149.1-142.1"/>
		<path class="st4" d="M178.7-41.1c25,58.9,58.6,110.6,146.5,136.4c20.7,6.1,43.3,8,48.6,6.8c-6.7-6.7-37.6-10.6-46.6-13.3
			C259.3,69,202.1,14.5,178.1-53.1"/>
		<path class="st4" d="M163.5-25.5C188.5,33.4,222.1,85.1,310,111c20.7,6.1,43.3,8,48.6,6.8c-6.7-6.7-37.6-10.6-46.6-13.3
			c-67.9-20-125.1-74.4-149.1-142.1"/>
		<path class="st4" d="M148.3-9.9c25,58.9,58.6,110.6,146.5,136.4c20.7,6.1,43.3,8,48.6,6.8c-6.7-6.7-37.6-10.6-46.6-13.3
			c-67.9-20-125.1-74.4-149.1-142.1"/>
		<path class="st4" d="M133.1,5.7c25,58.9,58.6,110.6,146.5,136.4c20.7,6.1,43.3,8,48.6,6.8c-6.7-6.7-37.6-10.6-46.6-13.3
			c-67.9-20-125.1-74.4-149.1-142.1"/>
		<path class="st4" d="M117.9,21.3c25,58.9,58.6,110.6,146.5,136.4c20.7,6.1,43.3,8,48.6,6.8c-6.7-6.7-37.6-10.6-46.6-13.3
			c-67.9-20-125.1-74.4-149.1-142.1"/>
		<path class="st4" d="M102.7,36.9c25,58.9,58.6,110.6,146.5,136.4c20.7,6.1,43.3,8,48.6,6.8c-6.7-6.7-37.6-10.6-46.6-13.3
			c-67.9-20-125.1-74.4-149.1-142.1"/>
		<path class="st4" d="M87.5,52.5c25,58.9,58.6,110.6,146.5,136.4c20.7,6.1,43.3,8,48.6,6.8c-6.7-6.7-37.6-10.6-46.6-13.3
			c-67.9-20-125.1-74.4-149.1-142.1"/>
		<path class="st4" d="M72.3,68.1c25,58.9,58.6,110.6,146.5,136.4c20.7,6.1,43.3,8,48.6,6.8c-6.7-6.7-37.6-10.6-46.6-13.3
			c-67.9-20-125.1-74.4-149.1-142.1"/>
	</g>
	<path class="st2" d="M393.1,193.6c-11.7,0-26.5-1.6-44-4.9c-43.1-8-97.8-25-154.1-47.7C76.2,93.2-9.1,36.6,0.8,12.2l2.4,1
		c-9,22.3,79.3,79.8,192.7,125.5c56.2,22.6,110.7,39.5,153.6,47.5c41.7,7.8,68.1,6.2,72.3-4.3l2.4,1
		C421.3,190,410.6,193.6,393.1,193.6z"/>
	<path class="st0" d="M370.2,181.3c-12.2,0-26.7-2.1-39.7-4.7c-37.2-7.2-84.4-22-133.1-41.7c-48.7-19.6-93-41.8-124.8-62.3
		c-23.2-15-49.7-35.8-44.2-49.4l4.8,1.9c-2.4,6.1,7.4,20.6,42.2,43.1c31.5,20.4,75.5,42.3,123.9,61.9
		c48.4,19.5,95.3,34.2,132.2,41.4c40.8,7.9,57.9,4.3,60.3-1.8l4.8,1.9C393.8,178.8,383.4,181.3,370.2,181.3z"/>
	<path class="st1" d="M338,162.1c-7.6,0-18.6-1.3-34.4-4.9c-28.3-6.3-64.4-18.1-101.8-33.2C152.4,104.1,61.1,60.9,69.6,39.9l7.2,2.9
		c0,0.1-1.1,7.3,32.7,27.9c24.4,14.8,58.2,31.2,95.2,46.1c37,14.9,72.8,26.6,100.6,32.8c38.6,8.6,42.8,2.7,42.9,2.6l7.2,2.9
		C354.1,158.5,350.6,162.1,338,162.1z"/>
</g>
</svg>
