<?xml version="1.0" encoding="utf-8"?>
<!-- Generator: Adobe Illustrator 24.2.0, SVG Export Plug-In . SVG Version: 6.00 Build 0)  -->
<svg version="1.1" id="Capa_1" xmlns="http://www.w3.org/2000/svg" xmlns:xlink="http://www.w3.org/1999/xlink" x="0px" y="0px"
	 viewBox="0 0 222 222" style="enable-background:new 0 0 222 222;" xml:space="preserve">
<style type="text/css">
	.st0{opacity:0.75;}
	.st1{fill:url(#SVGID_1_);}
	.st2{fill:url(#SVGID_2_);}
	.st3{fill:url(#SVGID_3_);}
	.st4{fill:#F4AF05;}
</style>
<g class="st0">
	
		<radialGradient id="SVGID_1_" cx="-37.3049" cy="373.7103" r="210.5466" gradientTransform="matrix(0.8556 0.5177 -0.5177 0.8556 368.3162 -266.5469)" gradientUnits="userSpaceOnUse">
		<stop  offset="8.148150e-02" style="stop-color:#FFE22E"/>
		<stop  offset="0.9963" style="stop-color:#F08321"/>
	</radialGradient>
	<circle class="st1" cx="111" cy="110.9" r="108.8"/>
	
		<radialGradient id="SVGID_2_" cx="-36.6229" cy="392.6896" r="195.5164" gradientTransform="matrix(0.8556 0.5177 -0.5177 0.8556 368.3162 -266.5469)" gradientUnits="userSpaceOnUse">
		<stop  offset="3.703700e-03" style="stop-color:#F08321"/>
		<stop  offset="0.9185" style="stop-color:#FFE22E"/>
	</radialGradient>
	<path class="st2" d="M211.9,70c-2.1,12.2-6.5,24.1-13.2,35.3c-29.2,48.3-92,63.7-140.3,34.5c-26.5-16.1-43.1-42.3-47.9-70.6
		C-9.8,118.1,8,175.8,54.7,204c51.4,31.1,118.3,14.7,149.4-36.8C222.6,136.7,224.3,100.7,211.9,70z"/>
	
		<radialGradient id="SVGID_3_" cx="-39.8178" cy="448.8613" r="195.5318" gradientTransform="matrix(0.2389 0.971 -0.971 0.2389 615.1083 15.7696)" gradientUnits="userSpaceOnUse">
		<stop  offset="3.703700e-03" style="stop-color:#F08321"/>
		<stop  offset="0.9185" style="stop-color:#FFE22E"/>
	</radialGradient>
	<path class="st3" d="M211.2,153.4c-10.1,7.1-21.6,12.5-34.3,15.6c-54.8,13.5-110.1-20-123.6-74.8c-7.4-30.1-0.6-60.4,16.1-83.8
		C20.5,30.6-7.7,84.1,5.3,137.1c14.4,58.4,73.3,94,131.7,79.7C171.6,208.2,198.3,183.9,211.2,153.4z"/>
	<path class="st4" d="M133.1,66.2c-4.3,7-13.4,9.3-20.4,5c-7-4.3-9.3-13.4-5-20.4c4.3-7,13.4-9.3,20.4-5S137.3,59.2,133.1,66.2z"/>
	<g>
		<g>
			<path class="st4" d="M107.3,98.9c0.1,0.2,0.1,0.4,0.2,0.5c1,2.9,3.4,5.4,6.7,5.4c3.2-0.1,5.8-2.1,6.9-5.1
				c0.2-0.5,0.2-1.2,0.3-1.8c0.2-2.8-1.8-5.4-4.3-6.5c-2.4-1-5.8-0.8-7.6,1.3c-0.2,0.2-0.3,0.4-0.5,0.6
				C107.7,94.7,106.7,96.9,107.3,98.9L107.3,98.9z"/>
		</g>
	</g>
	<g>
		<g>
			<path class="st4" d="M143.5,91c-0.2,0-0.4-0.1-0.6-0.1c-2-0.4-4.4,0.2-5.5,2.2c-1.1,2-0.8,4.1,0.6,5.8c0.1,0.2,0.3,0.3,0.4,0.5
				c2.1,2.5,6.4,1.8,8-0.9C148,95.8,146.7,91.7,143.5,91L143.5,91z"/>
		</g>
	</g>
	<g>
		<g>
			<path class="st4" d="M165.2,67c10.4,6.3,20.2-9.9,9.8-16.2C164.5,44.5,154.7,60.7,165.2,67L165.2,67z"/>
		</g>
	</g>
	<g>
		<g>
			<path class="st4" d="M173.7,102.9c3.4,2.1,6.7-3.2,3.2-5.3C173.5,95.5,170.3,100.8,173.7,102.9L173.7,102.9z"/>
		</g>
	</g>
	<g>
		<g>
			<path class="st4" d="M80.5,86.4c3.4,2,8.4,1,10.3-2.5c2-3.6,1.1-8.1-2.5-10.3c-3.4-2-8.4-1-10.3,2.5C76,79.7,76.9,84.2,80.5,86.4
				L80.5,86.4z"/>
		</g>
	</g>
	<g>
		<g>
			<path class="st4" d="M83.9,36.3c5.7,3.4,11-5.4,5.3-8.8C83.5,24.1,78.2,32.9,83.9,36.3L83.9,36.3z"/>
		</g>
	</g>
	<g>
		<g>
			<path class="st4" d="M63.5,52c-0.3,0-0.6,0-0.8-0.1c-3.4-0.3-6.1,4.1-4.2,7c0.1,0.2,0.3,0.5,0.4,0.7c2,3.2,6.8,3.7,8.9,0.2
				C69.9,56.3,67.3,52.3,63.5,52L63.5,52z"/>
		</g>
	</g>
	<g>
		<g>
			<path class="st4" d="M128.5,31.2c2,1.2,4.7,1.7,7.1,1.1c2.2-0.5,4.6-2.2,5.8-4.2c2.4-4.4,1.3-10.1-3.2-12.8
				c-2-1.2-4.7-1.7-7.1-1.1c-2.2,0.5-4.6,2.2-5.8,4.2C122.9,22.8,124,28.5,128.5,31.2L128.5,31.2z"/>
		</g>
	</g>
	<g>
		<g>
			<path class="st4" d="M131.2,134.3c4.4,2.6,8.5-4.1,4.1-6.8C130.9,124.8,126.8,131.6,131.2,134.3L131.2,134.3z"/>
		</g>
	</g>
	<g>
		<g>
			<path class="st4" d="M150,127.3c4,2.4,7.8-3.8,3.8-6.2C149.7,118.6,145.9,124.9,150,127.3L150,127.3z"/>
		</g>
	</g>
	<g>
		<g>
			<path class="st4" d="M148.1,74.8c4.3,2.6,8.3-4,4-6.6C147.8,65.6,143.8,72.2,148.1,74.8L148.1,74.8z"/>
		</g>
	</g>
	<g>
		<g>
			<path class="st4" d="M137.4,49.8c3.7,2.2,7.1-3.5,3.4-5.7C137.2,41.9,133.7,47.6,137.4,49.8L137.4,49.8z"/>
		</g>
	</g>
	<g>
		<g>
			<path class="st4" d="M28.2,119c3.5,2.1,8.6,1.1,10.6-2.6c2-3.7,1.1-8.4-2.6-10.6c-3.5-2.1-8.6-1.1-10.6,2.6
				C23.6,112,24.5,116.7,28.2,119L28.2,119z"/>
		</g>
	</g>
	<g>
		<g>
			<path class="st4" d="M54.9,167.7c1.2,0.7,2.3-1.1,1.1-1.8C54.8,165.1,53.7,167,54.9,167.7L54.9,167.7z"/>
		</g>
	</g>
	<g>
		<g>
			<path class="st4" d="M76.1,166c4.4,2.6,8.5-4.1,4.1-6.8C75.8,156.5,71.7,163.3,76.1,166L76.1,166z"/>
		</g>
	</g>
	<g>
		<g>
			<path class="st4" d="M78.7,195c8,4.9,15.6-7.6,7.6-12.5C78.2,177.7,70.7,190.1,78.7,195L78.7,195z"/>
		</g>
	</g>
	<g>
		<g>
			<path class="st4" d="M45,163.5c0-0.2,0-0.4,0.1-0.6c0.4-2.9-3.7-5.4-6.1-3.7c-0.2,0.1-0.3,0.2-0.5,0.3c-1.3,0.9-2.3,2.1-2.3,3.8
				c0,1.6,0.8,3,2.1,3.8c1.3,0.8,3,0.8,4.4,0.1C44.2,166.5,44.8,165.1,45,163.5L45,163.5z"/>
		</g>
	</g>
	<g>
		<g>
			<path class="st4" d="M151.6,167.3c2.4,1.5,6,0.7,7.4-1.8c1.4-2.6,0.8-5.8-1.8-7.4c-2.4-1.5-6-0.7-7.4,1.8
				C148.4,162.5,149,165.7,151.6,167.3L151.6,167.3z"/>
		</g>
	</g>
	<g>
		<g>
			<path class="st4" d="M168.4,174.7c0.1,0.1,0.2-0.1,0.1-0.2C168.4,174.4,168.3,174.6,168.4,174.7L168.4,174.7z"/>
		</g>
	</g>
	<g>
		<g>
			<path class="st4" d="M186.7,120.4c4,2.4,7.8-3.8,3.8-6.2C186.5,111.7,182.7,117.9,186.7,120.4L186.7,120.4z"/>
		</g>
	</g>
	<g>
		<g>
			<path class="st4" d="M176.8,179.3c6,3.6,11.7-5.7,5.7-9.4C176.5,166.3,170.8,175.7,176.8,179.3L176.8,179.3z"/>
		</g>
	</g>
	<g>
		<g>
			<path class="st4" d="M152.3,122.5c-13,21.4-6.1,49.3,15.3,62.3c5.4,3.3,11.3,5.3,17.2,6.1c7.4-6.8,13.9-14.7,19.3-23.7
				c10.7-17.6,15.7-37.1,15.7-56.2c-1.7-1.4-3.4-2.7-5.3-3.8C193.1,94.2,165.2,101.1,152.3,122.5z"/>
			<path class="st4" d="M210.6,67c-4.8-10.8-11.3-21-19.6-29.9c-1.4,1.2-2.7,2.7-3.8,4.4c-5.1,8.5-2.4,19.6,6.1,24.7
				C198.8,69.6,205.3,69.6,210.6,67z"/>
			<path class="st4" d="M54.7,204c4.5,2.7,9.2,5.1,13.9,7.1c4.2-3.1,7.9-7.1,10.8-11.9c12-19.9,5.7-45.7-14.2-57.7
				c-18.5-11.2-42.1-6.4-55,10.2C18.7,172.8,33.8,191.4,54.7,204z"/>
			<path class="st4" d="M10.4,69.5c-4,9.8-6.5,19.9-7.6,30.1c4.9-0.6,9.5-3.4,12.2-7.9C19.5,84.2,17.4,74.5,10.4,69.5z"/>
			<path class="st4" d="M127.6,205.8c-9.8-5.9-22.5-2.8-28.4,7c-1.2,1.9-2,3.9-2.4,6c13.3,1.8,26.8,1,39.7-2.1
				C134.9,212.3,131.9,208.4,127.6,205.8z"/>
			<path class="st4" d="M118.3,187.7c7.9,4.8,18.1,2.2,22.9-5.6c4.8-7.9,2.2-18.1-5.6-22.9c-7.9-4.8-18.1-2.2-22.9,5.6
				C107.9,172.7,110.4,183,118.3,187.7z"/>
		</g>
	</g>
</g>
</svg>
