<?xml version="1.0" encoding="utf-8"?>
<!-- Generator: Adobe Illustrator 24.2.0, SVG Export Plug-In . SVG Version: 6.00 Build 0)  -->
<svg version="1.1" id="Capa_1" xmlns="http://www.w3.org/2000/svg" xmlns:xlink="http://www.w3.org/1999/xlink" x="0px" y="0px"
	 viewBox="0 0 440 280" style="enable-background:new 0 0 440 280;" xml:space="preserve">
<style type="text/css">
	.st0{fill:none;stroke:#FFFFFF;stroke-width:10;stroke-miterlimit:10;}
	.st1{fill:#29265B;}
	.st2{fill:#2A3180;}
	.st3{fill:#1F71B8;}
	.st4{fill:#39A8E0;}
	.st5{fill:#F5F5F5;}
	.st6{fill:#FFDF55;}
	.st7{fill:#FFE496;}
	.st8{fill:#FFE9C9;}
	.st9{fill:#C89D66;}
	.st10{fill:#CABAA0;}
	.st11{fill:#936037;}
	.st12{fill:#B18049;}
	.st13{fill:#FFFFFF;}
</style>
<g>
	<path class="st0" d="M431.2,140.1c-0.6-1.3-1.4-2.5-2.4-3.5c-0.2-0.2-0.4-0.4-0.6-0.5c0.1-0.1,0.2-0.2,0.3-0.3
		c1.3-1.3,1.9-2.9,1.9-4.7c0-1.8-0.7-3.4-1.9-4.7c-1.3-1.3-2.9-1.9-4.7-1.9h-69.8C346.4,57.2,289.3,5,220,5S93.6,57.2,85.9,124.5
		H21.6c-2.2,0-4.3,0.5-6.1,1.6c-1.6,1-3.1,2.2-4.2,3.7c-1.1,1.5-2,3.1-2.6,4.9c-0.6,1.7-0.9,3.5-0.9,5.3c0,1.7,0.3,3.4,0.8,5.2
		c0.5,1.8,1.4,3.4,2.4,4.9c1.1,1.5,2.4,2.8,4,3.8c1.8,1.1,3.8,1.7,6,1.7h64.8C93.6,222.8,150.7,275,220,275s126.4-52.2,134.1-119.5
		H421c1.5,0,3-0.3,4.3-0.8c1.4-0.6,2.6-1.3,3.6-2.4c1-1,1.8-2.2,2.3-3.5c0.6-1.4,0.9-2.8,0.9-4.4C432.1,143,431.8,141.5,431.2,140.1
		z"/>
	<g>
		<circle class="st1" cx="220" cy="140" r="135"/>
		<circle class="st2" cx="220" cy="140" r="134.2"/>
		<circle class="st3" cx="220" cy="140" r="133.3"/>
		<circle class="st4" cx="220" cy="140" r="132.5"/>
		<circle class="st5" cx="220" cy="140" r="131.6"/>
		<circle class="st4" cx="220" cy="140" r="108"/>
		<circle class="st3" cx="220" cy="140" r="107.2"/>
		<circle class="st2" cx="220" cy="140" r="106.3"/>
		<circle class="st1" cx="220" cy="140" r="105.5"/>
	</g>
	<g>
		<g>
			<path class="st6" d="M262.6,66.1c1.1,0,2.2-1,2.1-2.1c-0.1-1.1-0.9-2.1-2.1-2.1c-1.1,0-2.2,1-2.1,2.1
				C260.5,65.1,261.4,66.1,262.6,66.1z"/>
			<path class="st6" d="M291.2,202.8c0.6,0,1.1-0.5,1.1-1.1c0-0.6-0.5-1.1-1.1-1.1c-0.6,0-1.1,0.5-1.1,1.1
				C290.2,202.4,290.6,202.8,291.2,202.8z"/>
			<path class="st7" d="M198.3,60c0.7,0,1.4-0.6,1.4-1.4c0-0.8-0.6-1.4-1.4-1.4c-0.7,0-1.4,0.6-1.4,1.4
				C196.9,59.4,197.5,60,198.3,60z"/>
			<path class="st8" d="M260.7,225.7c0.7,0,1.4-0.6,1.4-1.4c0-0.8-0.6-1.4-1.4-1.4c-0.7,0-1.4,0.6-1.4,1.4
				C259.3,225,259.9,225.7,260.7,225.7z"/>
			<path class="st6" d="M143.4,176.1c0.7,0,1.4-0.6,1.4-1.4c0-0.8-0.6-1.4-1.4-1.4c-0.7,0-1.4,0.6-1.4,1.4
				C142,175.4,142.6,176.1,143.4,176.1z"/>
			<path class="st6" d="M298.6,110c0.7,0,1.4-0.6,1.4-1.4c0-0.8-0.6-1.4-1.4-1.4c-0.7,0-1.4,0.6-1.4,1.4
				C297.2,109.4,297.8,110,298.6,110z"/>
			<path class="st6" d="M164.3,165.5c1.1,0,2.2-1,2.1-2.1c-0.1-1.1-0.9-2.1-2.1-2.1c-1.1,0-2.2,1-2.1,2.1
				C162.2,164.6,163.1,165.5,164.3,165.5z"/>
			<path class="st6" d="M235,207.1c1.1,0,2.2-1,2.1-2.1c-0.1-1.1-0.9-2.1-2.1-2.1c-1.1,0-2.2,1-2.1,2.1
				C232.9,206.1,233.8,207.1,235,207.1z"/>
			<path class="st6" d="M244.6,51.2c-2.7,0-4.8-2.2-4.8-4.9c0-1.2-0.9-2.1-2.1-2.1s-2.1,0.9-2.1,2.1c0,2.7-2.2,4.9-4.8,4.9
				c-1.2,0-2.1,0.9-2.1,2.1v0c0,1.2,0.9,2.1,2.1,2.1c2.7,0,4.8,2.2,4.8,4.9c0,1.2,0.9,2.1,2.1,2.1s2.1-0.9,2.1-2.1
				c0-2.7,2.2-4.9,4.8-4.9c1.2,0,2.1-0.9,2.1-2.1v0C246.7,52.2,245.7,51.2,244.6,51.2z"/>
			<path class="st6" d="M210.7,222.1c-2.7,0-4.8-2.2-4.8-4.9c0-1.2-0.9-2.1-2.1-2.1s-2.1,0.9-2.1,2.1c0,2.7-2.2,4.9-4.8,4.9
				c-1.2,0-2.1,0.9-2.1,2.1v0c0,1.2,0.9,2.1,2.1,2.1c2.7,0,4.8,2.2,4.8,4.9c0,1.2,0.9,2.1,2.1,2.1s2.1-0.9,2.1-2.1
				c0-2.7,2.2-4.9,4.8-4.9c1.2,0,2.1-0.9,2.1-2.1v0C212.8,223,211.8,222.1,210.7,222.1z"/>
			<path class="st8" d="M273.7,184.5c-1.8,0-3.2-1.5-3.2-3.2c0-0.8-0.6-1.4-1.4-1.4s-1.4,0.6-1.4,1.4c0,1.8-1.4,3.2-3.2,3.2
				c-0.8,0-1.4,0.6-1.4,1.4v0c0,0.8,0.6,1.4,1.4,1.4c1.8,0,3.2,1.5,3.2,3.2c0,0.8,0.6,1.4,1.4,1.4s1.4-0.6,1.4-1.4
				c0-1.8,1.4-3.2,3.2-3.2c0.8,0,1.4-0.6,1.4-1.4v0C275.1,185.1,274.4,184.5,273.7,184.5z"/>
			<path class="st7" d="M146.2,102.2c-2.7,0-4.8-2.2-4.8-4.9c0-1.2-0.9-2.1-2.1-2.1s-2.1,0.9-2.1,2.1c0,2.7-2.2,4.9-4.8,4.9
				c-1.2,0-2.1,0.9-2.1,2.1v0c0,1.2,0.9,2.1,2.1,2.1c2.7,0,4.8,2.2,4.8,4.9c0,1.2,0.9,2.1,2.1,2.1s2.1-0.9,2.1-2.1
				c0-2.7,2.2-4.9,4.8-4.9c1.2,0,2.1-0.9,2.1-2.1v0C148.4,103.2,147.4,102.2,146.2,102.2z"/>
			<path class="st6" d="M246.6,179.5c-2.7,0-4.8-2.2-4.8-4.9c0-1.2-0.9-2.1-2.1-2.1s-2.1,0.9-2.1,2.1c0,2.7-2.2,4.9-4.8,4.9
				c-1.2,0-2.1,0.9-2.1,2.1v0c0,1.2,0.9,2.1,2.1,2.1c2.7,0,4.8,2.2,4.8,4.9c0,1.2,0.9,2.1,2.1,2.1s2.1-0.9,2.1-2.1
				c0-2.7,2.2-4.9,4.8-4.9c1.2,0,2.1-0.9,2.1-2.1v0C248.7,180.4,247.7,179.5,246.6,179.5z"/>
			<path class="st6" d="M172.1,66.1c-1.3,0-2.4-1.1-2.4-2.4c0-0.6-0.5-1.1-1.1-1.1s-1.1,0.5-1.1,1.1c0,1.3-1.1,2.4-2.4,2.4
				c-0.6,0-1.1,0.5-1.1,1.1v0c0,0.6,0.5,1.1,1.1,1.1c1.3,0,2.4,1.1,2.4,2.4c0,0.6,0.5,1.1,1.1,1.1s1.1-0.5,1.1-1.1
				c0-1.3,1.1-2.4,2.4-2.4c0.6,0,1.1-0.5,1.1-1.1v0C173.2,66.6,172.7,66.1,172.1,66.1z"/>
			<path class="st7" d="M203.7,170.5c-1.3,0-2.4-1.1-2.4-2.4c0-0.6-0.5-1.1-1.1-1.1s-1.1,0.5-1.1,1.1c0,1.3-1.1,2.4-2.4,2.4
				c-0.6,0-1.1,0.5-1.1,1.1v0c0,0.6,0.5,1.1,1.1,1.1c1.3,0,2.4,1.1,2.4,2.4c0,0.6,0.5,1.1,1.1,1.1s1.1-0.5,1.1-1.1
				c0-1.3,1.1-2.4,2.4-2.4c0.6,0,1.1-0.5,1.1-1.1v0C204.8,170.9,204.3,170.5,203.7,170.5z"/>
			<path class="st6" d="M283.9,84.2c-2.1,0-3.9-1.7-3.9-3.9c0-1.2-0.9-2.1-2.1-2.1c-1.2,0-2.1,0.9-2.1,2.1c0,2.1-1.7,3.9-3.9,3.9
				c-1.2,0-2.1,0.9-2.1,2.1v0c0,1.2,0.9,2.1,2.1,2.1c2.1,0,3.9,1.7,3.9,3.9c0,1.2,0.9,2.1,2.1,2.1c1.2,0,2.1-0.9,2.1-2.1
				c0-2.1,1.7-3.9,3.9-3.9c1.2,0,2.1-0.9,2.1-2.1v0C286,85.2,285,84.2,283.9,84.2z"/>
			<path class="st6" d="M181.3,197.2c-3.2,0-5.8-2.6-5.8-5.8c0-1.7-1.4-3.2-3.2-3.2c-1.7,0-3.2,1.4-3.2,3.2c0,3.2-2.6,5.8-5.8,5.8
				c-1.7,0-3.2,1.4-3.2,3.2v0c0,1.7,1.4,3.2,3.2,3.2c3.2,0,5.8,2.6,5.8,5.8c0,1.7,1.4,3.2,3.2,3.2c1.7,0,3.2-1.4,3.2-3.2
				c0-3.2,2.6-5.8,5.8-5.8c1.7,0,3.2-1.4,3.2-3.2v0C184.5,198.6,183.1,197.2,181.3,197.2z"/>
			<path class="st6" d="M305.7,174.5c-2.1,0-3.9-1.7-3.9-3.9c0-1.2-0.9-2.1-2.1-2.1c-1.2,0-2.1,0.9-2.1,2.1c0,2.1-1.7,3.9-3.9,3.9
				c-1.2,0-2.1,0.9-2.1,2.1v0c0,1.2,0.9,2.1,2.1,2.1c2.1,0,3.9,1.7,3.9,3.9c0,1.2,0.9,2.1,2.1,2.1c1.2,0,2.1-0.9,2.1-2.1
				c0-2.1,1.7-3.9,3.9-3.9c1.2,0,2.1-0.9,2.1-2.1v0C307.8,175.4,306.8,174.5,305.7,174.5z"/>
		</g>
		<g>
			<circle class="st9" cx="244.2" cy="84.9" r="1.9"/>
			<circle class="st10" cx="194.3" cy="105.9" r="3.1"/>
			<circle class="st11" cx="200.5" cy="109" r="1.2"/>
			<path class="st12" d="M256.1,99.6c-1.5-1.8-5.6-4.4-7.6-5.6c-1.6-1-5-2.5-6.8-3.2c-0.6-0.3-1.8-0.8-2.8-1.2
				c-2-8.5-9.6-14.8-18.7-14.8c-5.7,0-10.8,2.5-14.3,6.4c-2.5-0.2-8.1-0.6-10.2-0.5c-2.6,0.1-7.8,0.6-10.2,1.5
				c-2.4,1-3.4,2.3-3.5,3.6c-0.2,2,2.7,5.2,4.4,6.5c2,1.5,6.4,4.1,8.7,5.2c1.4,0.7,5,2.1,7,2.8c2.6,7.5,9.7,12.9,18.1,12.9
				c3.5,0,6.8-0.9,9.6-2.6c-0.1,0-4.8-1.2-6.3-1.7c-3.2-1-8.3-4.2-8.3-4.2s7.1,1.7,9.5,2.2c2.1,0.4,8.5,1.2,8.5,1.2c0,0,0,0,0,0
				c2.7,0.6,8.3,0.8,11.1,0.7c2.3,0,6.8-0.3,9-1c2.5-0.8,4.9-2,4.9-4.2C258.1,102.1,256.9,100.5,256.1,99.6z M201,94.1
				c0,0.8,0,1.5,0.1,2.3c-0.4-0.1-0.8-0.3-1.1-0.4c-1.7-0.8-5-2.8-6.4-4.1c-1-1-3.4-2.8-3.4-4.9c0-2.1,3.8-3,5.4-3.5
				c1.8-0.6,6.4-0.6,8.9-0.5C202.3,86.1,201,89.9,201,94.1z M250,101.3c-0.2,2.2-4.6,3.6-7.7,3.8c-1.6,0.1-4.9,0.3-6.5,0.1h0
				c2.2-3.1,3.5-7,3.5-11.1c0-0.8-0.1-1.6-0.2-2.4c1.7,0.8,5,2.6,6.3,3.5C247.3,96.4,250.2,99.4,250,101.3z"/>
		</g>
	</g>
	<g>
		<g>
			<path class="st2" d="M106.3,111L106.3,111L106.3,111l0,0.1l-1.1,2.6l2.9,0.1l0.1,0l0,0c0,0,0,0,0,0.1s0,0,0,0l-2.6,1.1l1.9,2.1
				c0,0,0,0,0,0c0,0,0,0,0,0.1l0,0l-0.1,0l-2.7-1.1l-0.1,2.9l0,0.1l0,0c0,0,0,0-0.1,0c0,0,0,0,0,0l-1.1-2.6l-2,1.9c0,0,0,0,0,0
				c0,0,0,0-0.1,0l0,0l0-0.1l1.1-2.7l-2.8-0.1l-0.1,0l-0.1,0l0,0c0,0,0,0,0,0c0,0,0,0,0.1,0l2.6-1.1l-1.9-2c0,0,0,0,0-0.1
				c0,0,0,0,0-0.1l0,0l0.1,0l0.1,0l2.6,1.1l0.1-2.8l0-0.1l0-0.1l0,0c0,0,0,0,0,0c0,0,0,0,0,0.1l1.1,2.6l2.1-1.9
				C106.3,111,106.3,111,106.3,111C106.3,111,106.3,111,106.3,111z"/>
			<path class="st3" d="M110.1,105.2c-0.5,0.2-1.2,0.2-1.9,0l-5.1-1.7c-0.7-0.2-1.3-0.6-1.5-1.1c-0.3-0.5-0.3-1.1-0.1-1.8
				c0.2-0.7,0.6-1.2,1.2-1.4c0.5-0.2,1.2-0.2,1.9,0l1,0.3l-0.5,1.4l-1.1-0.4c-0.6-0.2-1,0-1.1,0.5c-0.2,0.5,0,0.8,0.6,1l5.3,1.8
				c0.6,0.2,1,0,1.1-0.5c0.2-0.5,0-0.8-0.6-1l-1.5-0.5l0.5-1.4l1.3,0.4c0.7,0.2,1.3,0.6,1.5,1.1c0.3,0.5,0.3,1.1,0.1,1.8
				S110.6,104.9,110.1,105.2z"/>
			<path class="st3" d="M112.4,98.6c-0.6,0.2-1.2,0.2-2-0.1l-4.9-2c-0.7-0.3-1.2-0.7-1.5-1.3c-0.3-0.5-0.2-1.2,0.1-1.9
				c0.3-0.7,0.7-1.2,1.3-1.4c0.6-0.2,1.2-0.2,2,0.1l4.9,2c0.7,0.3,1.2,0.7,1.5,1.3c0.3,0.5,0.2,1.2-0.1,1.9
				C113.4,97.9,113,98.3,112.4,98.6z M111.7,95.5l-5.1-2c-0.6-0.2-1-0.1-1.2,0.4c-0.2,0.5,0,0.9,0.6,1.1l5.1,2
				c0.6,0.2,1,0.1,1.2-0.4C112.5,96.1,112.3,95.8,111.7,95.5z"/>
			<path class="st3" d="M106.4,88.2l1-2l6.9,2.2l0,0l-6-4l1-2l9,4.4l-0.7,1.3l-6.8-3.3l0,0l6.3,4.4l-0.6,1.2l-7.3-2.3l0,0l6.8,3.3
				l-0.6,1.2L106.4,88.2z"/>
			<path class="st3" d="M110.9,79.5l1.2-2c0.4-0.7,0.9-1.1,1.4-1.2c0.6-0.1,1.2,0,1.9,0.4l0.9,0.5c0.7,0.4,1.1,0.9,1.3,1.4
				c0.2,0.5,0.1,1.2-0.3,1.8l-0.4,0.6l3.5,2l-0.8,1.4L110.9,79.5z M115.9,79.7c0.1-0.2,0.2-0.4,0.1-0.6s-0.2-0.4-0.5-0.5l-1-0.6
				c-0.3-0.2-0.5-0.2-0.7-0.2c-0.2,0-0.3,0.2-0.5,0.4l-0.4,0.6l2.7,1.5L115.9,79.7z"/>
			<path class="st3" d="M115.1,72.4l1.2-1.8l9.3,4.1l-0.9,1.3l-1.8-0.9l0,0l-1,1.5l1.5,1.3l-0.8,1.2L115.1,72.4z M121.6,74.7
				l-4.5-2.1l0,0l3.8,3.3L121.6,74.7z"/>
			<path class="st3" d="M118.2,66c-0.2-0.4-0.3-0.7-0.4-1c0-0.3,0-0.5,0.2-0.7c0.1-0.1,0.2-0.2,0.3-0.3s0.3-0.1,0.4-0.2
				c0.1,0,0.2-0.1,0.3-0.1s0.1-0.1,0.2-0.2c0.1-0.1,0.1-0.2,0.1-0.3s-0.1-0.3-0.2-0.5l0.8-0.3c0.2,0.4,0.3,0.7,0.4,1
				c0,0.3,0,0.5-0.2,0.7c-0.1,0.1-0.2,0.2-0.3,0.3c-0.1,0.1-0.3,0.1-0.4,0.2c-0.1,0-0.2,0.1-0.3,0.1c-0.1,0-0.1,0.1-0.2,0.2
				c-0.1,0.1-0.1,0.2-0.1,0.3c0,0.1,0.1,0.3,0.2,0.5L118.2,66z M118.8,67l1.2-1.6l5.7,2.4l0,0l-4.8-3.6l0.8-1.1l8,6l-1,1.3l-7-2.9
				l0,0l5.8,4.4l-0.8,1.1L118.8,67z"/>
			<path class="st3" d="M122.6,58.4l1.1-1.3l0.3,2.2l-0.8,0.9L122.6,58.4z M123.7,60.6l1-1.2l7.7,6.4l-1,1.2L123.7,60.6z"/>
			<path class="st3" d="M127.6,56.2l1.4-1.6l8.5,5.6l-1.1,1.2l-1.7-1.1l0,0l-1.2,1.3l1.2,1.5l-1,1.1L127.6,56.2z M133.7,59.5
				l-4.1-2.8l0,0l3.2,3.9L133.7,59.5z"/>
			<path class="st3" d="M135,48.7l3.2-2.9l1,1.1l-2,1.8l1.8,2l1.6-1.4l1,1.1l-1.6,1.4l2.1,2.3l2-1.8l1,1.1l-3.2,2.9L135,48.7z"/>
			<path class="st3" d="M146.6,51.1c-0.6-0.1-1.1-0.5-1.6-1.1l-0.4-0.4l1.2-0.9l0.4,0.5c0.4,0.5,0.8,0.6,1.2,0.2
				c0.2-0.2,0.3-0.4,0.3-0.6s-0.1-0.5-0.3-0.7c-0.3-0.3-0.6-0.6-0.9-0.7c-0.3-0.1-0.9-0.2-1.5-0.2c-0.9,0-1.5-0.2-2-0.4
				c-0.5-0.2-0.9-0.5-1.3-1c-0.5-0.6-0.7-1.2-0.7-1.8c0-0.6,0.4-1.1,1-1.6c0.6-0.5,1.2-0.7,1.7-0.6c0.6,0.1,1.1,0.5,1.6,1.1l0.3,0.3
				l-1.2,0.9l-0.3-0.4c-0.2-0.3-0.4-0.4-0.6-0.5c-0.2,0-0.4,0-0.6,0.2c-0.4,0.3-0.4,0.7,0,1.2c0.2,0.3,0.5,0.5,0.9,0.6
				c0.3,0.1,0.9,0.2,1.5,0.2c0.9,0,1.5,0.2,2,0.4c0.5,0.2,0.9,0.6,1.3,1c0.5,0.6,0.7,1.3,0.7,1.9c0,0.6-0.4,1.1-1,1.6
				C147.8,51,147.2,51.2,146.6,51.1z"/>
			<path class="st3" d="M146.2,39.4l1.9-1.3c0.6-0.5,1.2-0.6,1.8-0.5c0.6,0.1,1.1,0.5,1.5,1.2l0.6,0.8c0.5,0.7,0.7,1.3,0.6,1.8
				c-0.1,0.6-0.4,1.1-1.1,1.5l-0.6,0.4l2.4,3.3l-1.3,0.9L146.2,39.4z M150.7,41.7c0.2-0.1,0.3-0.3,0.3-0.5c0-0.2-0.1-0.4-0.3-0.7
				l-0.7-1c-0.2-0.3-0.4-0.4-0.6-0.5c-0.2,0-0.4,0-0.6,0.2l-0.6,0.4l1.8,2.5L150.7,41.7z"/>
			<path class="st3" d="M153,34.7l1.8-1.1l6.7,7.6l-1.3,0.8l-1.3-1.5l0,0l-1.5,0.9l0.8,1.8l-1.2,0.8L153,34.7z M158,39.5l-3.2-3.8
				l0,0l2,4.6L158,39.5z"/>
			<path class="st3" d="M158.6,30.2c0-0.4,0-0.8,0.1-1.1c0.1-0.3,0.3-0.5,0.5-0.6c0.2-0.1,0.3-0.1,0.4-0.2c0.1,0,0.3,0,0.5,0
				c0.1,0,0.2,0,0.3,0c0.1,0,0.2,0,0.2-0.1c0.1-0.1,0.2-0.1,0.2-0.3c0-0.1,0-0.3,0-0.5l0.9,0c0,0.4,0,0.8-0.1,1.1
				c-0.1,0.3-0.3,0.5-0.5,0.6c-0.2,0.1-0.3,0.1-0.4,0.2c-0.1,0-0.3,0-0.5,0c-0.1,0-0.2,0-0.3,0c-0.1,0-0.2,0-0.2,0.1
				c-0.1,0.1-0.2,0.1-0.2,0.3c0,0.1,0,0.3,0,0.5L158.6,30.2z M158.7,31.3l1.7-0.9l4.2,4.5l0,0l-2.8-5.3L163,29l4.8,8.8l-1.4,0.8
				l-5.1-5.5l0,0l3.5,6.4l-1.2,0.7L158.7,31.3z"/>
			<path class="st3" d="M170.3,36c-0.6-0.2-1-0.7-1.3-1.4l-2.2-4.8c-0.3-0.7-0.4-1.4-0.2-1.9c0.2-0.6,0.6-1,1.3-1.3
				c0.7-0.3,1.3-0.4,1.9-0.1c0.6,0.2,1,0.7,1.3,1.4l2.2,4.8c0.3,0.7,0.4,1.4,0.2,1.9c-0.2,0.6-0.6,1-1.3,1.3
				C171.5,36.1,170.9,36.2,170.3,36z M171.9,33.3l-2.3-5c-0.3-0.6-0.7-0.8-1.2-0.6c-0.5,0.2-0.6,0.6-0.3,1.2l2.3,5
				c0.3,0.6,0.7,0.8,1.2,0.6C172.1,34.3,172.2,33.9,171.9,33.3z"/>
			<path class="st3" d="M173,24.4l1.5-0.6l3.1,8l2.4-0.9l0.5,1.3l-3.9,1.5L173,24.4z"/>
			<path class="st3" d="M180.7,21.6l2-0.7l4.6,9l-1.5,0.5l-0.9-1.8l0,0l-1.7,0.5l0.3,2l-1.4,0.4L180.7,21.6z M184.3,27.4l-2.2-4.5
				l0,0l0.9,4.9L184.3,27.4z"/>
			<path class="st3" d="M190.9,18.7l2.3-0.5c0.8-0.2,1.4-0.1,1.9,0.2c0.5,0.3,0.8,0.9,1,1.7l1.1,4.9c0.2,0.8,0.1,1.4-0.2,1.9
				c-0.3,0.5-0.8,0.8-1.6,1l-2.3,0.5L190.9,18.7z M195,26.5c0.3-0.1,0.4-0.2,0.5-0.4s0.1-0.4,0-0.8l-1.1-5.1
				c-0.1-0.3-0.2-0.6-0.4-0.7c-0.2-0.1-0.4-0.2-0.6-0.1l-0.8,0.2l1.5,7L195,26.5z"/>
			<path class="st3" d="M198.5,17.1l4.2-0.7l0.2,1.4l-2.7,0.4l0.4,2.6l2.1-0.3l0.2,1.4l-2.1,0.3l0.5,3l2.7-0.4l0.2,1.4l-4.2,0.7
				L198.5,17.1z"/>
			<path class="st3" d="M209.7,15.7l4.3-0.3l0.1,1.4l-2.7,0.2l0.2,2.6l2.2-0.1l0.1,1.4l-2.2,0.1l0.2,3.1l2.7-0.2l0.1,1.4l-4.3,0.3
				L209.7,15.7z"/>
			<path class="st3" d="M218.3,20.2l-1.8-4.9l1.7,0l1.1,3.2l0,0l1-3.2l1.5,0l-1.6,4.9l1.9,5.1l-1.7,0l-1.2-3.5l0,0l-1.1,3.5l-1.5,0
				L218.3,20.2z"/>
			<path class="st3" d="M224.7,15.3l2.3,0.1c0.8,0,1.4,0.3,1.7,0.7c0.4,0.4,0.5,1.1,0.5,1.9l-0.1,1c0,0.8-0.3,1.4-0.7,1.8
				c-0.4,0.4-1,0.6-1.8,0.5l-0.7,0l-0.2,4.1l-1.6-0.1L224.7,15.3z M226.8,19.9c0.3,0,0.5,0,0.6-0.2c0.1-0.1,0.2-0.4,0.2-0.7l0.1-1.2
				c0-0.3,0-0.6-0.2-0.7c-0.1-0.1-0.3-0.2-0.6-0.2l-0.7,0l-0.2,3.1L226.8,19.9z"/>
			<path class="st3" d="M232.3,15.8l1.6,0.2l-1,8.5l2.6,0.3l-0.2,1.4l-4.1-0.5L232.3,15.8z"/>
			<path class="st3" d="M237.9,26.1c-0.3-0.5-0.4-1.1-0.3-1.9l0.9-5.2c0.1-0.8,0.4-1.4,0.9-1.7c0.5-0.4,1.1-0.5,1.9-0.3
				c0.8,0.1,1.3,0.4,1.6,0.9c0.3,0.5,0.4,1.1,0.3,1.9l-0.9,5.2c-0.1,0.8-0.4,1.4-0.9,1.7c-0.5,0.4-1.1,0.5-1.9,0.3
				C238.8,26.9,238.3,26.6,237.9,26.1z M240.8,24.8l0.9-5.4c0.1-0.6-0.1-1-0.6-1.1c-0.5-0.1-0.9,0.2-1,0.8l-0.9,5.4
				c-0.1,0.6,0.1,1,0.6,1.1C240.4,25.7,240.7,25.5,240.8,24.8z"/>
			<path class="st3" d="M246.7,18.1l2.3,0.5c0.8,0.2,1.3,0.5,1.6,1c0.3,0.5,0.3,1.1,0.1,1.8l-0.1,0.6c-0.2,1-0.7,1.6-1.5,1.7l0,0
				c0.3,0.2,0.6,0.5,0.6,0.9c0.1,0.4,0,0.9-0.1,1.4l-0.4,1.7c-0.1,0.3-0.1,0.5-0.1,0.7c0,0.2,0,0.4,0,0.5l-1.6-0.4
				c0-0.2,0-0.3,0-0.5c0-0.1,0.1-0.4,0.2-0.8l0.4-1.8c0.1-0.4,0.1-0.8,0-1c-0.1-0.2-0.3-0.4-0.7-0.4l-0.5-0.1l-1,4.2l-1.5-0.4
				L246.7,18.1z M247.8,22.8c0.3,0.1,0.6,0,0.7-0.1c0.2-0.1,0.3-0.4,0.4-0.7l0.2-0.8c0.1-0.4,0.1-0.6,0-0.8
				c-0.1-0.2-0.3-0.3-0.5-0.4l-0.7-0.2l-0.7,2.8L247.8,22.8z"/>
			<path class="st3" d="M255.4,20.4l2,0.6l-1.4,10l-1.5-0.5l0.3-2l0,0l-1.7-0.5l-0.8,1.8l-1.4-0.4L255.4,20.4z M255.1,27.2l0.8-4.9
				l0,0l-2.1,4.5L255.1,27.2z"/>
			<path class="st3" d="M258.8,31.4c-0.2-0.5-0.2-1.2,0.1-1.9l1.9-5c0.3-0.7,0.7-1.2,1.2-1.5c0.5-0.3,1.1-0.3,1.8,0
				c0.7,0.3,1.2,0.7,1.4,1.2c0.2,0.5,0.2,1.2-0.1,1.9l-0.4,1l-1.4-0.5l0.4-1.1c0.2-0.6,0.1-1-0.4-1.1c-0.5-0.2-0.8,0-1.1,0.6l-2,5.2
				c-0.2,0.6-0.1,0.9,0.4,1.1c0.5,0.2,0.8,0,1.1-0.6l0.5-1.4l1.4,0.5l-0.5,1.3c-0.3,0.7-0.7,1.2-1.2,1.5c-0.5,0.3-1.1,0.3-1.8,0
				C259.5,32.4,259,32,258.8,31.4z"/>
			<path class="st3" d="M268.5,25l1.4,0.6l-4,9.2l-1.4-0.6L268.5,25z"/>
			<path class="st3" d="M269.1,35.7c-0.2-0.6-0.1-1.2,0.3-1.9l2.3-4.7c0.4-0.7,0.8-1.2,1.4-1.4c0.6-0.2,1.2-0.1,1.9,0.2
				c0.7,0.3,1.1,0.8,1.3,1.4c0.2,0.6,0.1,1.2-0.3,1.9l-2.3,4.7c-0.4,0.7-0.8,1.2-1.4,1.4c-0.6,0.2-1.2,0.2-1.9-0.2
				C269.7,36.7,269.3,36.2,269.1,35.7z M272.2,35.2l2.4-4.9c0.3-0.6,0.2-1-0.3-1.2c-0.5-0.2-0.9-0.1-1.2,0.5l-2.4,4.9
				c-0.3,0.6-0.2,1,0.3,1.2C271.5,36,271.9,35.8,272.2,35.2z"/>
			<path class="st3" d="M279.8,30.4l1.7,1l-1.6,6l0,0l3-5.2l1.2,0.7l-5,8.7l-1.4-0.8l2-7.3l0,0l-3.6,6.3l-1.2-0.7L279.8,30.4z"/>
			<path class="st3" d="M286.8,34.6l3.6,2.4l-0.8,1.2l-2.3-1.5l-1.5,2.2l1.8,1.2l-0.8,1.2l-1.8-1.2l-1.7,2.6l2.3,1.5l-0.8,1.2
				l-3.6-2.4L286.8,34.6z"/>
			<path class="st3" d="M287.3,46.4c-0.1-0.6,0.2-1.2,0.6-1.8l0.3-0.5l1.2,0.9l-0.4,0.5c-0.4,0.5-0.4,0.9,0.1,1.3
				c0.2,0.2,0.4,0.2,0.6,0.2c0.2,0,0.4-0.2,0.6-0.5c0.3-0.3,0.4-0.7,0.4-1.1s0-0.9-0.2-1.6c-0.2-0.8-0.2-1.5-0.2-2.1
				c0.1-0.5,0.3-1,0.6-1.5c0.5-0.6,1-1,1.6-1.1c0.6-0.1,1.2,0.1,1.8,0.5c0.6,0.4,0.9,1,1,1.5c0.1,0.6-0.2,1.2-0.6,1.8l-0.2,0.3
				l-1.2-0.9l0.3-0.4c0.2-0.3,0.3-0.5,0.3-0.7c0-0.2-0.1-0.4-0.3-0.5c-0.4-0.3-0.8-0.2-1.2,0.3c-0.2,0.3-0.3,0.6-0.4,1
				c0,0.4,0,0.9,0.2,1.6c0.2,0.9,0.2,1.5,0.2,2.1s-0.3,1-0.7,1.5c-0.5,0.7-1,1-1.6,1.2c-0.6,0.1-1.2-0.1-1.8-0.5
				C287.7,47.5,287.4,47,287.3,46.4z"/>
			<path class="st3" d="M295.7,53.1c0-0.6,0.3-1.2,0.8-1.8l3.5-3.9c0.5-0.6,1.1-0.9,1.7-1c0.6-0.1,1.2,0.2,1.7,0.7
				c0.6,0.5,0.9,1.1,0.9,1.6c0,0.6-0.3,1.2-0.8,1.8l-0.6,0.6l-1.1-1l0.6-0.7c0.4-0.5,0.5-0.9,0.1-1.3c-0.4-0.4-0.8-0.3-1.3,0.2
				l-3.7,4.1c-0.4,0.5-0.4,0.9,0,1.3c0.4,0.4,0.8,0.3,1.3-0.2l1.3-1.5l-0.6-0.5l1-1.1l1.7,1.5l-2.2,2.4c-0.5,0.6-1.1,0.9-1.7,1
				c-0.6,0.1-1.2-0.2-1.7-0.7C296,54.2,295.7,53.7,295.7,53.1z"/>
			<path class="st3" d="M308.2,51.7l1.5,1.5l-6,8.2l-1.1-1.1l1.2-1.6l0,0l-1.3-1.3l-1.6,1.2l-1-1L308.2,51.7z M304.6,57.6l3-4l0,0
				l-4,3L304.6,57.6z"/>
			<path class="st3" d="M312.6,56.4l1,1.2l-6.4,5.6l1.7,1.9l-1.1,0.9l-2.7-3.1L312.6,56.4z"/>
			<path class="st3" d="M317.9,62.7l1.3,1.7l-6.9,7.4l-1-1.2l1.4-1.4l0,0l-1.1-1.4l-1.7,1l-0.9-1.2L317.9,62.7z M313.7,68.2l3.5-3.6
				l0,0l-4.3,2.5L313.7,68.2z M320.5,62.3l1.1,1.4l-2.2-0.2l-0.7-0.9L320.5,62.3z"/>
			<path class="st3" d="M314.3,73.7c0.1-0.6,0.5-1.1,1.2-1.5l4.4-3c0.6-0.4,1.3-0.6,1.8-0.5c0.6,0.1,1.1,0.4,1.5,1.1
				c0.4,0.6,0.6,1.2,0.4,1.8c-0.1,0.6-0.5,1.1-1.2,1.5l-0.9,0.6l-0.8-1.2l1-0.7c0.5-0.3,0.6-0.7,0.3-1.2c-0.3-0.4-0.7-0.5-1.2-0.1
				l-4.6,3.2c-0.5,0.3-0.6,0.7-0.3,1.2c0.3,0.4,0.7,0.5,1.2,0.1l1.3-0.9l0.8,1.2l-1.2,0.8c-0.6,0.4-1.3,0.6-1.8,0.5
				c-0.6-0.1-1.1-0.4-1.5-1.1C314.3,74.9,314.2,74.3,314.3,73.7z"/>
			<path class="st3" d="M325.4,75.9l-0.8-1.4l1.2-0.7l2.5,4.2l-1.2,0.7l-0.8-1.4l-7.4,4.4l-0.8-1.3L325.4,75.9z"/>
			<path class="st3" d="M329.6,80.3l0.7,1.4l-8.8,4.7l-0.7-1.4L329.6,80.3z"/>
			<path class="st3" d="M323.4,89c0.2-0.5,0.7-1,1.4-1.3l4.8-2.3c0.7-0.3,1.3-0.4,1.9-0.2c0.6,0.2,1,0.6,1.3,1.3
				c0.3,0.7,0.4,1.3,0.2,1.8c-0.2,0.5-0.7,1-1.4,1.3l-1,0.5l-0.6-1.3l1-0.5c0.6-0.3,0.7-0.6,0.5-1.1c-0.2-0.5-0.6-0.6-1.2-0.3
				l-5,2.4c-0.5,0.3-0.7,0.6-0.5,1.1c0.2,0.5,0.6,0.6,1.2,0.3l1.4-0.7l0.6,1.3l-1.3,0.6c-0.7,0.3-1.3,0.4-1.9,0.2
				c-0.6-0.2-1-0.6-1.3-1.3C323.2,90.1,323.2,89.5,323.4,89z"/>
			<path class="st3" d="M335.3,92.4l0.8,2l-8.7,5.3l-0.6-1.5l1.7-1l0,0l-0.7-1.7L326,96l-0.5-1.4L335.3,92.4z M329.8,96.5l4.3-2.5
				l0,0l-4.8,1.2L329.8,96.5z"/>
			<path class="st3" d="M328.8,101.8c0.3-0.5,0.8-0.9,1.6-1.1l0.5-0.2l0.5,1.4l-0.6,0.2c-0.6,0.2-0.8,0.6-0.7,1.1
				c0.1,0.3,0.2,0.4,0.4,0.5c0.2,0.1,0.5,0.1,0.8,0c0.4-0.1,0.7-0.3,1-0.6c0.2-0.3,0.5-0.7,0.8-1.4c0.3-0.8,0.7-1.4,1-1.8
				c0.4-0.4,0.8-0.7,1.4-0.9c0.7-0.3,1.4-0.3,1.9,0s0.9,0.7,1.2,1.4c0.2,0.7,0.2,1.3-0.1,1.8c-0.3,0.5-0.8,0.9-1.6,1.1l-0.4,0.1
				l-0.5-1.4l0.5-0.2c0.3-0.1,0.5-0.3,0.6-0.4c0.1-0.2,0.1-0.4,0-0.6c-0.2-0.5-0.6-0.6-1.2-0.4c-0.3,0.1-0.6,0.3-0.9,0.6
				s-0.5,0.7-0.7,1.4c-0.3,0.8-0.7,1.4-1,1.8c-0.4,0.4-0.8,0.7-1.4,0.9c-0.8,0.3-1.4,0.3-2,0c-0.5-0.2-0.9-0.7-1.2-1.5
				C328.5,102.9,328.5,102.3,328.8,101.8z"/>
			<path class="st2" d="M335.4,119.1L335.4,119.1L335.4,119.1l-0.1-0.1l-0.1-2.8l-2.7,1.1l-0.1,0l0,0c0,0,0,0,0-0.1c0,0,0,0,0,0
				l1.9-2l-2.6-1.1c0,0,0,0,0,0c0,0,0,0,0,0l0,0l0.1,0l2.9-0.1l-1.1-2.7l0-0.1l0,0c0,0,0,0,0.1,0c0,0,0,0,0,0l2.1,1.9l1.1-2.6
				c0,0,0,0,0,0c0,0,0,0,0,0l0,0l0,0.1l0.1,2.9l2.6-1.1l0.1,0l0.1,0l0,0c0,0,0,0,0,0c0,0,0,0,0,0.1l-1.9,2.1l2.6,1.1c0,0,0,0,0.1,0
				s0,0,0,0l0,0l-0.1,0l-0.1,0l-2.8,0.1l1.1,2.6l0,0.1l0,0.1l0,0c0,0,0,0-0.1,0c0,0,0,0-0.1,0l-2-1.9L335.4,119.1
				C335.5,119,335.5,119,335.4,119.1C335.4,119.1,335.4,119.1,335.4,119.1z"/>
		</g>
		<g>
			<path class="st2" d="M333,171.4L333,171.4L333,171.4l0-0.1l1.1-2.6l-2.9-0.2l-0.1,0l0,0c0,0,0,0,0,0c0,0,0,0,0,0l2.6-1l-1.9-2.1
				c0,0,0,0,0,0c0,0,0,0,0-0.1l0,0l0.1,0l2.6,1.2l0.2-2.9l0-0.1l0,0c0,0,0,0,0.1,0c0,0,0,0,0,0l1,2.6l2.1-1.9c0,0,0,0,0,0
				c0,0,0,0,0.1,0l0,0l0,0.1l-1.2,2.6l2.8,0.2l0.1,0l0.1,0l0,0c0,0,0,0,0,0c0,0,0,0-0.1,0l-2.6,1l1.9,2.1c0,0,0,0,0,0.1
				c0,0,0,0,0,0.1l0,0l-0.1,0l-0.1,0l-2.6-1.1l-0.2,2.8l0,0.1l0,0.1l0,0c0,0,0,0,0,0c0,0,0,0,0-0.1l-1-2.6l-2.1,1.9
				C333.1,171.4,333.1,171.4,333,171.4C333,171.4,333,171.4,333,171.4z"/>
			<path class="st3" d="M329,177.7c0.5-0.2,1.2-0.2,1.9,0.1l5.1,1.8c0.7,0.3,1.2,0.7,1.5,1.2s0.3,1.1,0,1.8
				c-0.3,0.7-0.7,1.2-1.2,1.4c-0.5,0.2-1.2,0.2-1.9-0.1l-1-0.4l0.5-1.4l1.1,0.4c0.6,0.2,1,0.1,1.1-0.4c0.2-0.5,0-0.8-0.6-1.1
				l-5.3-1.9c-0.6-0.2-0.9-0.1-1.1,0.4c-0.2,0.5,0,0.8,0.6,1l1.4,0.5l-0.5,1.4l-1.3-0.5c-0.7-0.3-1.2-0.7-1.5-1.2
				c-0.3-0.5-0.3-1.1,0-1.8C328,178.4,328.4,177.9,329,177.7z"/>
			<path class="st3" d="M326.5,184.1c0.6-0.2,1.2-0.1,1.9,0.2l4.8,2.1c0.7,0.3,1.2,0.8,1.5,1.3s0.2,1.2-0.1,1.9
				c-0.3,0.7-0.7,1.2-1.3,1.4c-0.6,0.2-1.2,0.1-1.9-0.2l-4.8-2.1c-0.7-0.3-1.2-0.8-1.5-1.3c-0.2-0.5-0.2-1.2,0.1-1.9
				C325.5,184.7,326,184.3,326.5,184.1z M327.1,187.2l5,2.2c0.6,0.3,1,0.1,1.2-0.4s0-0.9-0.6-1.1l-5-2.2c-0.6-0.3-1-0.1-1.2,0.4
				C326.3,186.5,326.5,186.9,327.1,187.2z"/>
			<path class="st3" d="M332.3,194.4l-1,2l-6.8-2.4l0,0l5.9,4.2l-1,2l-8.9-4.6l0.7-1.3l6.7,3.5l0,0l-6.2-4.5l0.6-1.2l7.2,2.5l0,0
				l-6.7-3.5l0.6-1.2L332.3,194.4z"/>
			<path class="st3" d="M327.8,202.9l-1.2,2c-0.4,0.7-0.9,1.1-1.5,1.2c-0.6,0.1-1.2,0-1.9-0.5l-0.8-0.5c-0.7-0.4-1.1-0.9-1.3-1.5
				c-0.2-0.6,0-1.2,0.4-1.8l0.4-0.6l-3.5-2.1l0.8-1.3L327.8,202.9z M322.7,202.6c-0.1,0.2-0.2,0.4-0.1,0.6c0.1,0.2,0.2,0.4,0.5,0.5
				l1,0.6c0.3,0.2,0.5,0.2,0.7,0.2c0.2,0,0.3-0.2,0.5-0.4l0.4-0.6l-2.6-1.6L322.7,202.6z"/>
			<path class="st3" d="M323.4,209.8l-1.2,1.8l-9.2-4.3l0.9-1.3l1.8,0.9l0,0l1-1.5l-1.5-1.3l0.8-1.2L323.4,209.8z M316.9,207.4
				l4.5,2.2l0,0l-3.7-3.4L316.9,207.4z"/>
			<path class="st3" d="M319.7,215l-1.2,1.6l-5.7-2.5l0,0l4.7,3.7l-0.9,1.1l-7.9-6.2l1-1.3l6.9,3l0,0L311,210l0.9-1.1L319.7,215z
				 M320.2,216.1c0.2,0.4,0.3,0.7,0.4,1c0,0.3,0,0.5-0.2,0.7c-0.1,0.1-0.2,0.2-0.3,0.3c-0.1,0.1-0.3,0.1-0.4,0.2
				c-0.1,0-0.2,0.1-0.3,0.1c-0.1,0-0.1,0.1-0.2,0.1c-0.1,0.1-0.1,0.2-0.1,0.3c0,0.1,0.1,0.3,0.2,0.5l-0.8,0.3
				c-0.2-0.4-0.3-0.7-0.4-1c0-0.3,0-0.5,0.2-0.7c0.1-0.1,0.2-0.2,0.3-0.3c0.1-0.1,0.3-0.1,0.4-0.2c0.1,0,0.2-0.1,0.3-0.1
				c0.1,0,0.1-0.1,0.2-0.1c0.1-0.1,0.1-0.2,0.1-0.3c0-0.1-0.1-0.3-0.2-0.5L320.2,216.1z"/>
			<path class="st3" d="M314.7,221.2l-1,1.2l-7.6-6.6l1-1.2L314.7,221.2z M315.9,223.4l-1.1,1.3l-0.2-2.2l0.8-0.9L315.9,223.4z"/>
			<path class="st3" d="M310.9,225.5l-1.5,1.5l-8.4-5.7l1.1-1.1l1.6,1.2l0,0l1.2-1.3l-1.2-1.6l1-1.1L310.9,225.5z M304.8,222.1
				l4.1,2.9l0,0l-3.1-3.9L304.8,222.1z"/>
			<path class="st3" d="M303.5,232.7l-3.2,2.8l-0.9-1.1l2-1.8l-1.7-2l-1.6,1.4L297,231l1.6-1.4l-2-2.3l-2,1.8l-0.9-1.1l3.2-2.8
				L303.5,232.7z"/>
			<path class="st3" d="M292,230c0.6,0.1,1.1,0.5,1.6,1.1l0.4,0.5l-1.2,0.9l-0.4-0.5c-0.4-0.5-0.8-0.6-1.2-0.3
				c-0.2,0.2-0.3,0.4-0.3,0.6c0,0.2,0.1,0.5,0.3,0.7c0.3,0.3,0.6,0.6,0.9,0.7c0.3,0.1,0.9,0.2,1.5,0.3c0.9,0.1,1.5,0.2,2,0.4
				c0.5,0.2,0.9,0.5,1.3,1c0.5,0.6,0.7,1.2,0.7,1.8c0,0.6-0.4,1.1-1,1.6c-0.6,0.5-1.2,0.6-1.7,0.5c-0.6-0.1-1.1-0.5-1.6-1.1
				l-0.3-0.3l1.2-0.9l0.3,0.4c0.2,0.3,0.4,0.4,0.6,0.5c0.2,0,0.4,0,0.6-0.2c0.4-0.3,0.4-0.7,0-1.2c-0.2-0.3-0.5-0.5-0.9-0.6
				c-0.3-0.1-0.9-0.2-1.5-0.2c-0.9,0-1.5-0.2-2-0.4c-0.5-0.2-0.9-0.6-1.3-1.1c-0.5-0.6-0.7-1.3-0.7-1.9c0.1-0.6,0.4-1.1,1-1.6
				C290.8,230.1,291.4,229.9,292,230z"/>
			<path class="st3" d="M292.3,241.7l-1.9,1.3c-0.6,0.4-1.2,0.6-1.8,0.5c-0.6-0.1-1.1-0.5-1.5-1.2l-0.6-0.8
				c-0.5-0.7-0.6-1.3-0.6-1.9c0.1-0.6,0.4-1.1,1.1-1.5l0.6-0.4l-2.3-3.4l1.3-0.9L292.3,241.7z M287.9,239.3
				c-0.2,0.1-0.3,0.3-0.4,0.5c0,0.2,0.1,0.4,0.3,0.7l0.7,1c0.2,0.3,0.4,0.4,0.6,0.5c0.2,0,0.4,0,0.6-0.2l0.6-0.4l-1.7-2.5
				L287.9,239.3z"/>
			<path class="st3" d="M285.6,246.2l-1.8,1.1l-6.6-7.7l1.3-0.8l1.3,1.5l0,0l1.5-0.9l-0.8-1.8l1.2-0.8L285.6,246.2z M280.6,241.3
				l3.2,3.9l0,0l-2-4.6L280.6,241.3z"/>
			<path class="st3" d="M280,249.4l-1.7,0.9l-4.1-4.6l0,0l2.8,5.3l-1.2,0.7l-4.6-8.9l1.4-0.7l5.1,5.6l0,0l-3.4-6.5l1.2-0.6
				L280,249.4z M280.1,250.6c0,0.4,0,0.8-0.1,1.1c-0.1,0.3-0.3,0.5-0.5,0.6c-0.2,0.1-0.3,0.1-0.4,0.1c-0.1,0-0.3,0-0.5,0
				c-0.1,0-0.2,0-0.3,0c-0.1,0-0.2,0-0.2,0.1c-0.1,0.1-0.2,0.1-0.2,0.3c0,0.1,0,0.3,0,0.5l-0.9-0.1c0-0.4,0-0.8,0.1-1.1
				s0.3-0.5,0.5-0.6c0.2-0.1,0.3-0.1,0.4-0.1c0.1,0,0.3,0,0.5,0c0.1,0,0.2,0,0.3,0c0.1,0,0.2,0,0.2-0.1c0.1-0.1,0.2-0.1,0.2-0.3
				c0-0.1,0-0.3,0-0.5L280.1,250.6z"/>
			<path class="st3" d="M268.5,244.6c0.6,0.2,1,0.7,1.3,1.4l2.1,4.8c0.3,0.7,0.4,1.4,0.2,1.9c-0.2,0.6-0.6,1-1.4,1.3
				c-0.7,0.3-1.3,0.4-1.9,0.1c-0.6-0.2-1-0.7-1.3-1.4l-2.1-4.8c-0.3-0.7-0.4-1.4-0.2-1.9c0.2-0.6,0.6-1,1.4-1.3
				C267.4,244.4,268,244.4,268.5,244.6z M266.9,247.3l2.2,5c0.3,0.6,0.6,0.8,1.1,0.6c0.5-0.2,0.6-0.6,0.3-1.2l-2.2-5
				c-0.3-0.6-0.6-0.8-1.1-0.6C266.7,246.2,266.6,246.7,266.9,247.3z"/>
			<path class="st3" d="M265.9,256.1l-1.5,0.6l-3-8l-2.4,0.9l-0.5-1.3l3.9-1.5L265.9,256.1z"/>
			<path class="st3" d="M258.3,258.8l-2,0.6l-4.5-9.1l1.5-0.5l0.9,1.8l0,0l1.7-0.5l-0.3-2l1.4-0.4L258.3,258.8z M254.6,252.9
				l2.1,4.5l0,0l-0.8-4.9L254.6,252.9z"/>
			<path class="st3" d="M248.3,261.6l-2.3,0.5c-0.8,0.2-1.4,0.1-1.8-0.3c-0.5-0.3-0.8-0.9-1-1.7l-1-4.9c-0.2-0.8-0.1-1.4,0.2-1.9
				c0.3-0.5,0.8-0.8,1.6-1l2.3-0.5L248.3,261.6z M244.2,253.7c-0.3,0.1-0.4,0.2-0.5,0.3c-0.1,0.2-0.1,0.4,0,0.8l1.1,5.1
				c0.1,0.3,0.2,0.6,0.4,0.7c0.2,0.1,0.4,0.2,0.6,0.1l0.8-0.2l-1.5-7L244.2,253.7z"/>
			<path class="st3" d="M240.7,263.1l-4.2,0.6l-0.2-1.4l2.7-0.4l-0.4-2.6l-2.1,0.3l-0.2-1.4l2.1-0.3l-0.5-3l-2.7,0.4l-0.2-1.4
				l4.2-0.6L240.7,263.1z"/>
			<path class="st3" d="M229.8,264.4l-4.3,0.3l-0.1-1.4l2.7-0.2l-0.2-2.6l-2.2,0.1l-0.1-1.4l2.2-0.1l-0.2-3.1l-2.7,0.2l-0.1-1.4
				l4.3-0.3L229.8,264.4z"/>
			<path class="st3" d="M221.3,259.8l1.8,4.9l-1.7,0l-1.1-3.2h0l-1,3.2l-1.5,0l1.6-4.9l-1.9-5.1l1.7,0l1.2,3.5l0,0l1.1-3.5l1.5,0
				L221.3,259.8z"/>
			<path class="st3" d="M215,264.7l-2.3-0.1c-0.8,0-1.4-0.3-1.7-0.7c-0.4-0.4-0.5-1.1-0.5-1.9l0.1-1c0-0.8,0.3-1.4,0.7-1.8
				c0.4-0.4,1-0.6,1.8-0.5l0.7,0l0.2-4.1l1.6,0.1L215,264.7z M212.9,260c-0.3,0-0.5,0-0.6,0.2c-0.1,0.1-0.2,0.4-0.2,0.7l-0.1,1.2
				c0,0.3,0,0.6,0.2,0.7c0.1,0.1,0.3,0.2,0.6,0.2l0.7,0l0.2-3.1L212.9,260z"/>
			<path class="st3" d="M207.6,264.2L206,264l1-8.5l-2.6-0.3l0.2-1.4l4.1,0.5L207.6,264.2z"/>
			<path class="st3" d="M202,253.9c0.3,0.5,0.4,1.1,0.3,1.9l-0.9,5.2c-0.1,0.8-0.4,1.4-0.9,1.7s-1.1,0.5-1.9,0.3
				c-0.8-0.1-1.3-0.4-1.6-0.9c-0.3-0.5-0.4-1.1-0.3-1.9l0.9-5.2c0.1-0.8,0.4-1.4,0.9-1.7c0.5-0.4,1.1-0.5,1.9-0.3
				C201.2,253.1,201.7,253.4,202,253.9z M199.2,255.2l-0.9,5.4c-0.1,0.6,0.1,1,0.6,1.1s0.9-0.2,1-0.8l0.9-5.4c0.1-0.6-0.1-1-0.6-1.1
				C199.6,254.3,199.3,254.5,199.2,255.2z"/>
			<path class="st3" d="M193.4,261.9l-2.3-0.5c-0.8-0.2-1.3-0.5-1.6-1c-0.3-0.5-0.3-1.1-0.1-1.8l0.1-0.6c0.2-1,0.7-1.6,1.5-1.7l0,0
				c-0.3-0.2-0.6-0.5-0.6-0.9c-0.1-0.4,0-0.9,0.1-1.4l0.4-1.7c0.1-0.3,0.1-0.5,0.1-0.7c0-0.2,0-0.4,0-0.5l1.6,0.4c0,0.2,0,0.3,0,0.5
				c0,0.1-0.1,0.4-0.1,0.8l-0.4,1.8c-0.1,0.4-0.1,0.8,0,1c0.1,0.2,0.3,0.4,0.7,0.4l0.5,0.1l1-4.2l1.5,0.4L193.4,261.9z M192.3,257.3
				c-0.3-0.1-0.6,0-0.7,0.1c-0.2,0.1-0.3,0.4-0.4,0.7l-0.2,0.8c-0.1,0.4-0.1,0.6,0,0.8c0.1,0.2,0.3,0.3,0.5,0.4l0.7,0.2l0.7-2.8
				L192.3,257.3z"/>
			<path class="st3" d="M184.8,259.7l-2-0.6l1.3-10l1.5,0.5l-0.3,2l0,0l1.7,0.5l0.8-1.8l1.4,0.4L184.8,259.7z M185.1,252.8l-0.8,4.9
				l0,0l2.1-4.5L185.1,252.8z"/>
			<path class="st3" d="M181.6,248.7c0.2,0.5,0.2,1.2-0.1,1.9l-1.9,5c-0.3,0.7-0.7,1.2-1.2,1.5c-0.5,0.3-1.1,0.3-1.8,0
				c-0.7-0.3-1.2-0.7-1.4-1.2c-0.2-0.5-0.2-1.2,0.1-1.9l0.4-1l1.4,0.5l-0.4,1.1c-0.2,0.6-0.1,1,0.4,1.1c0.5,0.2,0.8,0,1.1-0.6
				l1.9-5.2c0.2-0.6,0.1-0.9-0.4-1.1c-0.5-0.2-0.8,0-1.1,0.6l-0.5,1.4l-1.4-0.5l0.5-1.3c0.3-0.7,0.7-1.2,1.2-1.5
				c0.5-0.3,1.1-0.3,1.8,0C180.9,247.8,181.3,248.2,181.6,248.7z"/>
			<path class="st3" d="M171.9,255.1l-1.4-0.6l3.9-9.2l1.4,0.6L171.9,255.1z"/>
			<path class="st3" d="M171.4,244.6c0.2,0.6,0.1,1.2-0.3,1.9l-2.3,4.7c-0.3,0.7-0.8,1.2-1.4,1.4c-0.6,0.2-1.2,0.2-1.9-0.2
				c-0.7-0.3-1.1-0.8-1.3-1.4c-0.2-0.6-0.1-1.2,0.3-1.9l2.3-4.7c0.3-0.7,0.8-1.2,1.4-1.4c0.6-0.2,1.2-0.2,1.9,0.2
				C170.8,243.5,171.2,244,171.4,244.6z M168.3,245l-2.4,4.9c-0.3,0.6-0.2,1,0.3,1.2c0.5,0.2,0.9,0.1,1.2-0.5l2.4-4.9
				c0.3-0.6,0.2-1-0.3-1.2C169,244.3,168.6,244.4,168.3,245z"/>
			<path class="st3" d="M160.9,249.9l-1.7-1l1.6-6l0,0l-2.9,5.2l-1.2-0.7l4.9-8.7l1.4,0.8l-1.9,7.3l0,0l3.6-6.4l1.2,0.7L160.9,249.9
				z"/>
			<path class="st3" d="M154,245.9l-3.6-2.3l0.8-1.2l2.3,1.5l1.4-2.2l-1.8-1.2l0.8-1.2l1.8,1.2l1.7-2.6l-2.3-1.5l0.8-1.2l3.6,2.3
				L154,245.9z"/>
			<path class="st3" d="M153.4,234.1c0.1,0.6-0.2,1.2-0.6,1.9l-0.3,0.5l-1.2-0.9l0.4-0.6c0.4-0.5,0.4-0.9-0.1-1.3
				c-0.2-0.2-0.4-0.2-0.6-0.2c-0.2,0-0.4,0.2-0.6,0.5c-0.2,0.3-0.4,0.7-0.4,1.1c0,0.4,0,0.9,0.2,1.6c0.2,0.8,0.2,1.5,0.2,2.1
				c-0.1,0.5-0.3,1-0.6,1.5c-0.5,0.6-1,1-1.6,1.1c-0.6,0.1-1.2-0.1-1.8-0.5c-0.6-0.4-0.9-1-1-1.5c-0.1-0.6,0.2-1.2,0.6-1.8l0.2-0.3
				l1.2,0.9l-0.3,0.4c-0.2,0.3-0.3,0.5-0.3,0.7c0,0.2,0.1,0.4,0.3,0.5c0.4,0.3,0.8,0.2,1.2-0.3c0.2-0.3,0.3-0.6,0.4-1
				c0-0.4,0-0.9-0.2-1.6c-0.2-0.8-0.3-1.5-0.2-2.1c0.1-0.5,0.3-1,0.7-1.5c0.5-0.7,1-1,1.6-1.2c0.6-0.1,1.2,0.1,1.8,0.5
				C153,233,153.4,233.5,153.4,234.1z"/>
			<path class="st3" d="M145.2,227.7c0,0.6-0.2,1.2-0.8,1.8l-3.5,3.9c-0.5,0.6-1.1,0.9-1.7,1c-0.6,0.1-1.2-0.2-1.7-0.7
				c-0.6-0.5-0.9-1-0.9-1.6c0-0.6,0.2-1.2,0.8-1.8l0.6-0.6l1.1,1l-0.6,0.7c-0.4,0.5-0.4,0.9,0,1.3c0.4,0.4,0.8,0.3,1.3-0.2l3.6-4.1
				c0.4-0.5,0.4-0.9,0-1.3c-0.4-0.4-0.8-0.3-1.3,0.2l-1.3,1.5l0.6,0.5l-0.9,1.1l-1.7-1.5l2.2-2.5c0.5-0.6,1.1-0.9,1.7-1
				s1.2,0.2,1.7,0.7C144.9,226.5,145.2,227.1,145.2,227.7z"/>
			<path class="st3" d="M132.8,229.3l-1.5-1.5l5.9-8.2l1.1,1.1l-1.2,1.6l0,0l1.3,1.3l1.6-1.2l1,1L132.8,229.3z M136.3,223.3l-3,4
				l0,0l4-3L136.3,223.3z"/>
			<path class="st3" d="M128.4,224.7l-1-1.2l6.4-5.7l-1.7-1.9l1.1-1l2.8,3.1L128.4,224.7z"/>
			<path class="st3" d="M120.5,219.1l-1.1-1.3l2.2,0.2l0.7,0.9L120.5,219.1z M123.1,218.6l-1.3-1.7l6.8-7.5l1,1.2l-1.4,1.5l0,0
				l1.1,1.4l1.7-1l0.9,1.1L123.1,218.6z M127.3,213.1l-3.4,3.6l0,0l4.3-2.5L127.3,213.1z"/>
			<path class="st3" d="M126.7,207.6c-0.1,0.6-0.5,1.1-1.1,1.5l-4.4,3.1c-0.6,0.4-1.2,0.6-1.8,0.6c-0.6-0.1-1.1-0.4-1.5-1
				c-0.4-0.6-0.6-1.2-0.5-1.8c0.1-0.6,0.5-1.1,1.1-1.5l0.9-0.6l0.9,1.2l-0.9,0.7c-0.5,0.4-0.6,0.7-0.3,1.2c0.3,0.4,0.7,0.5,1.2,0.1
				l4.6-3.2c0.5-0.4,0.6-0.7,0.3-1.2s-0.7-0.5-1.2-0.1l-1.2,0.9l-0.9-1.2l1.2-0.8c0.6-0.5,1.2-0.6,1.8-0.6c0.6,0.1,1.1,0.4,1.5,1
				C126.6,206.5,126.8,207.1,126.7,207.6z"/>
			<path class="st3" d="M115.6,205.6l0.9,1.4l-1.2,0.8l-2.6-4.1l1.2-0.8l0.9,1.4l7.3-4.5l0.8,1.3L115.6,205.6z"/>
			<path class="st3" d="M111.4,201.5l-0.8-1.4l8.7-4.9l0.8,1.4L111.4,201.5z"/>
			<path class="st3" d="M117.5,192.8c-0.2,0.5-0.7,1-1.4,1.3l-4.8,2.4c-0.7,0.3-1.3,0.4-1.9,0.3c-0.6-0.2-1-0.6-1.3-1.3
				c-0.3-0.7-0.4-1.3-0.2-1.8c0.2-0.5,0.7-1,1.4-1.3l0.9-0.5l0.7,1.3l-1,0.5c-0.6,0.3-0.7,0.6-0.5,1.1c0.2,0.5,0.6,0.6,1.2,0.3
				l5-2.5c0.5-0.3,0.7-0.6,0.5-1.1c-0.2-0.5-0.6-0.6-1.2-0.3l-1.4,0.7l-0.7-1.3l1.3-0.6c0.7-0.3,1.3-0.4,1.9-0.3
				c0.6,0.2,1,0.6,1.3,1.3C117.7,191.6,117.7,192.3,117.5,192.8z"/>
			<path class="st3" d="M105.5,189.7l-0.8-2l8.6-5.4l0.6,1.4l-1.7,1l0,0l0.7,1.6l1.9-0.5l0.6,1.3L105.5,189.7z M111,185.5l-4.3,2.6
				l0,0l4.8-1.3L111,185.5z"/>
			<path class="st3" d="M112,180.3c-0.3,0.5-0.8,0.9-1.6,1.2l-0.5,0.2l-0.5-1.4l0.6-0.2c0.6-0.2,0.8-0.6,0.6-1.1
				c-0.1-0.3-0.2-0.4-0.4-0.5c-0.2-0.1-0.5-0.1-0.8,0.1c-0.4,0.1-0.7,0.4-0.9,0.6c-0.2,0.3-0.5,0.7-0.7,1.4c-0.3,0.8-0.7,1.4-1,1.8
				c-0.3,0.4-0.8,0.7-1.3,0.9c-0.7,0.3-1.4,0.3-1.9,0.1s-0.9-0.7-1.2-1.4c-0.3-0.7-0.2-1.3,0-1.8c0.3-0.5,0.8-0.9,1.6-1.2l0.4-0.1
				l0.5,1.4l-0.5,0.2c-0.3,0.1-0.5,0.3-0.6,0.4c-0.1,0.2-0.1,0.4,0,0.6c0.2,0.5,0.6,0.6,1.2,0.4c0.3-0.1,0.6-0.3,0.9-0.6
				c0.2-0.3,0.5-0.8,0.7-1.4c0.3-0.8,0.7-1.4,1-1.8c0.4-0.4,0.8-0.7,1.4-0.9c0.8-0.3,1.4-0.3,2-0.1c0.5,0.2,1,0.7,1.2,1.4
				C112.3,179.2,112.3,179.8,112,180.3z"/>
			<path class="st2" d="M105.1,163.4L105.1,163.4L105.1,163.4l0.1,0.1l0.2,2.8l2.6-1.2l0.1,0l0,0c0,0,0,0,0,0.1c0,0,0,0,0,0
				l-1.9,2.1l2.6,1c0,0,0,0,0,0c0,0,0,0,0,0l0,0l-0.1,0l-2.9,0.2l1.2,2.6l0,0.1l0,0c0,0,0,0-0.1,0c0,0,0,0,0,0l-2.1-1.9l-1,2.6
				c0,0,0,0,0,0c0,0,0,0,0,0l0,0l0-0.1l-0.2-2.9l-2.6,1.1l-0.1,0l-0.1,0l0,0c0,0,0,0,0,0c0,0,0,0,0-0.1l1.9-2.1l-2.6-1
				c0,0,0,0-0.1,0c0,0,0,0,0,0l0,0l0.1,0l0.1,0l2.8-0.2l-1.1-2.6l0-0.1l0-0.1l0,0c0,0,0,0,0.1,0c0,0,0,0,0.1,0l2.1,1.9L105.1,163.4
				C105,163.4,105,163.4,105.1,163.4C105,163.4,105.1,163.4,105.1,163.4z"/>
		</g>
	</g>
	<g>
		<path class="st1" d="M421,155.5H21.1c-2.2,0-4.2-0.6-6-1.7c-1.6-1-2.9-2.3-4-3.8c-1-1.4-1.8-3.1-2.4-4.9c-0.5-1.7-0.8-3.5-0.8-5.2
			c0-1.7,0.3-3.5,0.9-5.3c0.6-1.8,1.4-3.4,2.6-4.9c1.2-1.5,2.6-2.8,4.2-3.7c1.8-1.1,3.9-1.6,6.1-1.6h402.3c1.8,0,3.4,0.6,4.7,1.9
			c1.3,1.3,1.9,2.9,1.9,4.7c0,1.8-0.7,3.4-1.9,4.7c-0.1,0.1-0.2,0.2-0.3,0.3c0.2,0.2,0.4,0.4,0.6,0.5c1,1,1.8,2.2,2.4,3.5
			c0.6,1.4,0.9,2.8,0.9,4.4c0,1.5-0.3,3-0.9,4.4c-0.6,1.3-1.4,2.5-2.3,3.5c-1,1-2.2,1.8-3.6,2.4C424,155.2,422.5,155.5,421,155.5z"
			/>
		<g>
			<path class="st2" d="M48.4,153.6H21.1c-1.8,0-3.5-0.5-5-1.4c-1.4-0.8-2.5-1.9-3.5-3.3c-0.9-1.3-1.6-2.7-2.1-4.3
				c-0.5-1.6-0.7-3.1-0.7-4.6c0-1.5,0.3-3.1,0.8-4.7c0.5-1.6,1.3-3,2.3-4.3c1-1.3,2.2-2.4,3.7-3.3c1.5-0.9,3.2-1.3,5.1-1.3h30.5
				c1.3,0,2.4,0.5,3.3,1.4c0.9,0.9,1.4,2,1.4,3.3c0,1.3-0.5,2.4-1.4,3.3c-0.9,0.9-2,1.4-3.3,1.4h-0.9c0.2,0.1,0.3,0.1,0.5,0.2
				c1,0.4,1.9,1.1,2.7,1.8c0.8,0.8,1.4,1.7,1.8,2.8c0.4,1,0.6,2.2,0.6,3.3v1.2c0,1.1-0.2,2.3-0.6,3.3c-0.4,1.1-1,2-1.8,2.8
				c-0.8,0.8-1.7,1.4-2.7,1.8C50.6,153.4,49.5,153.6,48.4,153.6z M22.8,135.8c-0.8,0-1.5,0.1-1.9,0.4c-0.5,0.3-0.8,0.6-1.1,1
				c-0.3,0.4-0.5,0.8-0.5,1.3c-0.1,0.6-0.2,1.1-0.2,1.6c0,0.5,0.1,1,0.2,1.6c0.1,0.5,0.3,0.9,0.5,1.3c0.3,0.4,0.6,0.7,1.1,1
				c0.4,0.2,1,0.4,1.9,0.4h3.4c-0.4-0.2-0.8-0.5-1.2-0.9c-0.9-0.9-1.4-2-1.4-3.3c0-1.3,0.5-2.4,1.4-3.3c0.4-0.4,0.8-0.7,1.2-0.9
				H22.8z"/>
			<path class="st2" d="M94.8,153.6c-1.5,0-2.9-0.7-3.7-1.9l-12.2-16.3c-0.1-0.1-0.2-0.2-0.3-0.3c-0.1,0.1-0.2,0.2-0.2,0.3
				l-12.3,16.3c-1,1.2-2.2,1.8-3.7,1.8c-1.3,0-2.4-0.5-3.3-1.4c-0.9-0.9-1.4-2-1.4-3.3c0-1.2,0.4-2.2,1.1-3l12.6-17
				c0.8-1.1,1.8-1.9,3.1-2.6c2.5-1.3,5.5-1.3,8.1-0.1c1.3,0.6,2.3,1.5,3.1,2.6l12.7,17c0.3,0.3,0.5,0.7,0.8,1.2
				c0.3,0.6,0.4,1.2,0.4,1.9c0,1.3-0.5,2.4-1.4,3.3C97.3,153.1,96.1,153.6,94.8,153.6z"/>
			<path class="st2" d="M141,153.6h-31.3c-1.3,0-2.5-0.2-3.6-0.7c-1.1-0.5-2.1-1.1-3-1.9c-0.8-0.8-1.5-1.8-2-2.9
				c-0.5-1.1-0.8-2.3-0.8-3.6v-13.3c0-1.3,0.5-2.4,1.4-3.3c0.9-0.9,2-1.4,3.3-1.4c1.2,0,2.3,0.5,3.3,1.3c0.9,0.9,1.4,2,1.4,3.3v13.1
				H141c1.3,0,2.4,0.5,3.3,1.4c0.9,0.9,1.4,2,1.4,3.3c0,1.3-0.5,2.4-1.4,3.3C143.4,153.1,142.3,153.6,141,153.6z"/>
			<path class="st2" d="M183.7,153.6c-1.5,0-2.9-0.7-3.7-1.9l-12.2-16.3c0-0.1-0.2-0.2-0.3-0.3c-0.1,0.1-0.2,0.2-0.3,0.3l-12.3,16.3
				c-1,1.2-2.2,1.8-3.7,1.8c-1.3,0-2.4-0.5-3.3-1.4c-0.9-0.9-1.4-2-1.4-3.3c0-1.2,0.4-2.2,1.1-3l12.6-17c0.8-1.1,1.8-1.9,3.1-2.6
				c2.5-1.3,5.5-1.3,8.1-0.1c1.3,0.6,2.3,1.5,3.1,2.6l12.7,17c0.3,0.3,0.5,0.7,0.8,1.2c0.3,0.6,0.4,1.2,0.4,1.9
				c0,1.3-0.5,2.4-1.4,3.3C186.1,153.1,185,153.6,183.7,153.6z"/>
			<path class="st2" d="M167.5,151.2c-1.5,0-2.8-0.5-3.8-1.6c-1-1-1.6-2.3-1.6-3.8c0-1.5,0.5-2.8,1.6-3.8c1-1,2.3-1.6,3.8-1.6
				c1.5,0,2.8,0.5,3.8,1.6c1,1,1.6,2.3,1.6,3.8c0,1.5-0.5,2.8-1.6,3.8C170.3,150.7,169,151.2,167.5,151.2z"/>
			<path class="st2" d="M230.3,153.6h-31c-1.8,0-3.5-0.5-5-1.4c-1.4-0.8-2.5-1.9-3.5-3.3c-0.9-1.3-1.6-2.7-2.1-4.3
				c-0.5-1.6-0.7-3.1-0.7-4.6c0-1.5,0.3-3.1,0.8-4.7c0.5-1.6,1.3-3,2.3-4.3c1-1.3,2.2-2.4,3.7-3.3c1.5-0.9,3.3-1.3,5.1-1.3h30.5
				c1.3,0,2.4,0.5,3.3,1.4c0.9,0.9,1.4,2,1.4,3.3c0,1.3-0.5,2.4-1.4,3.3c-0.9,0.9-2,1.4-3.3,1.4h-29.4c-0.8,0-1.5,0.1-1.9,0.4
				c-0.5,0.3-0.8,0.6-1.1,1c-0.3,0.4-0.5,0.8-0.5,1.3c-0.1,0.6-0.2,1.1-0.2,1.6c0,0.5,0.1,1,0.2,1.6c0.1,0.5,0.3,0.9,0.5,1.3
				c0.3,0.4,0.6,0.7,1.1,1c0.4,0.2,1,0.4,1.9,0.4h29.4c1.3,0,2.4,0.5,3.3,1.4c0.9,0.9,1.4,2,1.4,3.3c0,1.3-0.5,2.4-1.4,3.3
				C232.7,153.1,231.6,153.6,230.3,153.6z"/>
			<path class="st2" d="M258.6,153.6c-1.3,0-2.4-0.5-3.3-1.4c-0.9-0.9-1.4-2-1.4-3.3V140c0-1.3,0.2-2.5,0.5-3.8
				c0-0.1,0.1-0.3,0.1-0.4h-13.9c-1.3,0-2.4-0.5-3.3-1.4c-0.9-0.9-1.4-2-1.4-3.3c0-1.3,0.5-2.4,1.4-3.3c0.9-0.9,2-1.4,3.3-1.4h36
				c1.3,0,2.4,0.5,3.3,1.4c0.9,0.9,1.4,2,1.4,3.3c0,1.2-0.4,2.3-1.3,3.2c-0.8,0.8-1.8,1.3-3,1.5l-0.2,0l-10.6,0
				c-0.5,0-1.1,0.2-1.4,0.4c-0.4,0.3-0.7,0.6-0.9,0.9c-0.2,0.4-0.4,0.8-0.5,1.3c-0.1,0.6-0.2,1.1-0.2,1.6v8.9c0,1.3-0.5,2.4-1.4,3.3
				C261,153.1,259.9,153.6,258.6,153.6z"/>
			<path class="st2" d="M286.8,153.6c-1.3,0-2.4-0.5-3.3-1.4c-0.9-0.9-1.4-2-1.4-3.3v-17.8c0-1.3,0.5-2.4,1.4-3.3
				c0.9-0.9,2-1.4,3.3-1.4c1.3,0,2.4,0.5,3.3,1.4c0.9,0.9,1.4,2,1.4,3.3v17.8c0,1.3-0.5,2.4-1.4,3.3
				C289.3,153.1,288.1,153.6,286.8,153.6z"/>
			<path class="st2" d="M334.7,153.6h-31c-1.8,0-3.5-0.5-5-1.4c-1.4-0.8-2.5-1.9-3.5-3.3c-0.9-1.3-1.6-2.7-2.1-4.3
				c-0.5-1.6-0.7-3.1-0.7-4.6c0-1.5,0.3-3.1,0.8-4.7c0.5-1.6,1.3-3,2.3-4.3c1-1.3,2.2-2.4,3.7-3.3c1.5-0.9,3.3-1.3,5.1-1.3h30.5
				c1.3,0,2.4,0.5,3.3,1.4c0.9,0.9,1.4,2,1.4,3.3c0,1.3-0.5,2.4-1.4,3.3c-0.9,0.9-2,1.4-3.3,1.4h-29.4c-0.8,0-1.5,0.1-1.9,0.4
				c-0.5,0.3-0.8,0.6-1.1,1c-0.3,0.4-0.5,0.8-0.5,1.3c-0.1,0.6-0.2,1.1-0.2,1.6c0,0.5,0.1,1,0.2,1.6c0.1,0.5,0.3,0.9,0.5,1.3
				c0.3,0.4,0.6,0.7,1.1,1c0.4,0.2,1,0.4,1.9,0.4h29.4c1.3,0,2.4,0.5,3.3,1.4c0.9,0.9,1.4,2,1.4,3.3c0,1.3-0.5,2.4-1.4,3.3
				C337.2,153.1,336,153.6,334.7,153.6z"/>
			<path class="st2" d="M377.5,153.6c-1.5,0-2.9-0.7-3.7-1.9l-12.2-16.3c0-0.1-0.2-0.2-0.3-0.3c-0.1,0.1-0.2,0.2-0.3,0.3l-12.3,16.3
				c-1,1.2-2.2,1.8-3.7,1.8c-1.3,0-2.4-0.5-3.3-1.4c-0.9-0.9-1.4-2-1.4-3.3c0-1.2,0.4-2.2,1.1-3l12.6-17c0.8-1.1,1.8-1.9,3.1-2.6
				c2.5-1.3,5.5-1.3,8.1-0.1c1.3,0.6,2.3,1.5,3.1,2.6l12.7,17c0.3,0.3,0.5,0.7,0.8,1.2c0.3,0.6,0.4,1.2,0.4,1.9
				c0,1.3-0.5,2.4-1.4,3.3C379.9,153.1,378.8,153.6,377.5,153.6z"/>
			<path class="st2" d="M421,153.6h-31.7c-1.3,0-2.4-0.5-3.3-1.4c-0.9-0.9-1.4-2-1.4-3.3c0-1.3,0.5-2.4,1.4-3.3
				c0.9-0.9,2-1.4,3.2-1.4c-0.2-0.1-0.4-0.2-0.6-0.2c-1.1-0.5-2-1.1-2.9-1.9c-0.8-0.8-1.5-1.8-1.9-2.9c-0.5-1.1-0.7-2.3-0.7-3.6
				c0-1.3,0.2-2.5,0.7-3.6c0.5-1.1,1.1-2,1.9-2.9c0.8-0.8,1.8-1.5,2.9-1.9c1.1-0.5,2.3-0.7,3.6-0.7h31.8c1.3,0,2.4,0.5,3.3,1.4
				c0.9,0.9,1.4,2,1.4,3.3c0,1.3-0.5,2.4-1.4,3.3c-0.9,0.9-2,1.4-3.3,1.4c0.2,0.1,0.4,0.2,0.6,0.2c1.1,0.5,2.1,1.1,2.9,2
				c0.8,0.8,1.5,1.8,2,2.9c0.5,1.1,0.7,2.3,0.7,3.6c0,1.3-0.2,2.5-0.7,3.6c-0.5,1.1-1.1,2-1.9,2.9c-0.8,0.8-1.8,1.5-2.9,1.9
				C423.5,153.4,422.3,153.6,421,153.6z"/>
		</g>
		<g>
			<path class="st2" d="M48.4,153.6H21.1c-1.8,0-3.5-0.5-5-1.4c-1.4-0.8-2.5-1.9-3.5-3.3c-0.9-1.3-1.6-2.7-2.1-4.3
				c-0.5-1.6-0.7-3.1-0.7-4.6c0-1.5,0.3-3.1,0.8-4.7c0.5-1.6,1.3-3,2.3-4.3c1-1.3,2.2-2.4,3.7-3.3c1.5-0.9,3.2-1.3,5.1-1.3h30.5
				c1.3,0,2.4,0.5,3.3,1.4c0.9,0.9,1.4,2,1.4,3.3c0,1.3-0.5,2.4-1.4,3.3c-0.9,0.9-2,1.4-3.3,1.4h-0.9c0.2,0.1,0.3,0.1,0.5,0.2
				c1,0.4,1.9,1.1,2.7,1.8c0.8,0.8,1.4,1.7,1.8,2.8c0.4,1,0.6,2.2,0.6,3.3v1.2c0,1.1-0.2,2.3-0.6,3.3c-0.4,1.1-1,2-1.8,2.8
				c-0.8,0.8-1.7,1.4-2.7,1.8C50.6,153.4,49.5,153.6,48.4,153.6z M22.8,135.8c-0.8,0-1.5,0.1-1.9,0.4c-0.5,0.3-0.8,0.6-1.1,1
				c-0.3,0.4-0.5,0.8-0.5,1.3c-0.1,0.6-0.2,1.1-0.2,1.6c0,0.5,0.1,1,0.2,1.6c0.1,0.5,0.3,0.9,0.5,1.3c0.3,0.4,0.6,0.7,1.1,1
				c0.4,0.2,1,0.4,1.9,0.4h3.4c-0.4-0.2-0.8-0.5-1.2-0.9c-0.9-0.9-1.4-2-1.4-3.3c0-1.3,0.5-2.4,1.4-3.3c0.4-0.4,0.8-0.7,1.2-0.9
				H22.8z"/>
			<path class="st2" d="M94.8,153.6c-1.5,0-2.9-0.7-3.7-1.9l-12.2-16.3c-0.1-0.1-0.2-0.2-0.3-0.3c-0.1,0.1-0.2,0.2-0.2,0.3
				l-12.3,16.3c-1,1.2-2.2,1.8-3.7,1.8c-1.3,0-2.4-0.5-3.3-1.4c-0.9-0.9-1.4-2-1.4-3.3c0-1.2,0.4-2.2,1.1-3l12.6-17
				c0.8-1.1,1.8-1.9,3.1-2.6c2.5-1.3,5.5-1.3,8.1-0.1c1.3,0.6,2.3,1.5,3.1,2.6l12.7,17c0.3,0.3,0.5,0.7,0.8,1.2
				c0.3,0.6,0.4,1.2,0.4,1.9c0,1.3-0.5,2.4-1.4,3.3C97.3,153.1,96.1,153.6,94.8,153.6z"/>
			<path class="st2" d="M141,153.6h-31.3c-1.3,0-2.5-0.2-3.6-0.7c-1.1-0.5-2.1-1.1-3-1.9c-0.8-0.8-1.5-1.8-2-2.9
				c-0.5-1.1-0.8-2.3-0.8-3.6v-13.3c0-1.3,0.5-2.4,1.4-3.3c0.9-0.9,2-1.4,3.3-1.4c1.2,0,2.3,0.5,3.3,1.3c0.9,0.9,1.4,2,1.4,3.3v13.1
				H141c1.3,0,2.4,0.5,3.3,1.4c0.9,0.9,1.4,2,1.4,3.3c0,1.3-0.5,2.4-1.4,3.3C143.4,153.1,142.3,153.6,141,153.6z"/>
			<path class="st2" d="M183.7,153.6c-1.5,0-2.9-0.7-3.7-1.9l-12.2-16.3c0-0.1-0.2-0.2-0.3-0.3c-0.1,0.1-0.2,0.2-0.3,0.3l-12.3,16.3
				c-1,1.2-2.2,1.8-3.7,1.8c-1.3,0-2.4-0.5-3.3-1.4c-0.9-0.9-1.4-2-1.4-3.3c0-1.2,0.4-2.2,1.1-3l12.6-17c0.8-1.1,1.8-1.9,3.1-2.6
				c2.5-1.3,5.5-1.3,8.1-0.1c1.3,0.6,2.3,1.5,3.1,2.6l12.7,17c0.3,0.3,0.5,0.7,0.8,1.2c0.3,0.6,0.4,1.2,0.4,1.9
				c0,1.3-0.5,2.4-1.4,3.3C186.1,153.1,185,153.6,183.7,153.6z"/>
			<path class="st2" d="M167.5,151.2c-1.5,0-2.8-0.5-3.8-1.6c-1-1-1.6-2.3-1.6-3.8c0-1.5,0.5-2.8,1.6-3.8c1-1,2.3-1.6,3.8-1.6
				c1.5,0,2.8,0.5,3.8,1.6c1,1,1.6,2.3,1.6,3.8c0,1.5-0.5,2.8-1.6,3.8C170.3,150.7,169,151.2,167.5,151.2z"/>
			<path class="st2" d="M230.3,153.6h-31c-1.8,0-3.5-0.5-5-1.4c-1.4-0.8-2.5-1.9-3.5-3.3c-0.9-1.3-1.6-2.7-2.1-4.3
				c-0.5-1.6-0.7-3.1-0.7-4.6c0-1.5,0.3-3.1,0.8-4.7c0.5-1.6,1.3-3,2.3-4.3c1-1.3,2.2-2.4,3.7-3.3c1.5-0.9,3.3-1.3,5.1-1.3h30.5
				c1.3,0,2.4,0.5,3.3,1.4c0.9,0.9,1.4,2,1.4,3.3c0,1.3-0.5,2.4-1.4,3.3c-0.9,0.9-2,1.4-3.3,1.4h-29.4c-0.8,0-1.5,0.1-1.9,0.4
				c-0.5,0.3-0.8,0.6-1.1,1c-0.3,0.4-0.5,0.8-0.5,1.3c-0.1,0.6-0.2,1.1-0.2,1.6c0,0.5,0.1,1,0.2,1.6c0.1,0.5,0.3,0.9,0.5,1.3
				c0.3,0.4,0.6,0.7,1.1,1c0.4,0.2,1,0.4,1.9,0.4h29.4c1.3,0,2.4,0.5,3.3,1.4c0.9,0.9,1.4,2,1.4,3.3c0,1.3-0.5,2.4-1.4,3.3
				C232.7,153.1,231.6,153.6,230.3,153.6z"/>
			<path class="st2" d="M258.6,153.6c-1.3,0-2.4-0.5-3.3-1.4c-0.9-0.9-1.4-2-1.4-3.3V140c0-1.3,0.2-2.5,0.5-3.8
				c0-0.1,0.1-0.3,0.1-0.4h-13.9c-1.3,0-2.4-0.5-3.3-1.4c-0.9-0.9-1.4-2-1.4-3.3c0-1.3,0.5-2.4,1.4-3.3c0.9-0.9,2-1.4,3.3-1.4h36
				c1.3,0,2.4,0.5,3.3,1.4c0.9,0.9,1.4,2,1.4,3.3c0,1.2-0.4,2.3-1.3,3.2c-0.8,0.8-1.8,1.3-3,1.5l-0.2,0l-10.6,0
				c-0.5,0-1.1,0.2-1.4,0.4c-0.4,0.3-0.7,0.6-0.9,0.9c-0.2,0.4-0.4,0.8-0.5,1.3c-0.1,0.6-0.2,1.1-0.2,1.6v8.9c0,1.3-0.5,2.4-1.4,3.3
				C261,153.1,259.9,153.6,258.6,153.6z"/>
			<path class="st2" d="M286.8,153.6c-1.3,0-2.4-0.5-3.3-1.4c-0.9-0.9-1.4-2-1.4-3.3v-17.8c0-1.3,0.5-2.4,1.4-3.3
				c0.9-0.9,2-1.4,3.3-1.4c1.3,0,2.4,0.5,3.3,1.4c0.9,0.9,1.4,2,1.4,3.3v17.8c0,1.3-0.5,2.4-1.4,3.3
				C289.3,153.1,288.1,153.6,286.8,153.6z"/>
			<path class="st2" d="M334.7,153.6h-31c-1.8,0-3.5-0.5-5-1.4c-1.4-0.8-2.5-1.9-3.5-3.3c-0.9-1.3-1.6-2.7-2.1-4.3
				c-0.5-1.6-0.7-3.1-0.7-4.6c0-1.5,0.3-3.1,0.8-4.7c0.5-1.6,1.3-3,2.3-4.3c1-1.3,2.2-2.4,3.7-3.3c1.5-0.9,3.3-1.3,5.1-1.3h30.5
				c1.3,0,2.4,0.5,3.3,1.4c0.9,0.9,1.4,2,1.4,3.3c0,1.3-0.5,2.4-1.4,3.3c-0.9,0.9-2,1.4-3.3,1.4h-29.4c-0.8,0-1.5,0.1-1.9,0.4
				c-0.5,0.3-0.8,0.6-1.1,1c-0.3,0.4-0.5,0.8-0.5,1.3c-0.1,0.6-0.2,1.1-0.2,1.6c0,0.5,0.1,1,0.2,1.6c0.1,0.5,0.3,0.9,0.5,1.3
				c0.3,0.4,0.6,0.7,1.1,1c0.4,0.2,1,0.4,1.9,0.4h29.4c1.3,0,2.4,0.5,3.3,1.4c0.9,0.9,1.4,2,1.4,3.3c0,1.3-0.5,2.4-1.4,3.3
				C337.2,153.1,336,153.6,334.7,153.6z"/>
			<path class="st2" d="M377.5,153.6c-1.5,0-2.9-0.7-3.7-1.9l-12.2-16.3c0-0.1-0.2-0.2-0.3-0.3c-0.1,0.1-0.2,0.2-0.3,0.3l-12.3,16.3
				c-1,1.2-2.2,1.8-3.7,1.8c-1.3,0-2.4-0.5-3.3-1.4c-0.9-0.9-1.4-2-1.4-3.3c0-1.2,0.4-2.2,1.1-3l12.6-17c0.8-1.1,1.8-1.9,3.1-2.6
				c2.5-1.3,5.5-1.3,8.1-0.1c1.3,0.6,2.3,1.5,3.1,2.6l12.7,17c0.3,0.3,0.5,0.7,0.8,1.2c0.3,0.6,0.4,1.2,0.4,1.9
				c0,1.3-0.5,2.4-1.4,3.3C379.9,153.1,378.8,153.6,377.5,153.6z"/>
			<path class="st2" d="M421,153.6h-31.7c-1.3,0-2.4-0.5-3.3-1.4c-0.9-0.9-1.4-2-1.4-3.3c0-1.3,0.5-2.4,1.4-3.3
				c0.9-0.9,2-1.4,3.2-1.4c-0.2-0.1-0.4-0.2-0.6-0.2c-1.1-0.5-2-1.1-2.9-1.9c-0.8-0.8-1.5-1.8-1.9-2.9c-0.5-1.1-0.7-2.3-0.7-3.6
				c0-1.3,0.2-2.5,0.7-3.6c0.5-1.1,1.1-2,1.9-2.9c0.8-0.8,1.8-1.5,2.9-1.9c1.1-0.5,2.3-0.7,3.6-0.7h31.8c1.3,0,2.4,0.5,3.3,1.4
				c0.9,0.9,1.4,2,1.4,3.3c0,1.3-0.5,2.4-1.4,3.3c-0.9,0.9-2,1.4-3.3,1.4c0.2,0.1,0.4,0.2,0.6,0.2c1.1,0.5,2.1,1.1,2.9,2
				c0.8,0.8,1.5,1.8,2,2.9c0.5,1.1,0.7,2.3,0.7,3.6c0,1.3-0.2,2.5-0.7,3.6c-0.5,1.1-1.1,2-1.9,2.9c-0.8,0.8-1.8,1.5-2.9,1.9
				C423.5,153.4,422.3,153.6,421,153.6z"/>
		</g>
		<g>
			<path class="st3" d="M48.4,152.9H21.1c-1.7,0-3.2-0.4-4.6-1.3c-1.3-0.8-2.4-1.8-3.3-3.1c-0.9-1.2-1.5-2.6-2-4.1
				c-0.5-1.5-0.7-3-0.7-4.4c0-1.5,0.2-3,0.7-4.5c0.5-1.5,1.2-2.9,2.1-4.1c0.9-1.2,2.1-2.3,3.5-3.1c1.4-0.8,3-1.2,4.8-1.2h30.5
				c1.1,0,2,0.4,2.8,1.2c0.8,0.8,1.2,1.7,1.2,2.8c0,1.1-0.4,2-1.2,2.8c-0.8,0.8-1.7,1.2-2.8,1.2H22.8c-1,0-1.7,0.2-2.2,0.5
				c-0.6,0.3-1,0.7-1.3,1.2c-0.3,0.5-0.5,1-0.7,1.5c-0.1,0.6-0.2,1.2-0.2,1.8c0,0.5,0.1,1.1,0.2,1.8c0.1,0.6,0.3,1.1,0.7,1.5
				c0.3,0.5,0.8,0.8,1.3,1.2c0.5,0.3,1.3,0.5,2.2,0.5h25.4c0,0,0,0,0.1-0.1c0.1-0.1,0.1-0.2,0.1-0.4c0-0.2,0-0.3-0.1-0.5l-19.9,0
				c-1.1,0-2-0.4-2.8-1.2c-0.8-0.8-1.2-1.7-1.2-2.8c0-1.1,0.4-2,1.2-2.8c0.8-0.8,1.7-1.2,2.8-1.2h20c1.1,0,2.1,0.2,3,0.6
				c0.9,0.4,1.8,1,2.5,1.7c0.7,0.7,1.3,1.6,1.7,2.5c0.4,1,0.6,2,0.6,3v1.2c0,1.1-0.2,2.1-0.6,3c-0.4,1-0.9,1.8-1.7,2.5
				c-0.7,0.7-1.5,1.3-2.5,1.7C50.4,152.7,49.4,152.9,48.4,152.9z"/>
			<path class="st3" d="M94.8,152.9c-1.3,0-2.4-0.6-3.2-1.6L79.5,135c-0.1-0.2-0.4-0.4-0.7-0.7c-0.1-0.1-0.1-0.1-0.2-0.1
				c0,0-0.1,0-0.1,0.1c-0.3,0.3-0.5,0.5-0.7,0.7l-12.3,16.3c-0.8,1-1.9,1.5-3.1,1.5c-1.1,0-2-0.4-2.8-1.2c-0.8-0.8-1.2-1.7-1.2-2.8
				c0-1,0.3-1.8,0.9-2.5l12.6-17c0.7-1,1.7-1.8,2.9-2.4c2.3-1.2,5.1-1.2,7.4-0.1c1.2,0.6,2.1,1.3,2.8,2.3l12.7,17
				c0.3,0.3,0.5,0.7,0.7,1.1c0.2,0.5,0.3,1,0.3,1.6c0,1.1-0.4,2-1.2,2.8C96.9,152.5,95.9,152.9,94.8,152.9z"/>
			<path class="st3" d="M141,152.9h-31.3c-1.2,0-2.3-0.2-3.3-0.7c-1-0.4-2-1-2.7-1.8c-0.8-0.7-1.4-1.6-1.9-2.6
				c-0.5-1-0.7-2.1-0.7-3.3v-13.3c0-1.1,0.4-2,1.2-2.8c0.8-0.8,1.7-1.2,2.8-1.2c1,0,2,0.4,2.8,1.1c0.8,0.8,1.2,1.7,1.2,2.8v13.3
				c0,0.1,0,0.2,0.2,0.3c0.1,0.1,0.3,0.2,0.4,0.2H141c1.1,0,2,0.4,2.8,1.2c0.8,0.8,1.2,1.7,1.2,2.8c0,1.1-0.4,2-1.2,2.8
				C143,152.5,142.1,152.9,141,152.9z"/>
			<path class="st3" d="M183.7,152.9c-1.3,0-2.4-0.6-3.2-1.6L168.4,135c-0.1-0.2-0.4-0.4-0.7-0.7c-0.1-0.1-0.1-0.1-0.2-0.1
				c0,0-0.1,0-0.1,0.1c-0.3,0.3-0.5,0.5-0.7,0.7l-12.3,16.3c-0.8,1-1.9,1.5-3.1,1.5c-1.1,0-2-0.4-2.8-1.2c-0.8-0.8-1.2-1.7-1.2-2.8
				c0-1,0.3-1.8,0.9-2.5l12.6-17c0.7-1,1.7-1.8,2.9-2.4c2.3-1.2,5.1-1.2,7.4-0.1c1.2,0.6,2.1,1.3,2.8,2.3l12.7,17
				c0.3,0.3,0.5,0.7,0.7,1.1c0.2,0.5,0.3,1,0.3,1.6c0,1.1-0.4,2-1.2,2.8C185.8,152.5,184.8,152.9,183.7,152.9z"/>
			<path class="st3" d="M167.5,150.5c-1.3,0-2.4-0.5-3.3-1.4c-0.9-0.9-1.4-2-1.4-3.3c0-1.3,0.5-2.4,1.4-3.3c0.9-0.9,2-1.4,3.3-1.4
				c1.3,0,2.4,0.5,3.3,1.4c0.9,0.9,1.4,2,1.4,3.3c0,1.3-0.5,2.4-1.4,3.3C169.9,150,168.8,150.5,167.5,150.5z"/>
			<path class="st3" d="M230.3,152.9h-31c-1.7,0-3.2-0.4-4.6-1.3c-1.3-0.8-2.4-1.8-3.3-3.1c-0.9-1.2-1.5-2.6-2-4.1
				c-0.5-1.5-0.7-3-0.7-4.4c0-1.5,0.2-3,0.7-4.5c0.5-1.5,1.2-2.9,2.1-4.1c0.9-1.2,2.1-2.3,3.5-3.1c1.4-0.8,3-1.2,4.8-1.2h30.5
				c1.1,0,2,0.4,2.8,1.2c0.8,0.8,1.2,1.7,1.2,2.8c0,1.1-0.4,2-1.2,2.8c-0.8,0.8-1.7,1.2-2.8,1.2h-29.4c-1,0-1.7,0.2-2.2,0.5
				c-0.6,0.3-1,0.7-1.3,1.2c-0.3,0.5-0.5,1-0.7,1.5c-0.1,0.7-0.2,1.2-0.2,1.8c0,0.5,0.1,1.1,0.2,1.8c0.1,0.6,0.3,1.1,0.7,1.5
				c0.3,0.5,0.8,0.8,1.3,1.2c0.5,0.3,1.3,0.5,2.2,0.5h29.4c1.1,0,2,0.4,2.8,1.2c0.8,0.8,1.2,1.7,1.2,2.8c0,1.1-0.4,2-1.2,2.8
				C232.4,152.5,231.4,152.9,230.3,152.9z"/>
			<path class="st3" d="M258.6,152.9c-1.1,0-2-0.4-2.8-1.2c-0.8-0.8-1.2-1.7-1.2-2.8V140c0-1.2,0.2-2.4,0.5-3.6
				c0.1-0.4,0.2-0.9,0.4-1.3h-14.9c-1.1,0-2-0.4-2.8-1.2c-0.8-0.8-1.2-1.7-1.2-2.8c0-1.1,0.4-2,1.2-2.8c0.8-0.8,1.7-1.2,2.8-1.2h36
				c1.1,0,2,0.4,2.8,1.2c0.8,0.8,1.2,1.7,1.2,2.8c0,1-0.4,2-1.1,2.7c-0.7,0.7-1.5,1.1-2.5,1.2l-0.1,0l-10.6,0
				c-0.7,0.1-1.3,0.2-1.8,0.5c-0.5,0.3-0.9,0.7-1.1,1.1c-0.3,0.5-0.5,1-0.6,1.6c-0.1,0.6-0.2,1.2-0.2,1.7v8.9c0,1.1-0.4,2-1.2,2.8
				C260.6,152.5,259.7,152.9,258.6,152.9z"/>
			<path class="st3" d="M286.8,152.9c-1.1,0-2-0.4-2.8-1.2c-0.8-0.8-1.2-1.7-1.2-2.8v-17.8c0-1.1,0.4-2,1.2-2.8
				c0.8-0.8,1.7-1.2,2.8-1.2c1.1,0,2,0.4,2.8,1.2c0.8,0.8,1.2,1.7,1.2,2.8v17.8c0,1.1-0.4,2-1.2,2.8
				C288.9,152.5,287.9,152.9,286.8,152.9z"/>
			<path class="st3" d="M334.7,152.9h-31c-1.7,0-3.2-0.4-4.6-1.3c-1.3-0.8-2.4-1.8-3.3-3.1c-0.9-1.2-1.5-2.6-2-4.1
				c-0.5-1.5-0.7-3-0.7-4.4c0-1.5,0.2-3,0.7-4.5c0.5-1.5,1.2-2.9,2.1-4.1c0.9-1.2,2.1-2.3,3.5-3.1c1.4-0.8,3-1.2,4.8-1.2h30.5
				c1.1,0,2,0.4,2.8,1.2c0.8,0.8,1.2,1.7,1.2,2.8c0,1.1-0.4,2-1.2,2.8s-1.7,1.2-2.8,1.2h-29.4c-1,0-1.7,0.2-2.2,0.5
				c-0.6,0.3-1,0.7-1.3,1.2c-0.3,0.5-0.5,1-0.7,1.5c-0.1,0.7-0.2,1.2-0.2,1.8c0,0.5,0.1,1.1,0.2,1.8c0.1,0.6,0.3,1.1,0.7,1.5
				c0.3,0.5,0.8,0.8,1.3,1.2c0.5,0.3,1.3,0.5,2.2,0.5h29.4c1.1,0,2,0.4,2.8,1.2c0.8,0.8,1.2,1.7,1.2,2.8c0,1.1-0.4,2-1.2,2.8
				C336.8,152.5,335.8,152.9,334.7,152.9z"/>
			<path class="st3" d="M377.5,152.9c-1.3,0-2.4-0.6-3.2-1.6L362.1,135c-0.1-0.2-0.4-0.4-0.7-0.7c-0.1-0.1-0.1-0.1-0.2-0.1
				c0,0-0.1,0-0.1,0.1c-0.3,0.3-0.5,0.5-0.7,0.7l-12.3,16.3c-0.8,1-1.9,1.5-3.1,1.5c-1.1,0-2-0.4-2.8-1.2c-0.8-0.8-1.2-1.7-1.2-2.8
				c0-1,0.3-1.8,0.9-2.5l12.6-17c0.7-1,1.7-1.8,2.9-2.4c2.3-1.2,5.1-1.2,7.4-0.1c1.2,0.6,2.1,1.3,2.8,2.3l12.7,17
				c0.3,0.3,0.5,0.7,0.7,1.1c0.2,0.5,0.3,1,0.3,1.6c0,1.1-0.4,2-1.2,2.8C379.5,152.5,378.6,152.9,377.5,152.9z"/>
			<path class="st3" d="M421,152.9h-31.7c-1.1,0-2-0.4-2.8-1.2c-0.8-0.8-1.2-1.7-1.2-2.8c0-1.1,0.4-2,1.2-2.8
				c0.8-0.8,1.7-1.2,2.8-1.2h31.9c0.1,0,0.2,0,0.4-0.1c0.1-0.1,0.1-0.2,0.1-0.3c0-0.2,0-0.3-0.2-0.4c-0.1-0.1-0.2-0.1-0.3-0.1h-29.1
				c-1.2,0-2.3-0.2-3.3-0.7c-1-0.4-1.9-1-2.6-1.8c-0.8-0.8-1.4-1.6-1.8-2.6c-0.4-1-0.7-2.1-0.7-3.3c0-1.2,0.2-2.3,0.7-3.3
				c0.4-1,1-1.9,1.8-2.6c0.8-0.8,1.6-1.4,2.6-1.8c1-0.4,2.1-0.7,3.3-0.7h31.8c1.1,0,2,0.4,2.8,1.2c0.8,0.8,1.2,1.7,1.2,2.8
				c0,1.1-0.4,2-1.2,2.8s-1.7,1.2-2.8,1.2h-31.9c-0.1,0-0.3,0-0.4,0.2c-0.1,0.1-0.1,0.1-0.1,0.3c0,0.1,0,0.2,0.2,0.3
				c0.2,0.1,0.3,0.2,0.4,0.2H421c1.2,0,2.3,0.2,3.3,0.7c1,0.4,1.9,1,2.7,1.8c0.8,0.8,1.4,1.7,1.8,2.7c0.4,1,0.7,2.2,0.7,3.3
				c0,1.2-0.2,2.3-0.7,3.3c-0.4,1-1,1.9-1.8,2.6c-0.8,0.8-1.7,1.4-2.7,1.8C423.3,152.7,422.2,152.9,421,152.9z"/>
		</g>
		<g>
			<path class="st4" d="M48.4,152.1H21.1c-1.6,0-3-0.4-4.2-1.2c-1.2-0.7-2.2-1.7-3.1-2.9c-0.8-1.2-1.5-2.5-1.9-3.9
				c-0.4-1.4-0.7-2.8-0.7-4.2c0-1.4,0.2-2.8,0.7-4.2c0.5-1.4,1.1-2.7,2-3.9c0.9-1.2,2-2.1,3.2-2.9c1.3-0.8,2.8-1.1,4.4-1.1h30.5
				c0.9,0,1.7,0.3,2.3,0.9c0.6,0.6,0.9,1.4,0.9,2.3c0,0.9-0.3,1.7-0.9,2.3c-0.6,0.6-1.4,0.9-2.3,0.9H22.8c-1.1,0-2,0.2-2.6,0.6
				c-0.7,0.4-1.2,0.8-1.5,1.4v0c-0.4,0.5-0.6,1.1-0.8,1.8c-0.1,0.7-0.2,1.3-0.2,1.9c0,0.6,0.1,1.2,0.2,1.9c0.1,0.7,0.4,1.3,0.8,1.8
				c0.4,0.5,0.9,1,1.5,1.4c0.6,0.4,1.5,0.6,2.6,0.6h25.4c0.1,0,0.3,0,0.6-0.3c0.2-0.3,0.3-0.5,0.3-0.9c0-0.4-0.1-0.7-0.3-0.9
				c-0.2-0.2-0.3-0.3-0.6-0.3H28.3c-0.9,0-1.7-0.3-2.3-0.9c-0.6-0.6-0.9-1.4-0.9-2.3c0-0.9,0.3-1.7,0.9-2.3c0.6-0.6,1.4-0.9,2.3-0.9
				h20c1,0,1.9,0.2,2.7,0.6c0.9,0.4,1.6,0.9,2.2,1.5c0.6,0.6,1.1,1.4,1.5,2.3c0.3,0.9,0.5,1.8,0.5,2.8v1.2c0,1-0.2,1.9-0.5,2.8
				c-0.3,0.9-0.9,1.6-1.5,2.3c-0.6,0.6-1.4,1.1-2.2,1.5C50.2,152,49.3,152.1,48.4,152.1z"/>
			<path class="st4" d="M94.8,152.1c-1.1,0-2-0.4-2.6-1.3l-12.2-16.3c-0.2-0.2-0.5-0.5-0.8-0.8c-0.5-0.4-0.8-0.4-1.3,0
				c-0.3,0.3-0.6,0.6-0.8,0.8l-12.3,16.3c-0.7,0.8-1.5,1.2-2.5,1.2c-0.9,0-1.7-0.3-2.3-0.9c-0.6-0.6-0.9-1.4-0.9-2.3
				c0-0.8,0.2-1.5,0.7-2l12.7-17.1c0.7-0.9,1.5-1.6,2.6-2.2c2.1-1.1,4.6-1.1,6.8-0.1c1,0.5,1.9,1.2,2.6,2.1l12.7,17
				c0.2,0.3,0.4,0.6,0.6,1c0.2,0.4,0.3,0.8,0.3,1.3c0,0.9-0.3,1.7-0.9,2.3C96.5,151.8,95.7,152.1,94.8,152.1z"/>
			<path class="st4" d="M141,152.1h-31.3c-1.1,0-2.1-0.2-3.1-0.6c-1-0.4-1.8-1-2.5-1.6c-0.7-0.7-1.3-1.5-1.7-2.4
				c-0.4-0.9-0.6-1.9-0.6-3v-13.3c0-0.9,0.3-1.7,0.9-2.3c0.6-0.6,1.4-0.9,2.3-0.9c0.9,0,1.6,0.3,2.3,0.9c0.7,0.6,1,1.4,1,2.3v13.3
				c0,0.3,0.1,0.6,0.4,0.8c0.3,0.3,0.5,0.4,0.9,0.4H141c0.9,0,1.7,0.3,2.3,0.9c0.6,0.6,0.9,1.4,0.9,2.3c0,0.9-0.3,1.7-0.9,2.3
				C142.7,151.8,141.9,152.1,141,152.1z"/>
			<path class="st4" d="M183.7,152.1c-1.1,0-2-0.4-2.6-1.3L169,134.6c-0.2-0.2-0.5-0.5-0.8-0.8c-0.5-0.4-0.8-0.4-1.3,0
				c-0.3,0.3-0.6,0.6-0.8,0.8l-12.3,16.3c-0.7,0.8-1.5,1.2-2.5,1.2c-0.9,0-1.7-0.3-2.3-0.9c-0.6-0.6-0.9-1.4-0.9-2.3
				c0-0.8,0.2-1.5,0.7-2l12.7-17.1c0.7-0.9,1.5-1.6,2.6-2.2c2.1-1.1,4.6-1.1,6.8-0.1c1,0.5,1.9,1.2,2.6,2.1l12.7,17
				c0.2,0.3,0.4,0.6,0.6,1c0.2,0.4,0.3,0.8,0.3,1.3c0,0.9-0.3,1.7-0.9,2.3C185.4,151.8,184.6,152.1,183.7,152.1z"/>
			<path class="st4" d="M167.5,149.7c-1.1,0-2.1-0.4-2.8-1.2c-0.8-0.8-1.2-1.7-1.2-2.8c0-1.1,0.4-2.1,1.2-2.8
				c0.8-0.8,1.7-1.2,2.8-1.2c1.1,0,2.1,0.4,2.8,1.2c0.8,0.8,1.2,1.7,1.2,2.8c0,1.1-0.4,2.1-1.2,2.8S168.6,149.7,167.5,149.7z"/>
			<path class="st4" d="M230.3,152.1h-31c-1.6,0-3-0.4-4.2-1.2c-1.2-0.7-2.2-1.7-3.1-2.9c-0.8-1.2-1.5-2.5-1.9-3.9
				c-0.4-1.4-0.7-2.8-0.7-4.2c0-1.4,0.2-2.8,0.7-4.2c0.5-1.4,1.1-2.7,2-3.9c0.9-1.2,2-2.1,3.2-2.9c1.3-0.8,2.8-1.1,4.4-1.1h30.5
				c0.9,0,1.7,0.3,2.3,0.9c0.6,0.6,0.9,1.4,0.9,2.3c0,0.9-0.3,1.7-0.9,2.3c-0.6,0.6-1.4,0.9-2.3,0.9h-29.4c-1.1,0-2,0.2-2.6,0.6
				c-0.7,0.4-1.2,0.8-1.5,1.4v0c-0.4,0.5-0.6,1.1-0.8,1.8c-0.1,0.7-0.2,1.3-0.2,1.9c0,0.6,0.1,1.2,0.2,1.9c0.1,0.7,0.4,1.3,0.8,1.8
				c0.4,0.5,0.9,1,1.5,1.4c0.6,0.4,1.5,0.6,2.6,0.6h29.4c0.9,0,1.7,0.3,2.3,0.9c0.6,0.6,0.9,1.4,0.9,2.3c0,0.9-0.3,1.7-0.9,2.3
				C232,151.8,231.2,152.1,230.3,152.1z"/>
			<path class="st4" d="M258.6,152.1c-0.9,0-1.7-0.3-2.3-0.9c-0.6-0.6-0.9-1.4-0.9-2.3V140c0-1.1,0.1-2.3,0.4-3.5
				c0.2-0.8,0.5-1.5,0.8-2.2h-16c-0.9,0-1.7-0.3-2.3-0.9c-0.6-0.6-0.9-1.4-0.9-2.3c0-0.9,0.3-1.7,0.9-2.3c0.6-0.6,1.4-0.9,2.3-0.9
				h36c0.9,0,1.7,0.3,2.3,0.9c0.6,0.6,0.9,1.4,0.9,2.3c0,0.9-0.3,1.6-0.9,2.2c-0.6,0.6-1.3,0.9-2.1,1l-0.1,0h-10.5
				c-0.9,0.1-1.6,0.3-2.2,0.6c-0.6,0.4-1,0.8-1.4,1.4c-0.3,0.6-0.6,1.2-0.7,1.8c-0.1,0.7-0.2,1.3-0.2,1.9v8.9c0,0.9-0.3,1.7-0.9,2.3
				C260.2,151.8,259.5,152.1,258.6,152.1z"/>
			<path class="st4" d="M286.8,152.1c-0.9,0-1.7-0.3-2.3-0.9c-0.6-0.6-0.9-1.4-0.9-2.3v-17.8c0-0.9,0.3-1.7,0.9-2.3
				c0.6-0.6,1.4-0.9,2.3-0.9c0.9,0,1.7,0.3,2.3,0.9c0.6,0.6,0.9,1.4,0.9,2.3v17.8c0,0.9-0.3,1.7-0.9,2.3
				C288.5,151.8,287.7,152.1,286.8,152.1z"/>
			<path class="st4" d="M334.7,152.1h-31c-1.6,0-3-0.4-4.2-1.2c-1.2-0.7-2.2-1.7-3.1-2.9c-0.8-1.2-1.5-2.5-1.9-3.9
				c-0.4-1.4-0.7-2.8-0.7-4.2c0-1.4,0.2-2.8,0.7-4.2c0.5-1.4,1.1-2.7,2-3.9c0.9-1.2,2-2.1,3.2-2.9c1.3-0.8,2.8-1.1,4.4-1.1h30.5
				c0.9,0,1.7,0.3,2.3,0.9c0.6,0.6,0.9,1.4,0.9,2.3c0,0.9-0.3,1.7-0.9,2.3c-0.6,0.6-1.4,0.9-2.3,0.9h-29.4c-1.1,0-2,0.2-2.6,0.6
				c-0.7,0.4-1.2,0.8-1.5,1.4v0c-0.4,0.5-0.6,1.1-0.8,1.8c-0.1,0.7-0.2,1.3-0.2,1.9c0,0.6,0.1,1.2,0.2,1.9c0.1,0.7,0.4,1.3,0.8,1.8
				c0.4,0.5,0.9,1,1.5,1.4c0.6,0.4,1.5,0.6,2.6,0.6h29.4c0.9,0,1.7,0.3,2.3,0.9c0.6,0.6,0.9,1.4,0.9,2.3c0,0.9-0.3,1.7-0.9,2.3
				C336.4,151.8,335.6,152.1,334.7,152.1z"/>
			<path class="st4" d="M377.5,152.1c-1.1,0-2-0.4-2.6-1.3l-12.2-16.3c-0.2-0.2-0.5-0.5-0.8-0.8c-0.5-0.4-0.8-0.4-1.3,0
				c-0.3,0.3-0.6,0.6-0.8,0.8l-12.3,16.3c-0.7,0.8-1.5,1.2-2.5,1.2c-0.9,0-1.7-0.3-2.3-0.9c-0.6-0.6-0.9-1.4-0.9-2.3
				c0-0.8,0.2-1.5,0.7-2l12.7-17.1c0.7-0.9,1.5-1.6,2.6-2.2c2.1-1.1,4.6-1.1,6.8-0.1c1,0.5,1.9,1.2,2.6,2.1l12.7,17
				c0.2,0.3,0.4,0.6,0.6,1c0.2,0.4,0.3,0.8,0.3,1.3c0,0.9-0.3,1.7-0.9,2.3C379.1,151.8,378.4,152.1,377.5,152.1z"/>
			<path class="st4" d="M421,152.1h-31.7c-0.9,0-1.7-0.3-2.3-0.9c-0.6-0.6-0.9-1.4-0.9-2.3c0-0.9,0.3-1.7,0.9-2.3
				c0.6-0.6,1.4-0.9,2.3-0.9h31.9c0.3,0,0.6-0.1,0.9-0.3c0.2-0.2,0.4-0.5,0.4-0.8c0-0.4-0.1-0.7-0.4-0.9c-0.2-0.2-0.5-0.4-0.8-0.4
				h-29.1c-1.1,0-2.1-0.2-3-0.6c-0.9-0.4-1.7-1-2.4-1.6c-0.7-0.7-1.2-1.5-1.6-2.4c-0.4-0.9-0.6-1.9-0.6-3c0-1.1,0.2-2.1,0.6-3
				c0.4-0.9,1-1.7,1.6-2.4c0.7-0.7,1.5-1.2,2.4-1.6c0.9-0.4,1.9-0.6,3-0.6h31.8c0.9,0,1.7,0.3,2.3,0.9c0.6,0.6,0.9,1.4,0.9,2.3
				c0,0.9-0.3,1.7-0.9,2.3c-0.6,0.6-1.4,0.9-2.3,0.9h-31.9c-0.3,0-0.6,0.1-0.9,0.4c-0.2,0.2-0.4,0.5-0.4,0.9c0,0.3,0.1,0.6,0.4,0.8
				c0.3,0.3,0.5,0.4,0.9,0.4H421c1.1,0,2.1,0.2,3,0.6c0.9,0.4,1.8,1,2.5,1.6c0.7,0.7,1.2,1.5,1.6,2.5v0c0.4,0.9,0.6,2,0.6,3
				c0,1.1-0.2,2.1-0.6,3c-0.4,0.9-1,1.7-1.6,2.4c-0.7,0.7-1.5,1.2-2.5,1.6S422.1,152.1,421,152.1z"/>
		</g>
		<g>
			<path class="st13" d="M18,135.9c0.4-0.6,1-1.2,1.8-1.6c0.8-0.4,1.7-0.7,3-0.7h29.4c0.7,0,1.3-0.2,1.8-0.7
				c0.5-0.5,0.7-1.1,0.7-1.8c0-0.7-0.2-1.3-0.7-1.8c-0.5-0.5-1.1-0.7-1.8-0.7H21.6c-1.5,0-2.8,0.3-4,1c-1.2,0.7-2.2,1.6-3,2.7
				c-0.8,1.1-1.5,2.3-1.9,3.7c-0.4,1.3-0.7,2.7-0.7,4c0,1.3,0.2,2.6,0.6,4c0.4,1.4,1,2.6,1.8,3.7c0.8,1.1,1.7,2,2.9,2.7
				c1.1,0.7,2.4,1,3.8,1h27.3c0.9,0,1.7-0.2,2.5-0.5c0.8-0.3,1.4-0.8,2-1.4c0.6-0.6,1-1.3,1.3-2c0.3-0.8,0.5-1.6,0.5-2.5v-1.2
				c0-0.9-0.2-1.7-0.5-2.5s-0.8-1.5-1.3-2s-1.2-1-2-1.4c-0.8-0.3-1.6-0.5-2.5-0.5h-20c-0.7,0-1.3,0.2-1.8,0.7
				c-0.5,0.5-0.7,1.1-0.7,1.8c0,0.7,0.2,1.3,0.7,1.8c0.5,0.5,1.1,0.7,1.8,0.7h19.8c0.5,0,0.9,0.2,1.2,0.6c0.3,0.4,0.4,0.8,0.4,1.4
				c0,0.5-0.2,1-0.5,1.4c-0.3,0.4-0.7,0.6-1.1,0.6H22.8c-1.2,0-2.2-0.2-3-0.7c-0.8-0.4-1.3-1-1.8-1.6c-0.4-0.6-0.7-1.3-0.9-2.1
				c-0.2-0.8-0.2-1.4-0.2-2.1c0-0.6,0.1-1.3,0.2-2.1C17.3,137.2,17.6,136.5,18,135.9z"/>
			<path class="st13" d="M96.6,147.1l-12.7-17c-0.6-0.8-1.4-1.4-2.3-1.9c-0.9-0.5-1.9-0.7-3-0.7c-1.1,0-2.2,0.3-3.1,0.8
				c-1,0.5-1.8,1.2-2.4,2l-12.7,17.1c-0.3,0.4-0.5,0.9-0.5,1.5c0,0.7,0.2,1.3,0.7,1.8c0.5,0.5,1.1,0.7,1.8,0.7
				c0.8,0,1.4-0.3,1.9-0.9l12.3-16.3c0.2-0.3,0.5-0.6,0.9-0.9c0.4-0.3,0.7-0.5,1.1-0.5s0.8,0.2,1.1,0.5c0.4,0.3,0.7,0.6,0.9,0.9
				l12.2,16.3c0.5,0.7,1.2,1,2,1c0.7,0,1.3-0.2,1.8-0.7c0.5-0.5,0.7-1.1,0.7-1.8c0-0.3-0.1-0.7-0.2-1
				C97,147.6,96.8,147.4,96.6,147.1z"/>
			<path class="st13" d="M141,146.4h-31.4c-0.5,0-1-0.2-1.4-0.6c-0.4-0.4-0.6-0.8-0.6-1.4v-13.3c0-0.7-0.3-1.3-0.8-1.8
				c-0.5-0.5-1.1-0.7-1.8-0.7c-0.7,0-1.3,0.2-1.8,0.7c-0.5,0.5-0.7,1.1-0.7,1.8v13.3c0,1,0.2,1.9,0.6,2.7c0.4,0.8,0.9,1.6,1.5,2.2
				c0.6,0.6,1.4,1.1,2.3,1.5c0.9,0.4,1.8,0.5,2.8,0.5H141c0.7,0,1.3-0.2,1.8-0.7c0.5-0.5,0.7-1.1,0.7-1.8c0-0.7-0.2-1.3-0.7-1.8
				C142.3,146.6,141.7,146.4,141,146.4z"/>
			<path class="st13" d="M185.5,147.1l-12.7-17c-0.6-0.8-1.4-1.4-2.3-1.9c-0.9-0.5-1.9-0.7-3-0.7c-1.1,0-2.2,0.3-3.1,0.8
				c-1,0.5-1.8,1.2-2.4,2l-12.7,17.1c-0.3,0.4-0.5,0.9-0.5,1.5c0,0.7,0.2,1.3,0.7,1.8c0.5,0.5,1.1,0.7,1.8,0.7
				c0.8,0,1.4-0.3,1.9-0.9l12.3-16.3c0.2-0.3,0.5-0.6,0.9-0.9c0.4-0.3,0.7-0.5,1.1-0.5c0.4,0,0.8,0.2,1.1,0.5
				c0.4,0.3,0.7,0.6,0.9,0.9l12.2,16.3c0.5,0.7,1.2,1,2,1c0.7,0,1.3-0.2,1.8-0.7c0.5-0.5,0.7-1.1,0.7-1.8c0-0.3-0.1-0.7-0.2-1
				C185.9,147.6,185.7,147.4,185.5,147.1z"/>
			<path class="st13" d="M167.5,142.5c-0.9,0-1.7,0.3-2.3,0.9c-0.6,0.6-0.9,1.4-0.9,2.3c0,0.9,0.3,1.7,0.9,2.3
				c0.6,0.6,1.4,0.9,2.3,0.9c0.9,0,1.7-0.3,2.3-0.9c0.6-0.6,0.9-1.4,0.9-2.3c0-0.9-0.3-1.7-0.9-2.3
				C169.2,142.8,168.4,142.5,167.5,142.5z"/>
			<path class="st13" d="M196.2,135.9c0.4-0.6,1-1.2,1.8-1.6c0.7-0.4,1.7-0.7,3-0.7h29.4c0.7,0,1.3-0.2,1.8-0.7
				c0.5-0.5,0.7-1.1,0.7-1.8c0-0.7-0.2-1.3-0.7-1.8c-0.5-0.5-1.1-0.7-1.8-0.7h-30.5c-1.5,0-2.8,0.3-4,1c-1.2,0.7-2.2,1.6-3,2.7
				s-1.5,2.3-1.9,3.7c-0.4,1.3-0.7,2.7-0.7,4c0,1.3,0.2,2.6,0.6,4c0.4,1.4,1,2.6,1.8,3.7c0.8,1.1,1.7,2,2.9,2.7c1.1,0.7,2.4,1,3.8,1
				h31c0.7,0,1.3-0.2,1.8-0.7c0.5-0.5,0.7-1.1,0.7-1.8c0-0.7-0.2-1.3-0.7-1.8c-0.5-0.5-1.1-0.7-1.8-0.7h-29.4c-1.2,0-2.2-0.2-3-0.7
				c-0.8-0.4-1.3-1-1.8-1.6c-0.4-0.6-0.7-1.3-0.9-2.1c-0.2-0.8-0.2-1.4-0.2-2.1c0-0.6,0.1-1.3,0.2-2.1
				C195.4,137.2,195.7,136.5,196.2,135.9z"/>
			<path class="st13" d="M276.6,128.6h-36c-0.7,0-1.3,0.2-1.8,0.7c-0.5,0.5-0.7,1.1-0.7,1.8c0,0.7,0.2,1.3,0.7,1.8
				c0.5,0.5,1.1,0.7,1.8,0.7h17.2c-0.6,1-1,2-1.3,3.1c-0.3,1.1-0.4,2.2-0.4,3.3v8.9c0,0.7,0.2,1.3,0.7,1.8c0.5,0.5,1.1,0.7,1.8,0.7
				c0.7,0,1.3-0.2,1.8-0.7c0.5-0.5,0.7-1.1,0.7-1.8V140c0-0.6,0.1-1.3,0.2-2c0.1-0.7,0.4-1.4,0.8-2c0.4-0.6,0.9-1.2,1.6-1.6
				c0.7-0.4,1.5-0.7,2.6-0.8h10.5c0.6-0.1,1.2-0.3,1.6-0.8c0.5-0.5,0.7-1,0.7-1.7c0-0.7-0.2-1.3-0.7-1.8
				C277.9,128.8,277.3,128.6,276.6,128.6z"/>
			<path class="st13" d="M286.8,128.6c-0.7,0-1.3,0.2-1.8,0.7c-0.5,0.5-0.7,1.1-0.7,1.8v17.8c0,0.7,0.2,1.3,0.7,1.8
				c0.5,0.5,1.1,0.7,1.8,0.7s1.3-0.2,1.8-0.7c0.5-0.5,0.7-1.1,0.7-1.8v-17.8c0-0.7-0.2-1.3-0.7-1.8
				C288.1,128.8,287.5,128.6,286.8,128.6z"/>
			<path class="st13" d="M300.6,135.9c0.4-0.6,1-1.2,1.8-1.6c0.7-0.4,1.7-0.7,3-0.7h29.4c0.7,0,1.3-0.2,1.8-0.7
				c0.5-0.5,0.7-1.1,0.7-1.8c0-0.7-0.2-1.3-0.7-1.8c-0.5-0.5-1.1-0.7-1.8-0.7h-30.5c-1.5,0-2.8,0.3-4,1c-1.2,0.7-2.2,1.6-3,2.7
				c-0.8,1.1-1.5,2.3-1.9,3.7c-0.4,1.3-0.7,2.7-0.7,4c0,1.3,0.2,2.6,0.6,4c0.4,1.4,1,2.6,1.8,3.7c0.8,1.1,1.7,2,2.9,2.7
				c1.1,0.7,2.4,1,3.8,1h31c0.7,0,1.3-0.2,1.8-0.7c0.5-0.5,0.7-1.1,0.7-1.8c0-0.7-0.2-1.3-0.7-1.8c-0.5-0.5-1.1-0.7-1.8-0.7h-29.4
				c-1.2,0-2.2-0.2-3-0.7c-0.8-0.4-1.3-1-1.8-1.6c-0.4-0.6-0.7-1.3-0.9-2.1c-0.2-0.8-0.2-1.4-0.2-2.1c0-0.6,0.1-1.3,0.2-2.1
				C299.9,137.2,300.2,136.5,300.6,135.9z"/>
			<path class="st13" d="M379.2,147.1l-12.7-17c-0.6-0.8-1.4-1.4-2.3-1.9c-0.9-0.5-1.9-0.7-3-0.7c-1.1,0-2.2,0.3-3.1,0.8
				c-1,0.5-1.8,1.2-2.4,2L343,147.4c-0.3,0.4-0.5,0.9-0.5,1.5c0,0.7,0.2,1.3,0.7,1.8c0.5,0.5,1.1,0.7,1.8,0.7c0.8,0,1.4-0.3,1.9-0.9
				l12.3-16.3c0.2-0.3,0.5-0.6,0.9-0.9c0.4-0.3,0.7-0.5,1.1-0.5c0.4,0,0.8,0.2,1.1,0.5c0.4,0.3,0.7,0.6,0.9,0.9l12.2,16.3
				c0.5,0.7,1.2,1,2,1c0.7,0,1.3-0.2,1.8-0.7c0.5-0.5,0.7-1.1,0.7-1.8c0-0.3-0.1-0.7-0.2-1C379.6,147.6,379.5,147.4,379.2,147.1z"/>
			<path class="st13" d="M427.5,141.8c-0.4-0.9-0.9-1.6-1.5-2.2c-0.6-0.6-1.4-1.1-2.2-1.5c-0.9-0.4-1.8-0.5-2.7-0.5h-28.9
				c-0.5,0-1-0.2-1.4-0.6c-0.4-0.4-0.6-0.8-0.6-1.4c0-0.6,0.2-1,0.6-1.4c0.4-0.4,0.9-0.5,1.4-0.5h31.9c0.7,0,1.3-0.2,1.8-0.7
				c0.5-0.5,0.7-1.1,0.7-1.8c0-0.7-0.2-1.3-0.7-1.8c-0.5-0.5-1.1-0.7-1.8-0.7h-31.8c-1,0-1.9,0.2-2.7,0.5c-0.8,0.4-1.6,0.9-2.2,1.5
				c-0.6,0.6-1.1,1.4-1.5,2.2c-0.4,0.8-0.6,1.7-0.6,2.7c0,1,0.2,1.9,0.6,2.7c0.4,0.8,0.9,1.6,1.5,2.2c0.6,0.6,1.4,1.1,2.2,1.5
				c0.8,0.4,1.7,0.5,2.7,0.5h29.1c0.5,0,1,0.2,1.4,0.6c0.4,0.4,0.6,0.9,0.6,1.4c0,0.5-0.2,1-0.6,1.3c-0.4,0.4-0.8,0.5-1.4,0.5h-31.9
				c-0.7,0-1.3,0.2-1.8,0.7c-0.5,0.5-0.7,1.1-0.7,1.8c0,0.7,0.2,1.3,0.7,1.8c0.5,0.5,1.1,0.7,1.8,0.7H421c1,0,1.9-0.2,2.7-0.5
				c0.9-0.3,1.6-0.8,2.2-1.5c0.6-0.6,1.1-1.4,1.5-2.2c0.4-0.8,0.5-1.7,0.5-2.7C428,143.5,427.8,142.6,427.5,141.8z"/>
		</g>
	</g>
</g>
</svg>
